/* XPM */
static char *_1a3717c4538493da4520c7835cc7f788Mwt6uq6Jp3kc6cm[] = {
/* columns rows colors chars-per-pixel */
"64 64 144 2 ",
"   c #5784CC",
".  c #5886CD",
"X  c #5B8ACE",
"o  c #5D8CD0",
"O  c #5F90D2",
"+  c #618CCF",
"@  c #6690CF",
"#  c #618ED1",
"$  c #6392D2",
"%  c #6A96D3",
"&  c #6D99D5",
"*  c #77AEE5",
"=  c #79AFE6",
"-  c #7BB1E7",
";  c #7DB4E9",
":  c #7EB8E9",
">  c #82B4E7",
",  c #86B8E7",
"<  c #81B7EA",
"1  c #81B9EA",
"2  c #80B8EB",
"3  c #81B8EB",
"4  c #82B8EA",
"5  c #82B9EA",
"6  c #82B9EB",
"7  c #82BAEA",
"8  c #83BAEA",
"9  c #82BAEB",
"0  c #83BAEB",
"q  c #81B9E9",
"w  c #85BAE9",
"e  c #87BBEA",
"r  c #80B8EC",
"t  c #81B8EC",
"y  c #80B9EC",
"u  c #81B9EC",
"i  c #82B8EC",
"p  c #82B9EC",
"a  c #82B9ED",
"s  c #83B9ED",
"d  c #81BAEC",
"f  c #82BBEC",
"g  c #83BBEC",
"h  c #84BBEC",
"j  c #87BCEC",
"k  c #86BDEC",
"l  c #86BCED",
"z  c #83BAEB",
"x  c #89BBEA",
"c  c #88BBEB",
"v  c #89BBEB",
"b  c #89BDEB",
"n  c #87C0EB",
"m  c #8BC1ED",
"M  c #9ED4EF",
"N  c #9BD1EF",
"B  c #9DD3F1",
"V  c #9DD4F0",
"C  c #9DD4F1",
"Z  c #9FD5F0",
"A  c #9ED4F1",
"S  c #9FD5F1",
"D  c #9FD6F0",
"F  c #9ED5F1",
"G  c #A0D5F1",
"H  c #A0D7F0",
"J  c #A0D6F1",
"K  c #A1D6F2",
"L  c #A1D7F2",
"P  c #A2D6F2",
"I  c #A3D7F2",
"U  c #A1D6F1",
"Y  c #A1D8F2",
"T  c #A1D9F2",
"R  c #A3D9F3",
"E  c #A4DBF3",
"W  c #A2DAF4",
"Q  c #A3DAF4",
"!  c #A3DBF4",
"~  c #A3DAF5",
"^  c #A5D9F4",
"/  c #A4DBF4",
"(  c #A5DBF4",
")  c #A4DBF5",
"_  c #A6DEF6",
"`  c #A7DEF6",
"'  c #A7DFF6",
"]  c #A4DBF4",
"[  c #AADCF3",
"{  c #A8DAF4",
"}  c #A9DBF4",
"|  c #A8DCF4",
" . c #ABDDF5",
".. c #AADEF5",
"X. c #ABDEF5",
"o. c #A9DEF6",
"O. c #ABDEF6",
"+. c #AADDF5",
"@. c #A6DFF8",
"#. c #B1DFF5",
"$. c #A7E1F6",
"%. c #A7E0F7",
"&. c #A7E1F7",
"*. c #A7E0F6",
"=. c #A9E1F7",
"-. c #AAE2F7",
";. c #ADE1F7",
":. c #AFE4F7",
">. c #ABE1F6",
",. c #A7E1F8",
"<. c #AFE2F8",
"1. c #AAE4F8",
"2. c #ABE4F8",
"3. c #ACE4F8",
"4. c #B3E3F7",
"5. c #B3E4F7",
"6. c #B2E3F6",
"7. c #B9E6F7",
"8. c #B3E4F8",
"9. c #B5E4F9",
"0. c #B3E5F8",
"q. c #D6E0F3",
"w. c #D7E0F4",
"e. c #D6E4F5",
"r. c #DBE5F5",
"t. c #DBE8F7",
"y. c #DCE8F7",
"u. c #DCE9F7",
"i. c #DCE8F7",
"p. c #DBE7F8",
"a. c #DCE7F8",
"s. c #D7E9F9",
"d. c #DEEBF9",
"f. c #DCEBF9",
"g. c #E1EAF7",
"h. c #E2EAF7",
"j. c #E2E9F8",
"k. c #E2EAF8",
"l. c #E3EBF9",
"z. c #E2ECF9",
"x. c #E7EDFA",
"c. c #E3ECF9",
"v. c #E8ECFA",
"b. c #E9ECF9",
/* pixels */
"=.2.V + = d t t t t t d o.l.v.{ o   . . . . . .   . . .   o { d.3.2.M # = t t t d d 4 x o.l.x.( o   . . . . . . . . # X   o } l.",
"=.Y $   o = 4 : ; ; ; ; 1 5.t.x = o . .           .     . # W 6.2.B $   o - t : - 4 4 ; 1 4.p.v = o . .   .         . . . # W 8.",
"E $       o ; - o . . . X Y o.# = s = # o o . o X X . o ; ; d 2.( #   .   o ; - X # o . # Y { # = t - o . X o . X o X o ; : t o.",
"] o   .   o = o     . .   $ B $ . ; s ; ; ; ; ; < t : ; ; = $ W Y o   .   o = # X . . .   $ V $ o ; d ; ; ; ; ; ; ; ; ; ; = $ L ",
"! O   . . ; ; o   . . . . . h V @ o = t t 4 d ; < > : ; # .   $ J o     . - ; o . . . . . . 0 M # . - d : d t > - ; ; ; o . . # ",
"E $   . o : h - o . .   . . ; 9.w.$ o ; 4 d - $ . . o = - o   o V #     o t h = o . .   . X ; 5.w.$ o ; : d = o o o o - ; .     ",
"] ; . X - 1 4 ; : - o X . X h u.l.J 4 d ; > $   . . . o ; - . $ ( ; o o = t ; ; ; - O . . o 0 u.l.I 4 d : = o     . . o - - X o ",
"=.h ; ; d ; # o ; ; - - ; 1 o.=.v h ( W h $ o   . . .   o = $ S @.d ; ; d = o o - ; - - ; g =.o.x h Y ( d # o   . . . . o = % A ",
"( h 1 1 > +   . . X . o 1 ] ] d : : t h L @.V $     . . X 1 E 6.W d t d - X   . . X X o 1 %.Y : ; t d n S ] S $         o 0 [ 5.",
"h ; 1 > X   . . . .   o h Y $ o ; t t = $ J 3.L $ X X $ Y =.x.a.b : t - o   . . . .   O h Y $ X ; d h = % W 2.V # o o $ Y >.z.g.",
"! h ; X   .         $ Y ! ; . . = t ; o   # V 0.a.#.! Y =.>.a.9.@.h - o   .   . .   @ D ! ; . X ; h ; o   O D 0.p.X.( W =.>.t.5.",
"2.@.q O O X O X X $ Y >.d o   . o ; : o .   $ I x.g.o.h 4 4 h L 3.] 4 o X + X o X $ D :.1 X . X # ; ; o .   $ Y l.d.o.h ; ; x Y ",
"( 2.o.{ [ [ E =.( W 4.a.4       o ; : - X .   $ E =.h - o . . % E 3.] o.o.{ E [ ] ] 5.u.> . . . o ; t = o     $ o.o.h - o . . $ ",
"$ V 0.d.v.g.9.f.0.3.z.l.4 o X o ; : : d ; X   $ Y h - X . . o   $ J 0.d.v.z.9.f.:.:.l.u.1 . . o ; t t h - o   $ Y h = X . .     ",
"  # V 9.g.x.=.[ Y W [ >.h 1 0 ; ; ; ; ; ; - 0 W ] : X   . # .     $ J 4.l.l.6.[ ] ! =.=.b ; ; - : ; ; ; ; - 0 ! ] ; X . . . . . ",
"    $ W 5.d.{ $ X X $ Y =.>.o.0 o . . . X h t.5.h ; . . . . . . .   $ W 4.z.E o X X $ ! =.=.=.g . . . . o b t.5.h ; X X   . . . ",
"    X 1 2.o.1 o . . o x o.E ] V $ X + X $ M #.e.v - o   . . . . . . X h o.o.4 o o . o h @.] W B # o # o $ V X.q.0 - + X . . . . ",
"  o ; h W 0 ; ; ; ; 4 s ; o o $ Y #.a.X.M # o > t ; . . . . .     o ; h Y h ; ; - ; ; ; ; o o $ ~ #.w.X.N # # 4 d 4 X   .   . . ",
"X > %.! h 4 d d d t 4 t ; .   . E z.x.E #     o ; : o     . .   o 1 @.W h t t t h t t t - o   o E g.x.J $     o 4 ; o         X ",
"h o.%.1 ; ; ; ; = ; t t ; o     + X.E +   .   o ; h = o . o   o 4 =.] 4 ; ; ; > > ; t : - o     # o.I $   .   $ ; 4 = o X .   X ",
">.d.#.o . . o . . o - t d - o . $ J $   . . o = d t t ; 4 - O 4 X.l.[ o X X X + o o - t d ; o . $ J $   .   o ; t t 4 ; 4 - $ ; ",
"6.v.r.$     . . .   o ; : : : : @.W .     o ; d ; ; ; ; 4 d E o.6.b.w.$   X X       o ; ; 1 - : ] E . . . X - 1 ; ; ; 4 1 1 o.=.",
"o.d.9.D $   . . .     . X ; h h 3.X.$ o o > h = o . . o = b t.3.o.l.5.J $ X . .         . ; 0 h 3.{ $ X # - h - o . X X = b t.>.",
"h E ] =.J $     o o o o # s ] >.l.l.o.J x > = #   . .   o Y E 1 h E ( 3.G #     o # # X @ 0 %.>.l.d.o.Y 0 - - X         # E E h ",
"; o $ I 3.Y $ $ J E E Y ! ] ! >.r.6.2.>.Y $ .   . . .   $ Y $ - ; X $ V 3.J $ $ Y ] ( ( Y ] ! >.p.6.2.3.! $ . . . . .   $ Y $ - ",
"; X   % J 2.E E =.] h h 1 ; $ : h 4 I X.:.J $         $ ( J o o - o   $ Y 2.Y Y =.] h h 1 ; $ 1 h d S =.0.V #         $ ( J . . ",
"1 - +   $ E h h d 1 d = o   . ; - . $ >.d.0.J $ X X $ E J #   . 4 - .   $ W m d d d : - X . . ; - . $ >.f.3.J $ o o $ { J # . + ",
"h 4 .   X W h ; 4 ; - o     o * o # J 2.=.o.=.E %.Y 6.e.& o   o ; ; X   X W g ; : ; - X .   o - # $ L o.o.2.o.W ] ] 4.e.& . . $ ",
"h ; .   $ E o.h - O . .   o - o o L @.h ; 4 > h %.;.t.X.] Y % - d - .   $ ] o.h ; o . .   # - X $ L @.d ; > ; h o.>.r.X.E Y $ - ",
"h 4 # $ Y 7.l.#.g = o . o ; ; o * t > = X . X = > 1 h h ] >.] h h 1 X $ E 7.z.6.h - o . # 4 ; o * 4 4 = #   o = 4 d h h ] =.Y b ",
"W @.( ] 3.e.r.e.o.h 1 ; t 1 d > o . . X       X X - ; - 1 x ] ] ! %.! E :.w.r.w.o.g d ; i h d ; o . o         . o * ; ; ; 1 =.%.",
"b o.3.=.E % + & ] %.] 2.=.>.>.E # . X . X X X X . + X $ # $ o.3.m =.:.=.E & + & ] o.] o.X.X.3.L # . o . X X X X X o X + X $ E 5.",
"o.3.L $ - : ; : h h h m =.u.x.[ # . X X X X X X X X + + . o [ f.>.:.Y % ; : ; ; s l h l o.z.x.o.# . X X X X X X X . X X   #  .j.",
"3.L $   o - d : ; ; 1 4 1 5.t.h - + .           .   X . . O Y :.2.M $   X - 1 1 ; ; ; - d 6.a.h = X . .         .         # ~ #.",
"] $   . . X ; ; X @ o . o Y =.$ = < - o X X X . X X . X - ; 1 =.E $   .   o ; - o . o . o W o.$ - 4 = o . X . # + X X # - ; d o.",
"] #   .   o = $ X         $ C $ . ; t - > - ; ; - > ; ; ; - $ Y E X . . . o - o     . .   $ V $ o - d ; - ; > 4 > ; - - : - $ S ",
"] O     . - ; o X . . . . . 1 V # o - t d : t ; ; 4 ; ; O .   $ J #   . . - ; o   . . . . . 1 G # . - t t d s > ; ; ; ; o . . o ",
"o.$     o ; s - X . . . . . ; 5.w.@ o ; : d ; o X . o - ; X   X J #   . o 1 d - o . .   . . ; 6.w.$ o ; h s - o X o o - - o .   ",
"=.; o o - : ; ; ; ; o . . X 0 u.l.I 4 t 1 - o     .   o ; - . @ Y ; X X > d ; ; ; - o . . o 0 d.l.I 4 4 t - o       . o - = . o ",
"=.g - - : ; o X - ; - ; - 1 o.>.v h ( ( g $ X . . . .   X - $ M =.1 - 4 d ; X o ; : - = ; d o.>.x x W ( t # o   . . . . o = % A ",
"! d d d - o   . X X X o 4 ( ] 1 : ; v b L ] L $   . .   X 1 E 6.( g h d - X   . X X X X 4 ] ] 1 ; t d h Y ] V #         o 1 { 6.",
"h 1 1 ; o . . . .     X d W $ . ; s s = $ L 3.L $ X X $ J >.x.u.b ; t ; O   . .   .   X h Y $ o ; d d = $ W 3.J $ o o $ V >.g.l.",
"E h ; X   . . . .   $ V ( 4 . . ; h > o   $ S 3.e.X.] Y o.;.u.5.! h ; o             $ Y E 4   X ; t ; o   $ J 6.s.X.( W %.>.u.7.",
"5.%.1 o X o X X X $ V >.1 o   + # ; ; o     $ E x.z.=.g ; ; w Y 2.] 1 o X O X X X $ D :.w X .   o ; ; o .   $ E l.d.o.h ; > b E ",
"E 2.%.[ o.o.E [ ( W 9.t.0 . . . X ; d - o     # { X.h - o . . $ Y 2.] o.[ ] E >.! ! 5.u.> X     X ; t = o .   $ X.o.h - X + X O ",
"$ M 3.d.v.g.5.f.5.3.z.g.0 o . . - d 1 g ; o . # W h ; o   . .   $ V 5.d.x.z.5.f.5.3.g.g., $ X X ; t t t - o . + Y g - O + .     ",
". $ V 9.g.b.>.o.] ] o.X.h 4 ; ; ; ; ; ; ; - i Y @.4 o   . .   .   $ J 5.x.x.;.E ! ] =.:.b 4 ; ; ; ; ; ; ; ; 0 W ] 1 o . . . . . ",
"X   $ Y 5.g.[ $ X X $ Y =.o.2.1 o . . . X h r.4.h ; o . . . . . .   $ W 5.f.E @ X X $ E =.o.] h o . . . o 0 p.6.h ; .   . .   . ",
"X   X i %.o.1 o . o . t ] @.( B # . + X $ B #.e.h - # X . . . . . . o d =.o.4 o . # # 1 @.] ] V $ X + X # B 6.q.h - o . . .   . ",
"  X - x W d ; ; - ; ; 4 t # o $ H #.w.X.M $ # > s 4 +   . . .     o - n W h ; ; ; ; ; d 4 $ o $ J X.w.X.N $ o 4 d ; . . . . . . ",
"X ; ] ] h 4 4 4 h t t t ; .   . E g.x.{ $     o 4 4 X   .   .   . 4 ] ] h 4 : d t t d ; ; .   X I z.x.{ $     o ; ; o     . .   ",
"0 E =.h ; ; ; 4 t ; 4 t ; o . . # { E $   . . $ ; t = o . o   o ; o.] 1 ; ; ; ; ; ; t ; ; o .   $ [ E $       o ; t = o . . . . ",
">.g.#.X X X + + . o - d t = o . $ V $   .   o ; t t t < ; - # ; o.d.X.+ . X . o o o = d d - o . $ J @   . X o - 1 d d ; ; - $ ; ",
"6.x.a.$   X X   . . o = : t ; : W ( X     o = t - ; ; ; t t I 2.6.v.w.$     . .     o - ; : ; ; W ( X   + + = d ; ; ; ; : a ( ,.",
">.u.7.J % X   X       . X ; t h >.X.$ X o = d - o X X o = v s.3.=.z.9.H $   . . . .   . . ; 0 h >.X.$ + + - 1 - o o . o = b s.3.",
"0 E E 3.J $     X X + o + 0 @.X.l.l.o.L h ; - o         o ~ { h 0 { ] 0.J #   . X o o o @ h ] >.l.u.X.E 1 ; - X     .   o W { h ",
"; o $ V 3.J $ # J o.E Y E E E >.a.4.>.3.! $ . . . . .   $ J % = ; @ % V 3.J $ $ J ( W Y Y ] *.=.a.4.3.2.W $ . . . .     $ J $ - ",
"; o   # L 2.( W =.] h d 1 ; $ 4 h d J =.0.Y $         $ E W X X - O   $ J 2.Y Y 2.@.h d 1 ; $ ; 0 4 J 2.3.L $   .     @ Y Y X . ",
"; - o   $ L b d 0 1 t = o . . ; ; . $ o.t.0.W $ X X # I I $   + 4 - .   $ W b g d d : = o . . ; = o $ >.f.0.J $ X o $ E Y $ .   ",
"d ; .   o W h : 4 ; - o     o - # $ J o.2.] %.W ] ] #.s.& . X $ ; ; o   X Y h ; : ; - O     O = o # S 2.o.,.o.( E ( #.e.& . . o ",
": ; .   # ( o.h ; O .     o = # X J =.h ; ; : h ] >.t.#.] W $ - t ; .   $ ] =.h ; $ . .   o = o # G o.h : t ; h o.>.s.;.E I $ - ",
"h 1 X $ J 7.z.6.g - X . # ; > o * t 4 = o o o * 0 0 h h ] 2.W h d 1 o $ Y 7.z.6.h = . . o - ; o * 4 t = o . o = 4 0 0 m >.>.Y h ",
"] =.] ] 6.e.r.e.o.n : : g g d ; o . o o     . o o = ; - ; : ] 2.( ] ( ! 5.w.r.w.o.h : ; : d d ; o . X X .   . . X * ; ; ; 1 =.=.",
"h ] 3.3.{ $ + % ! ,.%.,.,.] ,.Y o       .   .   . X X . . # ] ,.n o.2.2.E $ + % ] =.=.@.@.@.o.L o   .   . . . . . # X X   # ] =."
};
