/* XPM */
static char *_67596df71ef4461a1bffde420f53d90mHI5m4ZQBAxpB8DO[] = {
/* columns rows colors chars-per-pixel */
"80 80 256 2 ",
"   c #050903",
".  c #061403",
"X  c #0A1305",
"o  c #0C1B06",
"O  c #0C150A",
"+  c #0E1B0A",
"@  c #10150A",
"#  c #121D0B",
"$  c #111410",
"%  c #0C2406",
"&  c #0E2409",
"*  c #152608",
"=  c #14240C",
"-  c #142B0B",
";  c #1A2C0D",
":  c #1A3706",
">  c #15330C",
",  c #1B330D",
"<  c #1C3B0B",
"1  c #1B2413",
"2  c #182914",
"3  c #1B2B14",
"4  c #1D3313",
"5  c #1E3B12",
"6  c #1C3518",
"7  c #22340D",
"8  c #223D0D",
"9  c #222D18",
"0  c #223414",
"q  c #243C14",
"w  c #2A3D15",
"e  c #23341B",
"r  c #2A3518",
"t  c #253B1B",
"y  c #2A3C1A",
"u  c #353F1D",
"i  c #2A3A22",
"p  c #333B2C",
"a  c #1E4209",
"s  c #1D4210",
"d  c #27450B",
"f  c #23430D",
"g  c #254A0D",
"h  c #2A4B0D",
"j  c #344E0F",
"k  c #2C550C",
"l  c #34580D",
"z  c #254314",
"x  c #2B4414",
"c  c #254B14",
"v  c #2C4B14",
"b  c #25431A",
"n  c #2B441B",
"m  c #254D19",
"M  c #2C4B1B",
"N  c #324C14",
"B  c #32451D",
"V  c #334C1C",
"C  c #384A19",
"Z  c #2D5313",
"A  c #2D5715",
"S  c #2D521B",
"D  c #335314",
"F  c #3A5416",
"G  c #335B14",
"H  c #3B5C15",
"J  c #34541C",
"K  c #3B541C",
"L  c #355B1B",
"P  c #3B5C1C",
"I  c #3A640C",
"U  c #366115",
"Y  c #3C6315",
"T  c #3B6816",
"R  c #3C631C",
"E  c #3E691B",
"W  c #2C4422",
"Q  c #2C4B22",
"!  c #2E4928",
"~  c #324523",
"^  c #334C23",
"/  c #3A4B27",
"(  c #324B2B",
")  c #354C2A",
"_  c #345323",
"`  c #3B5423",
"'  c #355B22",
"]  c #3C5C24",
"[  c #36532B",
"{  c #3B542B",
"}  c #3C5C2B",
"|  c #3D5832",
" . c #3D6323",
".. c #386626",
"X. c #3E6A23",
"o. c #3C642B",
"O. c #42581A",
"+. c #425C1D",
"@. c #46710E",
"#. c #466616",
"$. c #436B15",
"%. c #43641C",
"&. c #446C1C",
"*. c #4A6D1D",
"=. c #526B1C",
"-. c #497614",
";. c #44721C",
":. c #4C741C",
">. c #4D7A1B",
",. c #52751C",
"<. c #557B18",
"1. c #537C1C",
"2. c #414D2A",
"3. c #465926",
"4. c #425D24",
"5. c #42562B",
"6. c #425C2C",
"7. c #425C33",
"8. c #485D35",
"9. c #436423",
"0. c #4A6524",
"q. c #446A24",
"w. c #4B6D24",
"e. c #44642B",
"r. c #4B652B",
"t. c #456A2B",
"y. c #4B6C2B",
"u. c #556927",
"i. c #516C2C",
"p. c #4C7324",
"a. c #4D7923",
"s. c #457228",
"d. c #4C732B",
"f. c #4D792C",
"g. c #527424",
"h. c #5A7322",
"j. c #547B24",
"k. c #5A7D24",
"l. c #53742C",
"z. c #59752B",
"x. c #547B2B",
"c. c #5A7D2C",
"v. c #436433",
"b. c #4A6533",
"n. c #476834",
"m. c #4C6C33",
"M. c #4C6B39",
"N. c #536D33",
"B. c #546A38",
"V. c #4D7333",
"C. c #4E7933",
"Z. c #4C7339",
"A. c #537433",
"S. c #5B7533",
"D. c #547B33",
"F. c #5B7C33",
"G. c #54743A",
"H. c #5B7439",
"J. c #557B3B",
"K. c #5B7C3A",
"L. c #61622D",
"P. c #637C2B",
"I. c #627D34",
"U. c #617B3B",
"Y. c #527240",
"T. c #597842",
"R. c #677D43",
"E. c #55821A",
"W. c #5A841D",
"Q. c #5E891D",
"!. c #638B1E",
"~. c #67931E",
"^. c #4D8020",
"/. c #558224",
"(. c #5B8324",
"). c #5C8A24",
"_. c #55832B",
"`. c #5B832C",
"'. c #5D8A2C",
"]. c #558233",
"[. c #5C8333",
"{. c #5E8934",
"}. c #5C823B",
"|. c #5A8739",
" X c #678826",
".X c #638C25",
"XX c #62852C",
"oX c #638B2C",
"OX c #6A8C2C",
"+X c #71892E",
"@X c #649226",
"#X c #6B9324",
"$X c #6B9826",
"%X c #65932C",
"&X c #6B932C",
"*X c #6D9A2C",
"=X c #73982C",
"-X c #739B2C",
";X c #628534",
":X c #6A8337",
">X c #648C33",
",X c #6B8D34",
"<X c #63843C",
"1X c #648B3B",
"2X c #6A8D3C",
"3X c #748D39",
"4X c #659133",
"5X c #6B9333",
"6X c #659830",
"7X c #6D9A34",
"8X c #65923C",
"9X c #6C943B",
"0X c #6C9A3C",
"qX c #729434",
"wX c #7A9536",
"eX c #739C34",
"rX c #799E34",
"tX c #72953B",
"yX c #749C3B",
"uX c #7A9C3C",
"iX c #75A22D",
"pX c #79A234",
"aX c #79A536",
"sX c #75A13C",
"dX c #7BA33C",
"fX c #5E8544",
"gX c #648443",
"hX c #648B43",
"jX c #6B8D43",
"kX c #688748",
"lX c #728C46",
"zX c #6B9343",
"xX c #6A9545",
"cX c #729443",
"vX c #749C43",
"bX c #7A9D44",
"nX c #76954A",
"mX c #739C4B",
"MX c #708D52",
"NX c #759B54",
"BX c #7BA342",
"VX c #7AA448",
"CX c #79A253",
"ZX c #839E35",
"AX c #82A523",
"SX c #84A93A",
"DX c #88B23C",
"FX c #83AD44",
"GX c #85A948",
"HX c #8AB349",
"JX c #94B74A",
"KX c #86AB52",
"LX c #8CB357",
"PX c #95B956",
"IX c #8EB366",
"UX c #A0C55D",
/* pixels */
"e.V q d.N * % % g 7X.XjXx.*.<Xj.1Xa.hXd.t.w.;.9.L X.' 9XpX(.OX9.n.G.) - j g.a.Q.Q.:.<X'.+.g.OXeXeXH b A.[.k.x.xXJXl.` H.y.' e.F.g.%.1Xd.f.<XA.F.0XxXJ.xX_ x b _ ",
"GXF.>X#.F P < : *.pXj.s.V V ^ z G.nX] 4 o 8 x.).&.$.:.qXQ.k.<.q.m.7.n.+ { g.:..X(.9.>X5Xx.z.XXP %.i.1 B.vX-X%.K.P.4 4.A.8X[.w.d.l.hXd.5 } A.zXD.C.8X'.`.^ 1 5.p.",
"R ;Xj.v 9.7X>.Y h c.q.q.7 3 e.x C nXj.F 9 ^ z.9.[.L x.oXI ] V.jX2Xz ^ e.+.w 8.cX.Xf V.mX{.'.a.H *.6.5.:XXXx.0 $   X # kXdX5XI.NX1XkX| W ( R.t.} M d.m ` kXhXc.p.",
"M f.E k :.BX|.(.:.>XyXq.g y lX[.$.(.$.$.:XH.w - e.V A.j.j.n.) } g.j.|.yXp.e.x `.1.p.S  .S } c 4 _ r.r.r.qXc.r 9 1     lXoX4.8.6.N.m.r 1 r _ J.V.NX4Xc.` a./.iXpX",
"v vX9XI U &.P h j.%XpX/.).,Xx.l.{.s.< c P F.%Xx.0.,.!.-.F $.&.+.q F.>X'./.e.t P H oXx.q K w 7.t.S.8X/.9.vX#XOXV x 9 O 8.f.I l.A.NX2Xl.9.;X'.1.m.m.c.7XW.iX).~.#X",
"eXc.9.{.eXeX(.q.XX-.^./.'.].P m q.Z % { 8.A.:.<X{ =.$XoXw q J z.O.l.XX>Xx.A.B.y.J .X/.9X%XH _ p.;Xj.[.vX[.p.Q.g.z.P.5.r r %.a., i d.B N i.<.d X 1 w..XE.Q.f.N G ",
"7XpX#XGX.X1.#XF.XXW.$.`.`.J.hXq.D.R b n ~ jX>X9X(.OXoXw.~ +.4.N.:.XX)..X;.hXD.L 8 8 L 4X.XE.E.j.g.W.z.l.=X*XE.D.F.3.5./ # = [ q q 9.k.W.k.E.x   = *.W.:.D.T.e.R ",
"k oXFXSX5X1.OXg.9XdX.XeX@X7Xe.0 9.l.%.T q.r.q.;XE.).<.l A.:. .9.-.Q.E.;Xq ] q c G , 9.>X XE.iX{.T !.*X%X6X|.H _..XN 2.5.@     - _.j.1.~.#Xj.0.8.0.+.0 o = q r 5.",
"g.-.%XXX;XpXSX X`.R A [.f J  .j.9.] ] P 9.y.n 1X9.*.-.U U G G R $.-.a.w.x q.5 & < S >X7XX.R #XE.|.{.p.&.L { {.>X9.g.c.B.` i.x ] t.c <.=X!.w.y.9.R h # 1 B.0.O.z.",
"uXE.7X;X%.1.,.=.3.J k x.D.< P I.6.y.`.f.D.V.lXvX9.N *.9.g < ' G g R A X.Z._ c _ ` P {.V.s > T -.J.v.i.gXY K c F.1XGX9X2XCXOX9X`.b.V <.~.y.J m.D.cXcXx.K A.B.c.9X",
"HXK :.>.yX=XXXs.*.: Y eXSXt.G 4.e.;X>.>.;.} B.S N x.R , 3 ^ R f a z m } kX5 { IXIXyXA.> z P R E.] 5.;X`.v t.D m.} 7.b.1.OX2XzX>X:.=.1.x.B & ^ ] mXvX5XO.U.NXm.A.",
"KXOX%X1.:.1.%X).Y c.`.yX3XP s.XXLX9Xa J t.>XT D E d.s.m M _ H h m 5 5 v.[.t.3 MXVXf.] V q._.g g s.F.] Z m.D.K.t.%.i.F.2XOX9X>Xf.;XpXa.z x 9.;.j.{.F.t.vX;XN.G.4.",
"FXj.`.#X=X`.'.yX{.HXdX,XqX%.a.pX=Xs., ( t.%XI q.f.fXt.c L ] q > XX>.> t a _ B.vX}.zXf.D.].[.A.c D G.} e.}.j.D.J z j.a.'.x.R q.*.<XA.{ J J l.`.9Xp.] 9.V.y.p.y.U.",
"@Xc.h I %X&X$.%.w.;.j.] g.&X7X1.<.R V K.`.*XA R }.A.b # = G.%. .:.9.t o X } hXBX4XBX;X&.D c d.J.L V.A.}.mX.X(.a.&.R F._.a.9.D.1.S.9 O . # J ,Xm.' i.L t.;.P r ;X",
"T x.w.N s.'.(.,XHXlXz p..X).XX*.(.T g.%XsX'.j.].s.#.g.x V vX'.J a o.n.n Q ` 4.y.8 l.G q q.V.Q M.J w.].hXZ.f.9.n.D.J kXC.] 4.A.x 6.7.^ ^ 5 4 ] N.` e.] t z x i.cX",
"R /.BXA.L <X%.p.'. XA _.G c.uX1.%.g. X#X1.T ;.c q B E l ;X9Xg s W Q t.6.~ q.} A.x >X1.P a.VXG.M.2 _ a.w.F.x.t.7.4 = y.,XU.9.kXB.9.%X8X .X.< ; w.d.x.g.*.P /.I.U.",
").:.%.x.: F d %.D %.Y x.4.f.z.-.v Z a.2XY g c J._.:.:.&.%.c 5 } J._ Z.D.lXBX2XKXFX).-.j.R `.U.A.A hX>X>XD.5 9.l.P r.w.x ] %.c.^ N Y R V.Z.: q V... .q =.a.} :Xc.",
"k /.R d w.aX*XoX.XoXyX9X; v XX,.z m k jX5XR p.E $.q.c.-.:.} + ' ].o.v.{ 6.w.:.D.mX;.T {.Y &.l.9XA.[.>X:.e.~  .9.t.c.0X`.>X/.:.v x q > e.e.t.E d.9XD.t.Y q.K.g.J ",
"g {.9.H `.sXaXHX@X@XPXeX3X3.%.k.+.3 < y.eX#X).U U V.w.H f e.| fXMXm _ T.{ 4.'.z.<X .9./.w.^ 9.].|.8X].x ) G.w.Z F.d.).@XoXS.q R j.m.[ } l.k.D.NX[.'.XX0 4 m.f.n.",
"d.s.f ;.VX5XeX&.%XQ.oXOXKX0.z.&Xz.Q & n d.;.-.].' Q z x Q [ fXV.Z._ ! A.U.n 4.J P N G.] _ b J C.R L b B 9.e.t.q.F.hXa.A v g.4.] M _ J ^ f.G D N.x.] V n.3 . - e.",
"w.k ,.1.*X9.T #.bX1.l %.l.>XbX1.F.9XK 9 3 z l q.S c c m Q ) T.v.5 ~ | }.XX%.A.9.4Xe.{ Z.w.w.x.d.B q M.kXmX<X;X(.e.v.p.V - L w.N y 3 ` q c E v N.^ 9 A.f.B O 2 3 ",
"D T >.,.:.#X#.$.JX5Xp. X(.] {.d.fXE.U 0 / x : ' X.k P S n.d.J W t } b.y %./.1X_.VXx.<Xt.:.I.9X|.{ e.J.m.D.]./.l q.a.;X@X`.c b 9.B @ Q p.G H %.kXy 9 A.d.H.w.G.r ",
"KXXX; , P.HXF.[.dX%X;X;.-.@XP v d.E w.zX<XM z ] |.q.q.C.f.j.1Xw.H.r.B ` A. .w.f.D.;X-.y.y kXN.6.r.}.CXD.Z k d 4.CXxX'.Q.~.a.J 9.q.' t 6.l.x.M V W 3 y P BX_.J ;X",
"7X5XN.z E.DXHXz.l l X.].I @XyXlXxXz M /.q.5 } C.G J.xXf.q. .NXb ` <.1.y 5.) ` D.D.l.8 y.g.5.3.CX;XV.fXvXZXk.:.y.4 J R T a F 4.xX/.hXC. .D.e.) z 3.z.XXs.t.D.P B ",
"(.c.tXP.G XX&Xg.l #.:.XX1.>X5XN.M.i.F.1X|.> b _ b M.D.t.S D K.r.0.H %.] K.N.<Xq.~ V ; ` q 9.|.P K V R.;XAXSX)._ ( 7.- - % %   [ X.f.X.J M.i v.[./.'.o.Q 2 r.d.M ",
"G , X V MX1X>Xx.2XBX&XBXOXy.&.3XR.2.+.U $.|.Z.o i R.9.}.zX[.s.;X8X_ 3 ] zX2XF.p.jXx.m.hX5 V.{ 6 ; = n (.@X.XE v kXD.6 O 4 S b 2 ^ { 4 X p t q.C 0 ; X = [ d. .o.",
"Y v ] x.4.M |.8X9Xf.).a.,X0XK 5X#X2.& 4 d v.o._ { y.N.T.xXJ.v K.Z.e X n x.m.B z O.S.D.x.9.d.z.] 4 2 B.'.E.$.< ] Z.J.].M 6 X.C.J.j.%.r O O t w.1   O # 1 m.a.a.{.",
"3X:.%X9X%.N ] c.P A x.d.] 7X,X>Xv N.%.9., $ 0 K.MXD.y.y.~ H.9.y e 3 3 G.jXr.4.6.3.;Xc.t.9.5X7X XH kXsX@.I k & } .. .8XU = e t W } $.eX;Xt Q e.3 + m D.S X.A x.8X",
"5Xw.>.-.4XK.x y.Y g : k a.,XE.%.F 3X X<.J 0.{ Q q b.H.1Xc.] K.;XC r T.D.lX2.r B.I.x y ~ w.x.:. .t y H s.J n ; B |.)...P M q 3 [ t M.c.[.gX} c e.R m t f.|.J } b ",
"{.t.G _.yXKXV k /.Y % * N :.k.p.a.%.s.U _ vXLXD.D q z.y.4.K.h.e.B.N.D./ O.8.lXA.V._ * u l.`.$.n e * r.F.0.rXk.y.%X%Xc., b C.M.7.t 4 q  .f.t.e.hX|.e.i Q v.o.[ o ",
"g $.4XFXSX XN %.l.9.w.q.V.9.l.R P 4.[.z q gXVX`.yXH tX,X+.KX=X$.B.CXc.] 0.+XuX:.H  .c.jXH x.P 0.g.;X7X .R <.E.`.R D g.] 8.~ W b z } ' z Y a.x.E.a.' 3 - i { n., ",
"(.tXoX).<X8 d Z >X5XoXp.bX].C.U * h }.V *.J x.:.XXq.2Xw.-.x.P.qX3Xl.,.jXx.I.`.h J 0.oXt.` c.D. XQ.eXVX%.> L W.].= X b 6.( 3 G.hXR M.! 6 ' R :.U c o.o.^ n r.e.9.",
"w.q.]._._ : h U j.k.P p.BX;Xy.1X{ 4.2X,XJX<.%.c.p.w.d.gXD _ H.l.eX`.9.gXy.I.O.C g.;X[.] t P n D d c 9.V i ] Y v./ $ z H g.f.~ N.' t.5 6 W 4 } t Q C.|._.a.%X{.' ",
"D A 9.F.jXbXXX/.(.=.y.j.y.z ; / 8.S.#X XZXh 5.r.o ^ e.R , # 1 n zXOX^ | u.F.6.4.9.t.<Xd.C K a.v o % = { xXp.c t.J.+ . D 1.;Xy 7.xX0X].J.o.' | M.b ( d._.T t.a.g ",
"= = g k.8X[.%.>.rX`.G ,.k.8 & , I.P.eXKX+X= r 2.9.l.N.y.- 1 = B ] r.5.MXl.>Xi.u.d.D.B.lX;XR a.:.4.r.} Z.].U 4 4 Q 4 e | c e.NXb.v.A.A. .Q b }.'.9.; e...' _ t.&.",
"nX- > c Z U 9.p.w.q.*.y.oXw.} <X(.2XCXqX<.v I./ I.l.` w.K I.w.[ = 9 N.9Xz.e.] <X*.g.P ,X%Xj.9X.X.X[.3 b.J , = O ) fXD.{ V o.}.jX .g w.s._ m.KX).`.f.a., W J.0XSX",
"SX$.q.: X.VXFXSX5X*. XjXZ %.d.`.Q..XLX7Xl R F.r.lXh.C c.;Xk.9XNXd J x.5X&XF.gXN.4.m.G.{ j.$.c.p.h P x 3 q n.v P hX].s.Z.t. .k q._.h t.q.H '.*X>.a.s.E A.m.X.a.Q.",
"qX9.2X} g /.L U tXSXg.h x d.[.XX!.=.9X;.L J j.u.F j.,X,XeX2Xm.A.w.XXoX1XF.5.U.4.A.;XxX6.7 0 ; 8 4 d./.N / 6.- 3 6 ! Y.}.d.R P f.V.P `.-XeXE.>.S J.| > ' '  .t.:.",
"MX8XvX9.* t.(.%.>XDXrX>X5X%Xu.G :.9.1.Z ] a.j x.k.`.+.*.#.c.q.D.zX*X/.%.y.w.;X2X[.E.R J M m.E Z t [ x.&X#Xu.O 9 i T.v.8.b.9 1 3 + t p..X*.-.S % y ; X 1 | 4 6  .",
"g U )./.x c yXl.g.~.=X,X*XdXyXt.X.xXXX(.j.OX&.9.2Xz # 3.b d l.a.` w.y.P 9.H / r.A.V * ^  .J S A./ 0 D (.tX/ 9 ) D.' 3 1 + | G.b.1 F R Z %.w.' m ~ O # X i a.d.L ",
"*XeXGX_.'.k.c.bXPXJXZXO.R ;XY d.xXF.yXj.0.r.0.1X>XP = W 6 ` /.l.U.5.H.c.x r 2.A.} 3 = 3 N n y kX_.f.9.^ ` v ) ; q q * @ # b.jXy.n.{.].A G S R R 0 e p.N 4 }.4X[.",
"/.1.tX9X,Xw.BX=X XF J c.9.v x y.D.).q.m.N.gX8.[.[.'.j.w.q ; D c.c.l.^ P , L zXzX%.x w V.y.{.H S _ M ; + b F.F.}.e.m.l.b # i r L }.}.x.q.h z z [ O t a._.y.fX|.|.",
"9.N D x.9X..VXBX:XK O.4.9.<X5X1.g.).x 5.e.N.D.%.9X>.%.Z r.D.v q.4.k.OXL A.`.y. .M y.%.g c } q # o # 3 3 n.e.{ p./.9.E k.` 0 # q s.] t 3 ; t O . . t fX8X9.] z _ ",
"/.9XF v j.{.BXBXoX(.F.y.tXzXf.x.yXOXx G.` y.}.C.f.>.j.;XVX .m.q.J 4.l *.d.q 1 K 5 | z J.f.L $   + 8.lXT.t ^ z ] I 9.s.a.c.` + f D.%.y.} [ o.| - Z J.fXt.G S.q % ",
"oXXXBXh.'.E.%X0X9X*.tX;Xp.F.K.e.z.g.:.oXx.y.c t.V.Z l x.8XmXvX{.T R v w.N.o V ;Xx.fX| v.N [.i.3.] q i p # } _ M.z V.8X$.).;Xb./ l.> ~ t ~ m.V.' q.xX[ 5 o.o.7.M ",
"^.*XFX=XdX(.eXoX%.0.GX0.o.>XOXS.lXe.k.%.y.fXg.l.yXw.,.P.4XVXD.m.d.[.q.R %.&.&X=X%.A.R.` D %.oX.X4XP y ^ 3 p m.e.y n Z.n : 0.2.P J + X X ) gXq.|.n.} & Q ^ J gXw.",
"-.E k.5X_.d < T *.h.OXp.XXpXP.P.lXi.D.M 3 <Xl.<X4X' H =X#X_.J.n 4.].f m %.#XQ.%.3 _ ) A -.%.V $.:.y.<X;.v / m.P ' n.t.>   r B 3 = - q M d.>Xx.x.v 5 e.fXn 4 ^ Q ",
"|.R @.qX0., % 8 N [.dXoXj.j.u.u.5./ 4.'.l ^ e V.D.b N.{.J ] J.fX8XT L }.(.!.-.s.Z z W 5 5 [ [ J J 9.9.K.K.gXhX_ ' Q M 6 3 B.nXy.] [.9.R x.d.R } - b 4XBXr.  O i ",
"A m G Y z.0.p.9X9.G OXXX+.%.h.x.B = { <Xl 4.G.R > ' m.R > fXD.V.CXq.}.q._.%X;.E U T 6.e 0 x z 6.n b.U.w.Z.gXjXF W T.Z.e.G.<XLXdX*.K.%XR d.X.> % 6 W p.pXG # / ~ ",
"9X9.;.'.9XGX'.FXJX:X, P ; V x.N z.vXcXe.z 9.K.K.%._ e.V.0 Z.A V.NXy y r.%.|.a._.d...s.C.d.q 3 #.<.5.2Xl.z q { R ` gXjXoX0XyX>X*XyXD.X.d.V.D.D ; Y.K.x.'.;.G.V.;.",
"t.;Xf j.j.%X(.eXeXk z A.lXA.OXP cXXXL F.,.!.vX7Xj.].R _ & * * 0 6   9 >X;Xx./.q.b } V.A n.| ~ ,.OXF 0 +   = b n.y.x 1 N e.K.x.XXpX&XP  .J - 8 x.a.a.a.U L Z.jXR ",
", e.] {.GX#Xk.R Y c g A F.bX*.OXpXO.I.P.OX-.E ).] }.8X` F P.wXr + [ ;XU z t.fX5 b 2 } G.N.;X` k.&X/...o + ( [ 3 } m.3 o - r.1X>.j.1.:.] Q . . n S S ..b 5 ` [ e ",
"1XzXVXLX:X; < Z X.`.c.r.S.tXg.P.u.V D.q.' Z ).#XqXbXtX5XUXUXyXXXx.mXA.] 7.[ X.L o.3 ~ m.q 9.` W.-.D.S 3 3 7.| O r A.<Xe X b q N f f R e t b r 4 > } Q b s.d.4 W ",
"_.4Xd.c :.z.F.v z X.'.yX2X&X.XOXi.wXk.Z M zX9XL P.c.9.y.GXKX9Xx.f.d.9.V R.kXM.Q n.l.j.D q q O.=.D b M b e.4XJ r ` J.M.=   t q * f e.L 6 ' s.x.] 5 Q - W W 6  .jX",
"a A A t.vXLXyX2Xr.P (.d.v 8 p.y.2.O.H /.[.FXSXS.&X*.K.BX=XrXk.5.q.1XHXXX5X|.[ 5 M *.k P k.D wX;X; & V.G.K.q.q x.0X1X` b N y } } ;  .o.R f._.{.b 5 _ t & o 4 _ t.",
"s.A U C.0XeX#.v c.2XyXV f f ] O.3.XX`.l.BXJX$XGX&X.XFXSXW.-.H XXO.t.%Xx.z.|.NX9.P L P [.9X;X,X&Xw.J sX&X9X .<XvXJ.A v $.E A.K 1 O z.M q ' 5X@X$.X.d.].V.` } J.| ",
"CXgXo...z.j.;.w - L %.i.H %.XXSXSXFXK i. Xz.l P.'.a.vX5Xj.j.k.pX;Xi.4Xi.;XVXV.q.zXf.V.g.1.=.P.j *.XX~./.p.NXIXG.' o.%.P.` }.p.- + } m.b 9.OX<.Y f R L x.kX[ r 6 ",
"v M J.P v c R I.6.B & B r.v 2XHXSXeXx  X=.nX+.1X1XFXDXpXOXFXSXPXpXc.>X$XBXnXT.V.gX{._ 8 w.*.:X0.bX#X$.v D }.xX] 9.m 9.J.t 4 c C.! ) y.fXgX(.@.T.G.T <.:.! O e o ",
"9.b q.p.f - N d.bXnX# o - 1 z rXpX3.j wXOXr.HXDX-XOXeX5X[.H nXFX=XrXsX%XGX0 y.vXd.D x 3.tXSXOXx.0.,.L F d v 4.` 4.M.t.f.V.s Q _ M.t.g ..e.j.l n d.-.U `.f.Z S d ",
"XXF.BXqXK.= 1 V F.(.O.z } N F &X&X=.k.=XOXP.3X:X,X9XyXc.}.7 y.0Xj.qXyXp.V 4.>X<XN 5.h.qX:.1.h.y.c q 6 D.p. .N.U.y = q <X[.E R R d.X.R X.Q H G w.k.;.>.=X$XW.:.:.",
"e.MXz.9XuX3.+ b j.`.x.$.0XBXq.H =.+XZX=X X~.OX8 P oXw.F.d.w.rX%Xd.;X7XH b.IXJXHXGX9XbXBX9.D r.GXXXo.= , F ] F !.;Xq.b.e 6 &.*.].V ) D.x.hX] M C.q.s  .v ' +.,Xt.",
"t.gX] ;X/.cXV n z S J.vXoXdX&Xc.j h.!.h.SXDXDXQ.l.oXoX>Xz.%XaX%X'._.E q.^ e.kXyXyXF.3XuXVX` 9 r C b.v 0 = B ,X*.N *.(.O.[ e.m.J N r.tX'.|.x.c W _ | e   O N k.R ",
"' 9XhX[.uXJXtX` > M q.tXH k.SXSX=XrXqXu.+Xk.BXQ.j.5XoXFX7XaXt.: l.oXY a.G.j.;X8X`.w.|.{.l.W gXr.uXGXy.lXh.k.&X}.3 9 #.W.].o.m b < l.5X_.Z.m % 6 ] n.3   # } D.G ",
", e [ P %.uXdXG &.nXg.0X0X*.!.FXSX.X=X(.uX,Xk.$.E.5X).VXFXHX<Xr w :Xg./.eX;.x.4X&X9X,X9.- y.;XGXrXk.jXnX9X,.%.b e b.L  X).e.! q ^ kX9.Z V.v 4 & > 5 - X 6 [ } & ",
"/ i 2 - - G (.z.9XaX:.>X,XD l <.*XOX=.C 5X(.w.x.$.t.9._.g.yX%X.X,XqX(.-.FXuXOXVX%XgX` ; N d.d.;X<.d * 0 C - t n M F.C.9.:.:.P E a.` + = c _ M z [ v.U g k f.o.6 ",
"K.q ..o.z D ;XdX.Xg.D  .k.c.P %.9.k.3X=X#X#.K.p.J < x.;X0X*.l.E.7X(.j.j.D.(.c.l.T z.<XF.:.] ] H ,.9.i m.C.z 0.z W }.f.' P *.$.Y v ] b Q M o > ] } o.v q.Y ].s.s.",
"xXj.7XFXc. .5X&X,.D  .A._.yXdXyXoX:.3XqXeXHXPX3.z.9XV.0.BXx.M t.4XpXwXu.q x.[.p.z y.8X0X%X7X:.$.q.hXkX9.] e.0 4 [ [.l.S.N V e.mX[.q._ L A > 5 P S  .M 4 & M A o.",
"} j.5XVXPX&X[.OX0.`.D.[._.E.;X7X@Xg.,.,.SXSXu.O.1..XJ.[.8X;XxXV.R >X0.L.0 *.yXvX5XFX*Xl.q.9X/.&.e.4.9XD.q ;X<XG.v.L ] | 0 , y m.vXV i ~ b 5 i # 4 _ n.' 2 5 ' Y.",
"_ p.z.%.@XeXqXc.k.l.7X9X;X] 9.x.<X;X X#X(.qX=XJX).p.d.sX%XZ  .f.t.D.f x K.1.E.|.BX-X(.p.'.s.q.:., 1 B Y.e *.A.B.].K.' _ W { M ; e = Q y   y T.M.6 & A ^.C.= & v.",
"vXGXLX1.:.'.O.g.l.L X.x.4.f H g.c %.;XbXj.XX`.nX;XmX0Xa.$.D.vXaXsXR f :.5X1X4XBX[.R d.X.9X7X(.:.< ~ | _ C S.P y D.hX}.kXt.}.A./ / r.A.t.q K.T.m.} q R gXM.< > 6 ",
"yXKXD.c D a.9XyXc.D D.9.P x v `.l K gX&X:.KXnX/ 3 M A.D.d.D.].%.>Xa.2XHX&XHXhXA.D.< v o.`.$X!./.r.` Z.f i.,X XcXS.9.T.M.q.jXNX4.nXKXVXD.<XF.hXX.y.<XD.V.} % O 2 ",
"R J ;.R l.F.d.p.>XR g Z '.a.l.i.F.<.wXpX*X%X<Xy.` 9XtXhX0X>.dXdX1X7X7XeX>.XXxXm.L y.9.V.vX`.!.,.x M.l.+.zX%.7 K c.a.M m b m.:XbXjXB 5.C cXD.cXBXnX3X{.;X~ q b = ",
"xXm q.dXiXqX,X>Xl.n > p.eXaXOXw.7XqX=Xw..X#.2X5X%X).l.oX`.p.BXdXt.z.pX&Xa.m.1X4XX.l.n 5 ` N -.a.q K %.h w.z.r.r ; g.g.l.9.<XGXyXjXV ^ I.;Xv d u.S.F.y.$.H l.x.x ",
"X.1Xp.1.,.%.0.[.$.<Xf.d.j..Xk.&X%XtX1.H #X0.2XbX2Xc.pXrXoXf.XXj.pX0.P L l.%.D.V.xX_ o.] q.zXs.8X1X9Xl.j.vX9X:X` 3.g.g.eXaX4Xc.P.l.>XyXl.l.,XP B e.d.l.&.X.A.l.l.",
"a VXXXv b P P ' J G _.,XOX!.=X5XKXXXk.rX X<Xl.*.w.D.eX5XdXdXT g.[.x.D.` M ,X5X9.V.Q F.0XxX .%.w.]  .Z p.d.}. .] P.eXdX(.[.x.B 4. X(.v O.2XvXq.F.k.0.B.} z c.eXSX",
"]  .q.q 5 5 P *.w.V +.,X,X1.g.z O.P.OX&X+.G.w.%.4Xs.F.1XKXoX,X_.L 4.r.V.}.q.d.z 5.gXVX0X|.X.7 x 3 > ].hXt.v.d.`.sXyXg.c D._.i.gXcXg.w.qX/.PXXX1XFXiX3Xz.N m.(.-X",
"4XJ s.G > % F.uX:.i.d.x.Y ;.N C u.wX+X*.h . / qXaX>XdX,XGX*Xw.5X&.p.bXIXUXtXV 3.u.:XhX} m vX*.q f c fXv.Y.v./ dXyXK.V.c 9.F.1X2X`.;XXXzX`.(.%.c.BX=Xj.c.;X;Xk.rX",
"a J._.Q.4Xy.G XXdXq.;XP.d H W.SXSXSX,.l I O.tXrX).#XP.O.OXp.VXuX,X5Xc.nXOXy.c.O.XX,.vX;XJ.JX@Xg.%.fXMX' G.<X(.A M 6.9XvX<X[.9.g.j.>Xw.y.x.9X{.`.T.A.p.;X$.q.N.,X",
"> }.a.@XFXi.>Xg.eXwXeXuXD 9.#.,.uXg.D D &XOXtX=X$XeXr.K k.j.vXvXeXiX%Xp.F.M 2.` K g. X'.V.[.OXXX1X<XK.g.VXvX^.m.} NXBXOX+.w uXk.yXW.*.k.c.t.mX@X,X;XF.jX9X[.F.4.",
"o S l 6XqX1Xw.l.(. X1.:.j f V r u.XXXX,.pX*.-X$X'.g.u.tXoXp.[.x._.%X%XiXj.4.= 0.F.^ h L M 7 $.9XK.` BX;XZ.xX/.VX{.9Xq.x C +.OX5.x.y 4.k.`.CX8X{.k.$X(.3.y.G.K ` "
};
