/* XPM */
static char *fbf57d57dce74e5a80401a84eea4cf78mMIfPVjw2OEBaIj2[] = {
/* columns rows colors chars-per-pixel */
"64 64 243 2 ",
"   c #160809",
".  c #14130D",
"X  c #171516",
"o  c #140C0F",
"O  c #251715",
"+  c #260E15",
"@  c #1C1B24",
"#  c #1B1D2B",
"$  c #191824",
"%  c #251826",
"&  c #1E212D",
"*  c #1D2433",
"=  c #232229",
"-  c #232835",
";  c #29333C",
":  c #5E330F",
">  c #663B0C",
",  c #693A13",
"<  c #723A17",
"1  c #673111",
"2  c #6C0526",
"3  c #750929",
"4  c #750A35",
"5  c #5F0422",
"6  c #714717",
"7  c #273644",
"8  c #313948",
"9  c #7C2458",
"0  c #314B58",
"q  c #39724C",
"w  c #396668",
"e  c #457C5C",
"r  c #4C7C68",
"t  c #BF3714",
"y  c #8D003D",
"u  c #87053A",
"i  c #96063D",
"p  c #8C1838",
"a  c #A9193E",
"s  c #C43C15",
"d  c #975912",
"f  c #8E5311",
"g  c #BA590B",
"h  c #B95217",
"j  c #99621B",
"k  c #BC6716",
"l  c #B96F18",
"z  c #B16D23",
"x  c #A95C2F",
"c  c #C64919",
"v  c #C45511",
"b  c #EB4816",
"n  c #EF5519",
"m  c #C26718",
"M  c #C47D18",
"N  c #C2660F",
"B  c #FD7401",
"V  c #FD7A02",
"C  c #FA7C0B",
"Z  c #F67214",
"A  c #C94E24",
"S  c #FB4B3D",
"D  c #FB533E",
"F  c #F05826",
"G  c #C36E23",
"H  c #ED6628",
"J  c #EC6F32",
"K  c #880943",
"L  c #950442",
"P  c #9A0444",
"I  c #9C0548",
"U  c #891244",
"Y  c #95164B",
"T  c #A3044A",
"R  c #A80848",
"E  c #B1094B",
"W  c #B00843",
"Q  c #AA1C45",
"!  c #B21B43",
"~  c #BC1B4C",
"^  c #B81A4C",
"/  c #B51851",
"(  c #B6244D",
")  c #913874",
"_  c #C61C52",
"`  c #C7164C",
"'  c #D1244F",
"]  c #CA2153",
"[  c #D42252",
"{  c #D92454",
"}  c #E93C4A",
"|  c #F13F4B",
" . c #EC3851",
".. c #F33D51",
"X. c #F93F51",
"o. c #E52C4F",
"O. c #92417A",
"+. c #B24F6B",
"@. c #CD5C4A",
"#. c #EC4147",
"$. c #FD4545",
"%. c #FC4C44",
"&. c #F4414D",
"*. c #FE434D",
"=. c #FD4B49",
"-. c #F44A45",
";. c #FA5343",
":. c #FE4251",
">. c #F84752",
",. c #CD6653",
"<. c #D2735A",
"1. c #CE6C4E",
"2. c #4E9171",
"3. c #4B8A58",
"4. c #3C856C",
"5. c #BC863A",
"6. c #C6841A",
"7. c #FA830C",
"8. c #FB890A",
"9. c #FA8512",
"0. c #F98A18",
"q. c #F99219",
"w. c #F09010",
"e. c #FBB60A",
"r. c #FAA916",
"t. c #FAB817",
"y. c #F9AA0B",
"u. c #D68C3C",
"i. c #CB8C30",
"p. c #F79326",
"a. c #F4922E",
"s. c #F1B234",
"d. c #FBC517",
"f. c #FBC50B",
"g. c #F3C935",
"h. c #F7CC2D",
"j. c #C48E42",
"k. c #D68A44",
"l. c #CA9245",
"z. c #DA9846",
"x. c #DA875C",
"c. c #DDAB54",
"v. c #EBA947",
"b. c #EFB24F",
"n. c #E59C71",
"m. c #E6AC66",
"M. c #F3AE68",
"N. c #E8B466",
"B. c #F4B76C",
"V. c #F8BB72",
"C. c #EAB875",
"Z. c #DBA162",
"A. c #F8D746",
"S. c #FDE748",
"D. c #FCEA58",
"F. c #FDF05F",
"G. c #E6C766",
"H. c #EBD276",
"J. c #FCE965",
"K. c #FDF269",
"L. c #6D5F9B",
"P. c #3E7188",
"I. c #8C4983",
"U. c #84669C",
"Y. c #519BAA",
"T. c #50A49E",
"R. c #5686CE",
"E. c #5887CE",
"W. c #5788CD",
"Q. c #5989CE",
"!. c #5385C6",
"~. c #5C91CE",
"^. c #5C8DD1",
"/. c #5E92D3",
"(. c #6294D4",
"). c #6699D6",
"_. c #6B9CD6",
"`. c #6C9DD8",
"'. c #6598D9",
"]. c #739CD6",
"[. c #6694CE",
"{. c #6EA1D9",
"}. c #6DA2D3",
"|. c #72A3DA",
" X c #76A7DB",
".X c #76AFD4",
"XX c #76ABE4",
"oX c #79AEE6",
"OX c #79AEE7",
"+X c #7CB2E6",
"@X c #7CB2E9",
"#X c #7AB5E7",
"$X c #E8CA85",
"%X c #EDD494",
"&X c #F2D691",
"*X c #F9E69A",
"=X c #FBF19E",
"-X c #FAEBA3",
";X c #F9E9A7",
":X c #FBF4A9",
">X c #FCF7B4",
",X c #FBEFB5",
"<X c #DBC380",
"1X c #83B0DD",
"2X c #81B7EA",
"3X c #83BAEC",
"4X c #8ABEEB",
"5X c #84B7E5",
"6X c #8BBDEE",
"7X c #8CC3EE",
"8X c #87C2E8",
"9X c #92C5EC",
"0X c #95CBEC",
"qX c #9ACEEE",
"wX c #97C9E3",
"eX c #9CD2EE",
"rX c #9FD8EE",
"tX c #8DC4F1",
"yX c #97CDF0",
"uX c #9CD3F2",
"iX c #9FD8F4",
"pX c #A3D5F1",
"aX c #AAD6F1",
"sX c #A4DBF5",
"dX c #ABDCF5",
"fX c #A5DDF9",
"gX c #B2DDF5",
"hX c #B5D8F2",
"jX c #AAD3EC",
"kX c #ABE2F6",
"lX c #ACE5F8",
"zX c #B4E3F6",
"xX c #BBE4F6",
"cX c #B7E6F8",
"vX c #92C1CB",
"bX c #FEFEC4",
"nX c #C5DCF2",
"mX c #C7D9EF",
"MX c #C9E6F8",
"NX c #D3EBF9",
"BX c #DAEBF9",
"VX c #D5E6F6",
"CX c #E2ECFA",
/* pixels */
"kXlX9X).XX@X2X3X3X3X@X7XfXBXCXpX'.E.E.E.E.E.R.R.R.R.^.R.R.(.aXNXzXkX9X).XX2X@X2X2X2X2X7XaXBXBXpX).E.E.E.R.R.R.E.E.E.^.^.E.(.aXBX",
"kX0X}.Q.(.OX3X@X@X@X@X@X3XxXVX6XXX(.^.R.E.E.R.E.R.R.R.E.^.).eXzXkX0X`.R.).oX3X2X+X+X2X@X4XxXVX6XXX(.^.E.R.^.R.R.R.E.R.E.E.`.uXzX",
"eX{.R.R.R.(.OXOX/.^./.^.).qXpX`.XX@XXX'.^.^.^.^././.^.'.oX@X4XfXuX_.R.R.R./.@XOX).^.(.^.).qXpX`.XX@XXX(.^.^././.^./.^.(.OX@X4XfX",
"uX).R.W.R.(.XX(.R.R.R.R.E.`.9X`./.OX2X@XOX@X@X@X@X@X@XOX+XXX_.0XeX).R.R.R.).XX).^.R.R.R.R.{.9X`./.OX2X@XOXOX@X@X@X@X@X@XOXXX{.9X",
"eX).R.R.^.XX@X(.R.R.Q.R.R.^.3X0X].(.XX2X2X2X3X+X@X@X@X@X'.^.W.{.0X'.E.W.^.OX@X(.E.E.E.E.R.^.4X0X].(.oX2X3X@X@X@X@X@X+X@X'.^.^.(.",
"uX_.R.R./.#X2XOX).^.W.R.R.Q.2XxXmX].'.@X3X3XoX(.^.^.(.XXOX(.R.).9X'.R.W./.@X3XXX(.^.R.R.R.^.5XgXnX].(.@X3X3XOX(.^.^.(.XXOX/.R.R.",
"iX+X/.(.oX2X2X@X+XXX(.^.^.).4XMXVXyX3X3X2XoX).R.R.R.R.(.oXXX^.{.yX@X/.(.OX@X@X@X@XXX).^.^.).7XMXVXqX3X3X@XXX/.R.R.R.R.).oXXX^.(.",
"sX7X@X@X2XOX(.).oXOXXXXXoX4XpXaX9XtXuXuX4X|.(.Q.E.^.R.R./.XX{.yXsX7X@X@X@XXX(./.oXoXXXXXoX3XuXdX6XtXpXuXtX{.(.R.R.R.E.R.(.XX X9X",
"iX6X2X3XoX(.R.R.^.^.^.).2XsXuX2X@X2X7X7XyXuX0X_.R.R.R.R.).4XjXzXiX3X3X2XXX(.R.R.^.^.(.(.3XsXqX3X@X2X4X7XqXuX0X).R.W.R.Q.).4XpXxX",
"7X2X2XoX(.^.R.R.R.R.E.).4XyX`.(.@X2X@XOX{.yXlXqX|.[.(.{.0XgXBXMXyX@X@XOX/.W.Q.W.W.R.E.).4XqX_.).2X3X2XXX|.qXlXqX].).(.{.0XdXBXBX",
"iX7X+X(.R.R.R.R.R.R._.0XuX+X^.^.XX2X@X(.W._.0XzXmXhXuXuXiXkXMXxXpX7X#X).W.R.R.R.R.R._.0XeX+X^.Q.OX3X@X(.R._.qXzXnXhXuXeXsXkXMXMX",
"lXiX3X).(.).).).)._.qXdX4X(.R.R.(.@X+X(.W.W._.qXBXNXdX7X2X2X4XeXkXsX3X'.(.[.(.).(.{.qXdX3X).Q.Q.).@X+X(.R.W._.eXBXNXsX7X2X5X4X0X",
"uXfXdXaXaXjXpXpXuXuXxXVX4X^.R.W./.#X3X@X).Q.R._.aXdX7XXX/././.|.uXkXkXdXaXaXrXaXpXsXMXMX5XQ.W.Q.(.@X3XOX/.W.R._.pXdX6XXX(.^.^.).",
"|.0XzXNXCXBXxXNXcXcXBXMX5XQ.Q./.XX#X#X@X|.~.Q._.0X8X|.~.!.R.R.R.).9XkXMXVXNXcXMXkXdXMXmX5X~.Q.~.XX+X+X#XXX'.^.{.uX7XXX(.R.R.R.R.",
"R._.0XxXBXBXzXpXpXeXwX; & & & * * - * * * & & - - & & # # # # # & * ; ; 0 0 0 0 0 0 - = @ X $ @ X @ @ @ * |.4XeXiX@X(.E.R.R.R.R.",
"W.R._.uXxXNXpX}.Q.7 % u y y y y y y y y y y y y y y y K y y K L y y y y y y y i y K y y y y y y y y y u o 1XNXzXtXoX^.^.R.^.R.R.",
"R.E.).3XfXdX3X~.* 4 4 K T E E E E E E E E E E E E E E E E E E E R E E E E E E E E E E R E E E E E E E L + .XjXhX9XoX(.Q.E.R.R.Q.",
"R.(.+X7XuX4X3X X$ i / 9 U  .X.&.X.X...:.X.X.:...X.X.&.X.X.&.$.&.X.X.X.X.X.X.X.X.X...:.:.X.&.:.&.&.:. .3 u O X .X3X5X/.R.E.E.W.Q.",
").+XsXuX7X2X3X#X# y _ I U &.:.:.:.*.*.:.:.*.*.*.*.:.:.:.:.=.Z %.:.:.:.:.*.*.*.*.*.*.*.:.:.:.:.:.:.:.&.2 T ` a =  X2X(.R.R.R.R.E.",
"4XpXfX4X@X@X@XXX% i _ I U | :.:.:.:.:.*.$.:.:.:.:.*.:.:.:.%.7.=.:.:.:.$.:.:.:.:.:.:.:.*.:.:.:.*.:.:.} 2 i E ( X  X6XXX(.^.^.Q.^.",
"zXNXhX).^.^.Q.0 K T _ U R X.:.:.:.:.:.$.Z ;.*.*.:.*.:.:.*.9.e.D X.:.%.Z =.X.:.:.*.:.:.X.:.&.:.:.:.&.3 L T R a O +X3X2X@X@XoX{.+X",
"cXCXnX|.R.R.!.7 L E / p Z ;.$.*.:.:.:.$.9.y.0.%.:.:.*.:.$.8.S.q.*.%.9.e.%.X.*.:.:.X.=.=.:.:.:.:.:.&.2 P R / O 2.+XOXOX@X@X7XpXfX",
"dXNXcXyX'.W.!.7 L T ( p 7.e.q.;.=.$.*.:.=.t.S.t.D $.*.X.=.e.S.q.S 0.S.e.%.X.:.:.=.;.q.y.%.:.:.*.:.} 2 I E Q X T.(.^.^.).oX9XMXdX",
"7XeXiXlXyX'.!.* L E ~ U #.8.A.D.t.9.S *.S 8.S.S.t.7.D *.D t.S.e.8.d.S.8.$.$.=.D 7.t.g.9.*.:.:.:.} 3 L T ^ O 3.).R.R.R.R.).qXpX7X",
"+X)._.qXkXqX_.* L _ R U ..=.t.S.F.D.t.q.0.q.d.D.D.d.e.8.w.D.F.d.f.S.f.7.;.p.t.t.S.D.p.;.=.:.:.:.} 2 I R ~ X 2.R.R.^.Q.R.{.0X XXX",
"OX).E.`.qXkXwX% L ] U R :.=.7.d.:X>X=X=X=X-X:X>X>X:XD.f.t.=X:X:X>X>XD.d.*X-X=X:XJ.:X-X;Xt.=.:.:.} 2 T _ i = ).^.R.R.R._.eX9X(.Q.",
"2XoX(.R.].0Xw K R _ U ..:.:.%.t.-XJ 9.0.0.0.p.;XbXbX>X-XH 7.p.>XbXbX>X*Xp.0.s.*Xq.7.v.*X0.$.:...3 P R ~ + vXuX].(.(.|.qXqX).W.Q.",
"6X2X^.!.(.7X7 P R ~ Y &.:.:.=.t.-XF B B B B V 0.>XbXbX,XF B C *X>X>X>Xp.B C *X9.B 0.H.0.$.:.:.&.2 T ] i - rXfXyXuXuXgXnX1X(.Q.[.",
"2XOX^.R.|.0X8 i R _ Y &.*.:.=.t.-XH B C 7.C B 7.>X>X>X-XF B V 0.&Xp.*X7.B p.-XC C =Xs.S :.>.:.#.2 R ~ O  X5X5X7XsXdXMXgXuX0X|. X",
"tX2X_._.eXhX; P _ I U &.:.X.;.t.*XH B 7.*XJ B 0.*X0.7.7.B V V V 7.V 7.V C &XH B 0.=Xq.%.:.:.&.3 L R ^ X Q.^./.XX2X4X4XtXpXfXuX7X",
"iXpXuXpXzXhX= i ] U R &.=.%.9.d.-XH B 7.*XH B V H B B V C n B V B V V V 0.-XJ Z =XJ.d.r.;.:.&.2 I ] L # !.E.E.^.(.XXOXOX@X8XsXfX",
"yXfXlXsXuX}.+ i ] U  .%.r.r.A.D.;XH B V 7.7.9.n B C V 0.*XH V V H C V C -X,X;X:XF.S.S.f.q.=.} 3 I ( # L.^.^.E.E.^.^.(.(.^._.pXxX",
"fXkX0X XOX8 y E ~ U ..*.=.;.9.h.-XH B V 0.*X&XH 9.*X9.9.,XH B q.&XH B 0.*XJ a.*Xt.e.0.%.=.&.3 P _ y - E.E.E.^.E.^.E.E.^.E.(.aXBX",
"kXqX_.R./.- P _ I U | :.X.X.S t.*XH B C ;X,XJ B 9.*X9.9.;XJ H ,X>XH J ;XJ a.*Xp.S *.*.:.:.} 2 T ^ X R.^.E.E.E.E.E.E.E.E.E._.uXzX",
"pX{.R.R.R.# i _ U R X.:.*.X.$.0.*XH B C >X,XH B V C C q.;X;X:X>X>X:X-X:X:X:X=X9.$.:.:.:.&.3 K T u - {.(.^.^.^.(.[.^.^.(.XX@X3XsX",
"rX).R.E.R.$ P _ U  .:.:.:.:.*.0.;XJ C p.:XK.&XJ H F J *Xd.d.D.D.d.d.d.d.F.J.d.8.=.:.:.:...2 I i % }.3X#XOXOX2X@X5XOXOXOX@XXX|.9X",
"eX).R.R.R.# P _ U &.:.&.:.:.$.0.-X:X;X:X:Xh.F.:X;X;X-XJ.e.e.f.S.e.8.8.e.f.S.S.t.=.:.*.:.} 2 T i X /.XX2X2X6X3X@X@X@X@X@X_.^.^.^.",
"rX_.R.R.^.- L R U &.:.:.:.X.*.8.h.D.J.t.w.t.S.K.F.J.a.;.;.7.f.S.8.S $.;.7.t.S.e.D :.:.| 3 L R y 8 ].'.@X3X3X@X(.^.^.(.XXXX(.E.R.",
"sX+X(./.0 U T L U ..:.:.*.X.D t.h.e.9.%.&.D d.A.t.D X.X.:.%.q.h.0.$.:.:.$.S 9.e.8.=.X.} 2 T i + mXpX5X4X2XXX/.R.R.R.R.(.OXXX^.(.",
"sX7X@XXX0 L T K R &.:.:.*.%.r.e.q.%.*.:.#.Z A.w.S | | #.#.#.7.r.=.:.:.:.:.*.S 7.y.%. .3 P R i = 1X9XeXuX6X{.(.R.R.R.R.R.).XX|.9X",
"iX3X2X#XP.Y I U  .:.:.:.=.Z ;.=.=.&.&.#., 6 6 > 1 > > 6 : > > p R #.#.&.*.*.:.%.C =. .5 P P   2.3X@X6X7X0XpXqX).R.R.R.R.).4XpXzX",
"7X3X3XXX).9 Y U &.:.:.&.:.=.| | } < 1 , 5.l.m.c.m.m.m.m.m.N.j.> : > > , } &.#.| *.:.I     4 o 2.#X3X@XXX|.qXkXqX].).(.{.0XdXBXBX",
"iX7X+X(.E.L.9 K I R E R E i < 6 6 m.m.m.N.u.z.c.c.c.c.z.z.z.N.N.m.m.j.i.6 < < < i T T u     3.Q.OX@X@X(.R._.qXgXnXaXuXuXsXgXMXMX",
"lXsX4X).[.^.Y P K I T T K , l.$XH.B.z.z.N g u.v.$X%XG.G.j.g 6.r.Z k.u.z.N.N.N.l.6 : p T i + 3.!.'.@X@X(.R.R.`.eXBXNXdX7X#X5X4XeX",
"pXkXfXpXjXjXT ` T U I K < N.V.V.V.u.m $Xn n N.N k 1.%XG.6.M g.h.k g g v.v.z.z.M.N.u.6 : i u + 2.'.@X@XOX(.E.R.].dXaX7XXX).(.(.(.",
"{.0XcXBXCXVX) T _ T 4 , m.V.z.u.N u.v.G.A F 1.1.@.G H.i.g.g.y.M @.,.1.N.%XG.v.m u.N.N.j., 1 4 O 2.tX3X@XoX).^.`.uX7XXX).Q.Q.E.!.",
"R._.qXxXBXCXhX) T _ L , H.V.z.N n n c u.v.b.m ,.l c.H.c.M l M s.m @.z $Xn.<.k s.l g z.B.N.j., 4 O 2.#X@XOX@X4XuXiX2X(.R.E.E.E.E.",
"Q.R._.qXxXBXaX].) R ~ Q n.V.z.a.c s b F A x.b.&XH.5.l <.1.@.N b.b.v.b A ,.@.g G.C.c b m z.B.m.< 3 O T./.^.4XMXgXtXOX^.R.R.E.R.R.",
"R.R.(.4XfXdX4X(.^.L.R _ ( <.z.m G.$XA @.@.<.b.b.i.h.M x.v g u.G.H.s.c b s h z.b.A b A C.l u.B.l.< 4 O T.}.9XjXhX6X5X(.E.R.E.E.R.",
"R.(.oX8XuX7X@X@XOX5XU.R / Q m.z.G.H.G.z <.n.b.N s.e.N N.n s v.G.H.6.y.c h b.&XG.b.z.v.A.G.k u.V.j.1 y   T.{._.5X2XoX^.E.E.E.E.R.",
").+XpXuX7X3X3X3X6X2X2XI.T ~ ^ m.z.G.%X&X$XG.B.<.<.1.G $XA H c.6.G g.h.l m.H.%Xn.<.,.l H.$Xu.m B.N.: i y O 2.^./.OX@X(.E.R.R.R.R.",
"4XpXdX8XOXoX@XoXoX2X2X2XI.R ~ / m.z.m F F s c v.b.%X%X&XH.G.5.g.g.6.l t h N.G.G ,.@.6 $Xi.g.g.6.c.d : R u = w /.2X2XoX^.^.^.W.^.",
"zXNXhX).^.(.(.(.^.).XX4X2XO.T ` ( m.M.s s b b n c G.n.<.G n.$Xi.l y.h b s ,.<.<.j 6 G.%X$X6.t.g.i.c.: i E u X r #X3X2X@X@XXX'.#X",
"xXBXmX|.R.Q.Q.R.R.R.(.XX@X2XI.T ` ( k.l.J A s 6 i.m @.,.@.k $XN.c.v b c ,.,.@.G <X<X%X%Xb.z.z.l l l.: P T T u X e XX@X@X@XtXpXfX",
"gXNXxXqX].Q.Q.E.R.!.R.Q.(.@X3XI.W  .! u.z.N.B.V.B.j h h 6 u.g l $Xk t c.$Xk g i.b.m j l.z.V.B.j d 5.: K I I I 4 . Y./.(.XX9XxXzX",
"7XeXpXkXqX_.Q.Q.(.).(.(.).3XsXhXO.W { ( 1.z.z.B.V.M.B.M.m.M.k.k.k.h d j d d d j z.k.N.C.B.z.M.j f , p u U U U I o 4.Q.R.).yXpXtX",
"@X)._.yXkXqX_.`.9XpXeX0XyXuXuXkXmXO.W  .{ | &.>.>.>.>.:.>.>.>.>.*.&.#.| | #.| | &.*.>.>.>.&.>.#.&.}  .|  ... .(   q W.E.{.0X XXX",
"@X(.R._.yXdXuXyXsXsXtX3X4X+X{.5XtX5X) ` E { { { { { [ ' ' ' ' [ [ [ { { { { { { { ' [ { [ { [ ' ' { ' { { { { Y o q R.`.qX0X(.Q.",
"@XOX^.R.{.eXtX7X3X4X2XXX(.^.^.OXOX(. X+.i a ! Q ! ! ^ [ [ ' ] L y i Q ! ! a ! ! ! ! ! ! ! ! ! ' [ [ ] ^ Q ! Q 4 . T.`.qX0X_.R.R.",
"3X@X^.!.).0XtX@X@X@XoX).R.R.(.XX(.].yXrX8 % = % = & O Q ( ^ i X @ @ @ $ X = = @ & @ @ $ $ @ % Q ~ ! u . . X X $ e yXdXxX1X(.Q.Q.",
"#X@X^.R.`.pXdX7X#X).^.W.R.(.XX(.(.9XsX7X@X#X#X8XeXsXr         q #XoXR.!._.eXsX3X#X).W.R.R./._.7 X X = q Y.Y.T.#XiXzXMXgXaX0X|.XX",
"7X3X)._.qXxXBXgX7XoX/./.(.OX@X(.XX2X2XXX(.^./.oX5X7X5X3.q q e 8XtX2X`.{.eXMXBXzX7XXX/.^.(.XX+X'.Y.Y.oXoX'./.XX#X2X3X4X9XsXfXeX7X",
"uXsXuXiXhXnXmXmXsX7X#X3X2X7X7X@X(.^.^.^.^.R.R.^./.XX#X X+X#XrXfXiXiXuXpXaXmXmXmXpX7X4X#X3X3X3X@X_.^.(.^.R.R.R.^.(.XXoX+X+X4XsXfX",
"9XkXlXlXeX1X]. XsXfXiXfXfXsXfXqX(.E.E.R.R.R.R.R.R./././.^._.iXsXyXsXlXkXpX1X]. XrXkXsXsXsXsXsXyX(.R.R.R.R.R.R.R.E.(.(.(.Q.).rXlX"
};
