/* XPM */
static char *e574ef0020bd4732aa747b287a7b84a43QPo2K4UpDdf6pcN[] = {
/* columns rows colors chars-per-pixel */
"80 80 255 2 ",
"   c #030903",
".  c #0B1707",
"X  c #131B0E",
"o  c #391607",
"O  c #0E2607",
"+  c #15280B",
"@  c #1A370B",
"#  c #192A12",
"$  c #1B3313",
"%  c #1C3913",
"&  c #253A0E",
"*  c #242F18",
"=  c #233C14",
"-  c #253819",
";  c #2A3923",
":  c #32382B",
">  c #512E12",
",  c #502916",
"<  c #6B3619",
"1  c #1F420B",
"2  c #26470C",
"3  c #2A530B",
"4  c #33590D",
"5  c #254314",
"6  c #264716",
"7  c #2B4513",
"8  c #2B4B14",
"9  c #2B441B",
"0  c #2C4B1C",
"q  c #354A18",
"w  c #324C1C",
"e  c #2D5316",
"r  c #335314",
"t  c #335B14",
"y  c #3B5817",
"u  c #34541B",
"i  c #355B1C",
"p  c #3B5C1B",
"a  c #3B640C",
"s  c #3C6414",
"d  c #3C631B",
"f  c #3C6819",
"g  c #2D4922",
"h  c #354A25",
"j  c #345323",
"k  c #3A5524",
"l  c #3C5C23",
"z  c #385928",
"x  c #394F33",
"c  c #3D6222",
"v  c #3D6529",
"b  c #3E6331",
"n  c #5A4C1C",
"m  c #425C19",
"M  c #4B730E",
"N  c #42631C",
"B  c #436B1C",
"V  c #486A19",
"C  c #497519",
"Z  c #4C741C",
"A  c #537A1C",
"S  c #425C23",
"D  c #4B542F",
"F  c #445B2A",
"G  c #455B35",
"H  c #714A29",
"J  c #426424",
"K  c #446B23",
"L  c #4A6C24",
"P  c #44642C",
"I  c #4A6529",
"U  c #446A2B",
"Y  c #4C6C2B",
"T  c #536B29",
"R  c #4C7323",
"E  c #4A7625",
"W  c #4C732B",
"Q  c #567725",
"!  c #547B23",
"~  c #53742C",
"^  c #547B2B",
"/  c #5A7D2C",
"(  c #496635",
")  c #4B6C33",
"_  c #546C36",
"`  c #4D7433",
"'  c #567737",
"]  c #547B34",
"[  c #5B7C33",
"{  c #637A34",
"}  c #062D58",
"|  c #11355A",
" . c #203D56",
".. c #0A3767",
"X. c #083866",
"o. c #0E4778",
"O. c #2E5371",
"+. c #3D627D",
"@. c #515955",
"#. c #6D574A",
"$. c #566E49",
"%. c #6D6D55",
"&. c #485C69",
"*. c #506673",
"=. c #74736B",
"-. c #AC3836",
";. c #90512F",
":. c #AA4D3B",
">. c #98683D",
",. c #B44D49",
"<. c #BA5A56",
"1. c #8A6E53",
"2. c #B86A52",
"3. c #8B796B",
"4. c #B76C64",
"5. c #C26F59",
"6. c #C36E6A",
"7. c #C77975",
"8. c #59841B",
"9. c #648C1D",
"0. c #5C8324",
"q. c #598627",
"w. c #5C832B",
"e. c #5C8432",
"r. c #5A8636",
"t. c #5C833A",
"y. c #658829",
"u. c #648B2C",
"i. c #71852E",
"p. c #69942A",
"a. c #739A2A",
"s. c #638433",
"d. c #648C33",
"f. c #6A8D34",
"g. c #658C3D",
"h. c #68893B",
"j. c #6B9334",
"k. c #699636",
"l. c #6B943B",
"z. c #739B34",
"x. c #739B3B",
"c. c #759838",
"v. c #7BA42F",
"b. c #7AA43A",
"n. c #5C8544",
"m. c #678845",
"M. c #6B9444",
"N. c #759945",
"B. c #6F8954",
"V. c #789A57",
"C. c #7AA444",
"Z. c #7CA455",
"A. c #5E8561",
"S. c #768869",
"D. c #839B31",
"F. c #83A83A",
"G. c #89B23D",
"H. c #8E904E",
"J. c #B7995D",
"K. c #84A947",
"L. c #8AB348",
"P. c #90B250",
"I. c #888579",
"U. c #8E9077",
"Y. c #A78A73",
"T. c #93AC6B",
"R. c #D3956E",
"E. c #D6986F",
"W. c #9DC361",
"Q. c #084987",
"!. c #165787",
"~. c #0E5894",
"^. c #2A5E83",
"/. c #196598",
"(. c #2C6C95",
"). c #196CA7",
"_. c #2A7AAB",
"`. c #4C758E",
"'. c #567995",
"]. c #2C85B9",
"[. c #378AB2",
"{. c #358BB9",
"}. c #528A9D",
"|. c #6F888F",
" X c #4897B8",
".X c #5390B0",
"XX c #6B98AD",
"oX c #5AA4BA",
"OX c #6CA8B9",
"+X c #328FC0",
"@X c #3894C3",
"#X c #479CC5",
"$X c #579DC1",
"%X c #58A5C7",
"&X c #50A4CB",
"*X c #65A9C6",
"=X c #74B1CA",
"-X c #8E8D84",
";X c #96948A",
":X c #9C9C93",
">X c #9C9D97",
",X c #A6998A",
"<X c #AC9D8C",
"1X c #98A48B",
"2X c #A7A397",
"3X c #A4A39C",
"4X c #B0AF93",
"5X c #B9A895",
"6X c #92ABB5",
"7X c #AAABA4",
"8X c #AFB2AE",
"9X c #B5B4AB",
"0X c #B9BAB6",
"qX c #CE8E89",
"wX c #D59A95",
"eX c #D1A897",
"rX c #DBAAA5",
"tX c #CDB8AC",
"yX c #DDB9B3",
"uX c #E2B5B0",
"iX c #B6C791",
"pX c #BCC3B2",
"aX c #C5C9B7",
"sX c #C2C1BC",
"dX c #D7CEB8",
"fX c #E3C5BD",
"gX c #88B8C9",
"hX c #95BACA",
"jX c #AFBFC1",
"kX c #96C5D5",
"lX c #AFC9D1",
"zX c #A5D1E2",
"xX c #C7C7C4",
"cX c #D2CDC6",
"vX c #CAD6CB",
"bX c #D6D4CA",
"nX c #DADAD6",
"mX c #E9CDC7",
"MX c #E8D3CC",
"NX c #E8DCD6",
"BX c #DBE1DF",
"VX c #E6E3D9",
"CX c #ECE4DE",
"ZX c #F2E3DC",
"AX c #EDE7E1",
"SX c #EEE9E4",
"DX c #E9EAE8",
"FX c #F3E7E1",
"GX c #F1EBE5",
"HX c #F3EEE9",
"JX c #F5F1EC",
"KX c #F9F3ED",
"LX c #EEF1F0",
"PX c #F9F6F3",
"IX c #FCFAF4",
/* pixels */
"( _ y I 0 . + @ B a.K.' W Q ^ ^ ^ W U u 5 v q.L s t v b.9.z.j.= % F O O ~ x.C M M B / K d.0.B A C p q S f.z.] u.a.l P m.V.P Y A Q N.^ K W ` r M.Z.E q.r.% @ + n.",
"P.y.y.K J Y 3 2 w.z.q.2 + 8 9 9 u J P * . P f.F.w.A R 8.0.w.Z ] P h 9 # _ R t p.d p r.! d.f.Q S y # ; { a.p.k S q * F h.k.u.s.h.h.M.l 9 ) M.[ ( ] r.M.' # - g.h.",
"^ K r 8 i u.j.K 3 / B d + F ~ k t.q.Z S @ I q J E 7 K A N k u ! R F ` R k + @ y.^ 9 W U d R V w.J F B.A / r X       * i.x.s.' [ B.( g * * _ ' ' P ] g z W e.f.x.",
"i e.B f q.x.N l.Q K.x.8 - _ ^ W 8.M N B Q ~ I - m 7 J M N j g w / ^ ^ e.w.e I C M c ' J ( q 0 P k V S S c.N * q X   : m.B g F I [ S - h ' [ ` ` t.q.B 8 q.a.a.F.",
"E N.d.E e.g.W y a 8.b.E j.l.s.E B t 8 l F e.p.8 ' a.8.m 4 4 R J k f.[ l.d u q N A d.c ( I 5 F V c E M / D.a.9.V T + * 7 4 8.W h d B J l m y.N.( 7 L C 8.p.q.8.V ",
"x.N / z.C.b.l.[ C 3 C ^ k.W ~ ^ d 8 g - - Y s.I F Q p.y D p x ~ h.N.j.w.3 e.R 8 e p.N.p.8.{ H H.H.H.J.H.>.>.>.H { n > , > V F O O W ( ' N A + . k k.9.A E c w s.",
"u.b.P.c.C p./ l.k.! u.k.q.m.J T.g.K w 5 w e.f.j.j.p.y.k ) s.w Q R f.8.d.d M.R l & 5 [ i.J.E.E.E.E.R.5.>.>.:.>.;.< < < < > < < > > ! p.a.8.4 + X ) Q V K t Y k i ",
"B b.F.a.y.y.Z V k.N.q.8.p.u.9 w F J E e W ' 7 R 8.p.0.v [ U ) W C 9.s.P 0 ) g m.c 7 S P.eXE.E.E.E.R.2.2.>.;.;.;.< < < > > , o > H V 9.v.y.4 F ` f.-     . # - = ",
"u.A u.d / L.F.A d 8 f 4 @ 2 ! Z S j c 6 U ) ) U ' A Z E C i l K s 0.E P ` f O 9 l m.k.N.eXE.E.R.R.J.J.2.-.;.;.< < , , , o o o o H N p.a.~ ^ Y c p 9 # D F ~ N.N.",
"A 8.w.l.R y.s.V & 6 r.g.J @ t q S ` d.q.` ) s.d.y Y 3 % 5 5 2 t e 3 u ( U @ 6 g [ m.f F J.E.E.J.2.5.:.,.;.;.;.< < , o o o o o , n f.9.C ) j 8 m.w.~ S I p _ M.W ",
"/ m ! q.y.a.j.C N @ E 8.L J p u ` l.C C s u 5 8 p ` 5 O # P B 2 6 6 0 j P % 0 ) C./ 9 x 3.4.3.Y.E.4X;X3.=.=.3.=.3.3.=.@.@.#.< , %.9.! g - 9 u K ` R d.s.V.Y F ( ",
"b.z.p.d./ j.C.w.Z f.w.z.R i Z j.K.E % 6 p 0.s l K K f 6 5 j p r ) u 5 b B 7 * M.Z.m.=.;X;X;X7XxXCXCXcX7X,X3.3.3.-X9XtX7X>X,X;X'.;XB.] u J W ] E h.e K d.I u ) _ ",
"C.L y.L.W.K.C.W q.G.z.! c.s.A F.j.i - I E 8.3 ` M.M.G @ u ` % k q.e % - 5 - J W t.h.;X:X-X;X3XbXZXZXdX5X,X3.3.3.U.0XcX9X7X9X3X>XpX:X( - P l.x.R N.m.] c R Q I P.",
"0.y 2 t C.0.C s s 3 R u x.b.p.8.M y $.C.u.^ e u U m.h . $ r.K d f z x $ . ^ r.k.j.M.-X:X;X;X2X0XbXfXaX<X3.1.1.3.U.0XcX0X3X7X7X3XsX:XX   X N L w Y $.6 c M.- h K.",
"C ^ [ @ V 0.A u.K.m e q.k.K.f.M f R B k.r.q.E K 7 J Q 7 K z.E u 6 ` ` z 5 P [ l I H.7X8X8X7X7XdXVXZXfX5X3.3.1.=.3.9XsX9X7X3X7X3XtX7X$.5 = k u P k s.l h P S Q d ",
"! k.C.u 3 u & Z q.] a B v c.Q Q d V 8.8.t t 3 u S s.q.s k.K @ g h j b - ' m._ d M.V.9XpXlXsXsXcXZXMXdXeX3.1.#.#.%.3.;X,X>X2X9X3XlXiXZ.r.K - ` d.r.^ y.~ V M.~ W ",
"f f B N @ 4 4 Q t y / m 0 [ / V w r R f.B 1 i k.q.w.Z f v @ # n.n.) b B.N.x.w.k.z.N.3X0XsXxXxXbXZXZXdX<XI.1.#.#.#.#.3.-X;X:X7X7XtX8Xn.W b j m.` n.j u u.u _ g.E ",
"f u.r 3 a 8.p.y.p.a.z./ k B Q V + @ K x.y.B C r.e.P V q.E + g r.0 z ( ( Y d B e N s.1X9X0XsXxXbXdXdXtX<XY.3.1.#.#.=.3.U.-X:X3X3X0X>Xb v U r.] N.k.E B r ] s.' s ",
"s K 2 C y.L.v.F.p.9.b.x.H.y T y.u 5 w V.p.a.8.v f U p F l g A.n.n.g ' F k u E ^ t.z B.S.I.I.I.;X1X2XY.<X<X,X,X-X;X:X,X:X:X;X;X:X1XB.6 ) u.V U g.^ C P * - 5 ) l ",
"N.W c d.j.A V Z 9.y.c.c.N.] A M t 5 O h E f q.i j b 3 g ` g n.] m.z l K I - j f E l l l I =.U.<X4X<XeXeXqX<X<X5X9XtX9XtXtX4X;XI.@.P 1 w e c h e.] - i _ ;   # l ",
"s q.K.x.z.y ! A v.E R ` ] x.! Y g.8.- * z 8 8 7 e t i 0 g $ z g % j U ) z.Z.U.T.M.9 ) V.T.,X5X5X<X<XeXY.Y.J.4.%.%.-X;XI.;X5X4XU.; g + @ l B J L O h e.W - + * + ",
"B 4 ! V 0.y.B c.P.N.V M N.w.s ( Z.A I h Y @ @ ( E t c b v K j h j h %.pXdXVXDXVXbXpXpX5X5X5XeX<X5XqXY.Y.Y.<X<X,X<X5XtX5X5X<XY.=.* . j B B y ~ & X g ) ~ s.! l G ",
"u.Y . @ b.F.y.C.C.x.B a 8.8.y p M.s u M.d @ 6 ] f c r.E 8.Q r.[ g.B.cXHXHXHXHXGXKXKXFXdX<X3.=.,X5XtX<XY.3.3.1.%.3.-X;XU.U.;X,XU.B.i - ( g.i = $ ; ; & L k.c p [ ",
"A j.q a y.a.y.V B E q.N.C b.l.I i O e C.2 @ $.^ e v ` K 8 e j - S.bXJXDXHXGXGXGXKXFXdXdXI.3.7X2X4X7X<X;X,X2X;XI.-X;X;X:X2X:X;X:X-XA.t.M.] # g k y s.B e j Y @ 9 ",
"V q R m y 8.0.d 5 y.z.z.Z / A F l T d.k.t 0 z # O ` ] t.U ~ Y m.nXGXHXGXHXGXGXGXBXtXdXtX;XtXxX3X:X2X>X>X3X7X>X>X:X:X>X:X:X;X:X;X-X>XU.6 # x m.! q.v $ $ g e i $.",
"2 . . l $.w.k.M.s.x.u.u.Q V l.i.I # m s.w.n.z   x V.u g.N.E [ bXGXGXHXHXGXSXSXDXpX-X;X9XsXcXAXcX2X>X2X3X3X3X3X3X2X:X-XI.I.-X-X;X-X:X>X; X u I * # .   $ ` v e n.",
"r d B s j i r.g.^ E 8.e / N M.x.Q $ g 9 8 9 5 g G [ S $.$.W ;XHXGXGXSXGXHXGXSXGXtX=.-XcXbXcXAXCX7X:X;X-X-X;X>X>X3X>X:X-XU.-X;X;X;X;X>X%.. 2 7 . X ; # h ` c e q.",
"f.8.y.R ^ 5 d t @ 6 q.f L j.K.I T { N 8 O . $ ' ~ Y [ Y P B.VXGXSXHXGXSXSXCXCXGXNXfXcXnXsXnXAXAXMX7X:X-X-X>X8X0XtXsXlXbX0X>X>X7X8X7X;XS.b g @ # 5 z r.r.f d q.W ",
"f.d a p.C.2 2 5 E d @ 2 / w.A s.K.f.A 4 u p 0 = $ F B.Q Y 1XSXSXSXGXGXGXCXCXSXCXCXNXbXcXnXCXAXAXNXsX7X>X>X7X0XxXxXbXLXPXbX3X7X0XsX8X:X=.n.( 5 ` j + % ` U % 8 - ",
"k.Y f b.C.^ 1 s w.8 7 $ I w.J x.Z 7 2 5 ` w.N.e.J s.N.7 P cXHXSXGXGXSXGXGXCXCXGXAXCXBXCXNXCXAXAXCXbX8X3X3X8X0XxXnXBXLXPXnX8X8XjXxX0X>XB.q.z j M.r.x % % g ( + $ ",
"p 0.p.b.8.p 2 B @ Z ! M.Y [ ) ` + u N = J Q j.z.! s.P.d.T.SXSXHXSXCXGXCXGXCXCXSXmXMXAXAXAXAXAXCXAXbXsX8X7X0XxXxXnXnXDXPXBX8X8XxXxXjX3X$.t f 8.q.` ( O O # g % @ ",
"K.u.y.z.r 5 2 ! 0.A 4 B ! l.k.J = h.K [ 0.J ~ E N Y [ N.bXHXHXSXGXGXGXCXGXGXGXGXqXrXAXAXSXAXCXCXCXbXsX8X8X0XjXxXcXnXLXLXNX8X8XxXxXsX>X$.1 f v z e v z % w P ` v ",
"J t.f i & r 3 4 A p 3 u.R t J [ ; m.m.c.D.u.5 2 ' t.v iXSXGXDXGXGXFXGXGXGXuXfXwX6.NXCXCXFXAXSXAXNXnXxX8X7X8X0XsXxXnXLXLXnX8X0XsXxXlX2X%.% % 5 % 9 v C.q.q.q.C z ",
"@ E M.e.N.C.w.w.y.y N f._ O $ * _ i.F.A M h F 5 = 8 V.VXSXGXGXGXmXqXFXGXNXwXrX6.mXSXAXAXFXAXFXAXnXNXxX8X8X8X0XxXxXnXFXLXnX8X8XsXxXtX>XS.( b u 6 # % r.q.c e E l ",
"O O c ^ E E t p.y.i./ y.f.= # p V A j.F.m + ; T m.J 1XSXGXSXGXGXmX<.wXZXwX<.7.MXyXfXFXFXSXFXAXNXnXDXxX0X8X0XsXxXxXBXDXLXBX8X0XsXxXlX>XS.g j j.q.` k v i z g s q.",
"m $ @ 6 W q.B e.7 d.J d x.I ` f.A f.N.9.N { 7 _ ~ ( cXGXGXGXGXGXHXrX-.5.rXrX4.7.wXMXSXAXSXAXAXnXNXLXxX0X0XjXsXxXxXBXLXLXBX0X8XsXxXpX3XS.U e.b.A e.r.E - z W k.v.",
"y.^ [ @ k.b.p.L.l.Z C p i g.U p.y.u.C.C Y J T T h.aXSXSXHXGXuXrXMXFXqX6.4.qXmX7.wXAXAXAXFXDXNXcXLXDXxXxXxXxXlXcXnXBXLXPXBX0X0XsXxXxX3X%.f 9.q.f r.` K c c i g.8.",
"w.K m.= 4 N 8 E p.i.3 u 8 ^ [ c.y.[ C.K 8 2 y.T U.HXHXGXGXFXrX6.-.6.qX7.rX6.4.wXMXAXSXFXAXNXbXnXPXDXvXvXvXnXvXnXBXCXLXLXBXsX0XsXxXsX>XT.p.p.r.g G g % 5 U e d A ",
"v q.j.7 O N j.r F.G.N.f.a.b.[ V I ~ c.J e.4 y M.cXHXHXHXGXGXGXFXqX-.,.<.<.fXqXqXAXAXSXGXFXNXcXDXIXLXBXnXBXBXBXBXBXDXLXKXDXxX0XxXxXpX>XB.C A $.@ + . . X G ( % t ",
"B C C V 2 d c.m L.L.b.^ b.K.f.v t.] A j.C.y.t 1XDXHXSXHXHXGXGXHXHXyXqXrXrXMXNXMXGXFXGXGXCXnXcXKXLXDXBXBXBXBXBXBXBXBXDXLXDXxX0XxXxX0X>X$.s s i l X - * # ' U U s ",
"a.b.! q.q.N y D.P.F.c.I 4 V t i B A k.y 5 7 B.VXGXGXGXHXGXHXKXZXmXGXNXqXwXmXNXFXGXGXJXGXNXcXlXkXkXkXgXkX=XkXgXhXgXhXlXvXzXjX8XsXlX0X>X%.3 i U v * ` w.9 g f V t ",
"y.q.E c.Z m i.K.T 7 ~ h.y p ] h.e.! ( _ [ F 0XHXHXFXGXJXHXHXKXyXqXGXHXFXrX6.NXGXGXKXHXFXnXjXgXOXOXOXoXoXoXoX*XoX*X*X=XgXhX6X6XjX0X0X>X$.2 - % .   9 M.q.g c f @ ",
"Q 4 7 s d W c.C.q 5 r _ L W u.s.R Z + 9 j U.SXGXHXHXKXFXHXHXFXmXqXKXKXKXAXmXFXFXJXJXHXCXxXlXkX=XOX=XOXOXoXoX$X$X$X*X=X=XOX6X6X0X0X0X;X@.+ ; . # $ x r.j ` b e 8 ",
"E V S t 0.k.C.d.y.y.S p d.^ U ] l.R q S A.VXJXJXHXJXFXHXHXJXwXqXqXwXrXuXuXuXwXKXKXGXFXnXlXzXzXzXkXkXgXhXgXOX=X=X=XgXhXzXkXhXhX8X8X8X;X$.j ( $ 6 c ` i c V.l $ k ",
"p.j.P.V p.a.p.g.N I c.q B V ] ] M.U A e.aXHXHXJXHXHXHXHXKXmX7.<.-.6.wXwXqXwXmXKXKXGXVXxXhX6XkXkXkX6X6XgXgXgXkXkXkXzXkXkXhX6X6X6X6X7X-X@.z Y l z ` n.g 6 v j j u ",
"8.F.x.c.Z ! y.l.m y./ I ~ d.j.H.{ i ~ 4XKXHXHXJXHXHXHXKXKXuXqXqX6.,.wXZXFXKXKXKXJXFXnX0X=X%X*X&XoX.X.X.X$X&X$X%X*X=X=X*X*XXXXXXX6X7XI.x 9 t.E E z 6 6 2 % ( ` 0 ",
"E C j.A s @ 2 a s.y.A / p.w.f.c.m.v S.DXHXHXHXKXKXHXKXZXqX6.6.6.<.7.6.MXKXKXKXKXHXCXcXgX=X*X=X*X&X@X@X+X+X+X+X+X+X@X&X&X%X$X$XOXXX>X|.%.E W e s 5 % d u h * - b ",
") d c.A = O $ p w f.z.s.a 4 n F F @.VXJXJXJXHXKXHXKXKXuX6.wX<.-.<.,.7.FXKXmXZXKXFXbXhX*X*X%X=X&X&X#X@X@X@X@X@X@X@X@X&X&X%X&X$X.XXX|.=.V.r.l e + # ( K.j.$   X # ",
"l d r.] R L l.c.N Q y.p 5 m [ Q G 0XKXJXJXJXKXKXKXKXJXmXwX<.rXwXqXmXMXKXKXwXMXHXNXsXOX*X&X*X*X*X&X@X@X@X+X+X+X+X+X@X&X&X&X&X#X.X|.|.=.$.n.i + O # ) q.j.l g ( F ",
"C.W N.j.k.Q 8.v.z.' S k . V ~ I 7XHXJXHXNXNXMXZXKXMX7.7.6.7.6.qXrXFXIXFXyXwXGXSXnX6XoX$X%X&X*X&X#X@X+X+X].].+X+X@X@X@X&X&X#X X.X}.|.=.$.r.U p 6 U r.E M q.$.e.M.",
"] ~ i E A z.0.0.^ j ) g.W ! f.1XDXJXAXrXqX7.6.4.wXqX-.4.wX<.rXqXrXuXrXqXwXFXHXVXjXXX.X$X&X%X*X&X@X+X+X_.].].].].+X+X@X&X&X X X.X}.|.=.$.@ + l s K W r.U J W ' ) ",
"= J ` z.i.Z e 1 ~ J ` c f.f.1XHXDXLXyXeXyXMXNXuX6.,.<.<.<.6.7.qXuXuXuXMXPXJXCXvX|.}.#X$X#X$X%X&X@X].].].].).].].+X+X@X&X#X X[..X}.|.*.$.g     + 0 ` 6 0 0 % + . ",
"l.M.r.y.y + @ 2 R M.m.[ N.1XJXKXHXSXwXyX<X,.yXJXGXuX,.<.4.-.rXKXIXIXIXIXIXGXnX-X$.}.[. X.X.X$X#X@X_._.).).].).].].[.{.#X#X X[. X}.|.@.x b ( w @ v b % j s 1 g b ",
"q.N.l 6 8.u.h.8 0 ^ y.l.V.CXIXIXGXGXyXqXuXqX,.eXGXHXMX<.7.uXmXIXIXIXIXIXJXCX9X( $.}.[.[.{.{.$X#X+X_.).).).).).).).].{.{.{.{.[.[.}.|.&.( n.N.g.= g 5 g g O O W ] ",
"e v r.r.C.j.N.u.S m.j.J # S.bXIXPXPXKXmXrXCXdX,.qXNXLXmX6.JXPXPXIXIXIXIXDXnXS.@ $.}.[.[.]..X$X#X_._.).).~.).).).).].].[.[.[.[.[.}.}.&.( E N.] l $.v g O $ z ) r.",
"` c g.k.C.A B c Z j.e.u ' i t.dXJXPXPXIXPXJXJXmX4.<.mXNX7.GXHXJXKXIXIXJXVXpXV.f ( (._.(.)._..X.X_.).~.~.~.~.~.~./.).(.[.[.(.[.[.`.'.@.x c a.v.! E t.] c g U ) $.",
"` e 6 d t 4 V 7 & e p [ m.N x.P.iXVXKXIXIXKXKXPXFXqX<.qXrXGXGXDXHXJXLXDXdXZ.i ` V.(.(.).(.[..X.X_.).~.~.~.~.Q.~.~./._._._.(.(.(.(.*.@.z / p.k.` L Y v s 6 $ # z ",
"g 5 2 8 z 1 R $._ 7 . 7 S 2 V v.y.B.4XKXIXIXIXIXPXKX7.7.NXDXAXAXSXSXVXBXU.$.V.Z.A.(.)././.(..X.X_.~.Q.Q.Q.Q.Q.Q.~./.(._.(./././.^.`.@.%.[ u.W _ e.Z ! d $ X $ b ",
"R 1 K e.7 g 9 s c._ . + h $ 2 a.8.q i.T.dXIXIXIXPXPXFXHXPXHXHXHXSXAXnX4Xm 0 n.Z.x (.!././.(..X'.'.~.Q.Q.Q.Q.Q.Q.Q.~.(.(././.!.O.^.*.@.( [ Z r $ f f E B Z K r c ",
"N W a.c.S - # l e./ S d m.m Q z.j.a.G.8.P.iXVXPXIXIXIXIXPXPXPXLXSXnXpX$.9 M.Z.~ G ^.!.!.!.(..XXX'.!.Q.Q.Q.Q.Q.Q.Q.o./.(.(.!.o.!.^.*.@.$.( u d f C M z.9.p.j.f.Z ",
"J T y x.N.* + T w.E M.b.k.j.l / m { D.8.a.p.t.pXGXIXIXIXIXIXIXPXDXnXV.i { C.x.b.m.O.!.Q.Q.^..XXX_.Q.o.Q.Q.Q.Q.Q.o.o.!.O.o.o.o.o.O.*.@.$.' f v $.8 $ j h @ L C 2 ",
"K ' y / D.V q 9 = 9 P c.! x.y.a.{ D.i.i.v.v.v.p.H.vXIXIXIXIXIXLXDX4XB e h _ r l.B.O.o.o.Q.!.'.'.`.Q.............X.o.o.o.o.o.o.o.O.&.@.b K a % g b g .   # j A Z ",
"8 t.e.j.L.F.f.j j % e s._ ! G.a.D.a.y.Q 8.Q p.8.8.r.T.HXIXIXKXSXvXs.a t ~ N.d.e.%.O.| ......^.`.!.......} } X.X.} } } | X.X.| o.O.&.*.( U c $ 5 u h .   $ ( v v ",
"# ; 9 7 ` c.V J R 0.w.p.j.y.9.p.p.F.K.l.j.y.x.k.k.q.E T.iXVXHXVXiXQ t 8.c.d.^ C.1.*. .| }  .&.^...} } } } } } } } } } } } } X. .O.&.=.( v z # $ - % $ # 6 b + % ",
". # % + 5 ] j.R A a.] N.3 y s A j.Q q s.0.y s.W E p ' s.z.T.iXiXb.0.V 8.e.q.C p.M.-X'.O. . .&.+.O.| | } } } | | ....o.| |  . .O.O.@.@.x 9 5 % $ $.v E f c ` j % ",
"l 6 v U 5 d C u.a 8 @ g.C ~ d.N ! y./ F.p.w./ d i u ^ s.p.L ' N.p.f.a V d ! N ] ' S.;X;X'.'.`.*.O.O.o.O.O.O.O.O.o.O.O.&.O.+.O.&.@.@.x j j . % u ) b ( d C f f e ",
"e.q.b.L.f.V A f.B f c d k.z.y.8.y.m i.L.F.u.T q c.C ) K.u.m.( V.F.a.y.q 0 d.f.d.L d.$.I.I.S.|.*.&.&.+.&.+.&.^.`.*.*.&.&.@.@.@.@.=.G k e.` $ % l c c g O # 0 b x ",
"v l.! b.L./ y.R ^ b.r.a ! s q.8.M A y.c.! a.m c.9.a W M.N.d.K 3 V 4 q D L A 8.E z.L.y.t T ~ _ $.: : $.: @._ $.$.$.x x g : h : _ m.$ h ; ; % % . g g c z j 5 j M.",
"K N.W d A C.h./ s.^ p./ m @ R W 3 ~ y.P.f.y.i.G.8.v l.p.C U w.q.k.W 1 y ^ 8.q.E w.y.r.C.C E E d . # k ; & Z F F m.8 j $.( 6 - - - - k * X _ ` g ; - E E U % + z ",
"P.N.C.3 C ^ L b.L e d L w @ Y Q ! / Q b.u.e T m.f q.Z.E 3 v z.N.j.J r j.e.e.d.k.p 2 K ^ q.b.l.R 9 g j h & y q _ W ] V.V.V.m.P * k T M.Y l ` e 0 z P t 5 ( b - x ",
"P.g.^ e 2 t M.a.i.K f K [ 7 Y V m m N A 8.E l ; - p W ' K ] W { x.k.q.y.z.u.z ' ^ 0 2 0 N.v.a.q.S l i [ s.y.y.d.J ' B.j f ^ m I m.W V _ [ e.C j ' V.m.W G # X $ ",
"l u u.k.e.( e./ w.5 B E p.z./ 8 V / P.9.p.y.Y m Q z.^ N.w.q.! C.k.k.k.q.Z d g 9 c g.i P ` 0.0.V x ' ~ ~ s.q # 7 w.] $.( 9 L z.y.y + h s.] p M.C.P.N.W u - c & $ ",
"E n.r.a.v.d.C.f.t.= P q.p.P.Q E y.9.y.{ Q S R a.u.u.! u.d r.C.P.Z.d.P.A 2 0 M.q.e z 9 l Y 3 a d ; ~ y k m.s.I + h T.N.M.Z.f.p.w.2 y r Z & 5 S L m W ^ q.R R N 9 ",
"3 j.j.A m R u e Y l.M.W 0.c.y.a.w.M V F.y.I [ l.d 0.v.K.Z h.g.K.K.h.~ 7 i ] U % U k U r.h.E K g.N.l.R l.C.s.{ S h.N.i.c.u.E 4 Q 4 k.u.S / w.7 r ~ I ~ P l B Z V ",
"e C./ l 8 p 5 2 8 y g.K.c.a.p.f./ V a.F.! h.s.Q K v j.x.f.f.~ g.B f.g.0 l k.^ q U v l.u.` ( m p z U d.M.W U W ^ w.b.0.s.r.Q $ d.M 7 q l.C.N.d.e.T q & z [ r.D.A ",
"W t.k 5 % = L B T r { Q M m & & T P.L.c.' F ~ f.g.r.l.B j.x.d.^ 7 y L t.m.] m.( P N.g.E r.U & + O 5 v t.' ( K b.C.x.i e m.h.h.w.V m Q p.e.y./ d.F.A V Y P h.c.N.",
"^ i f t e c z.j.u.{ s.V 4 Z q T { D.y./ - + Q G.j.u.z.s.a.0.N.j.E Z w.C.c.) T F h.{ p 0 Y i.R F i l $.v K = _ x.~ 2 p U ~ E j.s.s.w.N 8 x.s.c L / j.l./ j.N.K.F.",
"@ t p.p.d.t.^ s.c.N.c.T 5 d G.G.P.D.Q M.f.K.K.c.F.F.F J d.W K.j.8.f f Z / V.H.{ c.f.c.e.a.A 8.f.m.` l P p w.l.0 $ ` b.M./ p ~ z.! q.W / d.j.b.r.Y 2 U r l.$.Q c.",
"O E k.b.s.] / u.L.P.a.Q r 2 / T N.[ N V 8.j.b.y.v.r m i.e.q.s.N.a.b.p.d.p B.h S _ M.u.e.B.M A R R u Q N.g.d.C i 6 w.z.0.F _ / s.p.V ~ f.[ r.l.z.y.s w N A g.' m.",
"@ c f 9.w.m.p y.u.f.j.Z T L q & s.c.f.N.u.0.a.8.E Y T j.y.3 j.K.L.C.b.K./ u . h.p - 8 ` ( S [ Q @ u V p ( b.r.k.h.t.l & m i.T k P g h.y.w.C.M.f / L.h.8 = ( F / "
};
