/* XPM */
static char *da9ebc41cacf475299bcbc114feb4d78SiI4EWoOJIrw2qWh[] = {
/* columns rows colors chars-per-pixel */
"64 64 250 2 ",
"   c #733E15",
".  c #7C4D2B",
"X  c #75441C",
"o  c #786652",
"O  c #706F71",
"+  c #5E6C6A",
"@  c #E91714",
"#  c #F01715",
"$  c #D03134",
"%  c #EC2727",
"&  c #ED211C",
"*  c #894E27",
"=  c #8C532C",
"-  c #8B5529",
";  c #92552D",
":  c #945A2D",
">  c #96582A",
",  c #8D5533",
"<  c #8A5A38",
"1  c #935632",
"2  c #955B33",
"3  c #9A5D35",
"4  c #995C39",
"5  c #914F29",
"6  c #9C633B",
"7  c #996438",
"8  c #A36A3C",
"9  c #A26638",
"0  c #A66D39",
"q  c #A55F2E",
"w  c #DB4037",
"e  c #E3433E",
"r  c #AD3B41",
"t  c #CE3749",
"y  c #B94758",
"u  c #9A6846",
"i  c #8E694D",
"p  c #A56C44",
"a  c #A76C45",
"s  c #AB7444",
"d  c #AD7A4A",
"f  c #A97645",
"g  c #B27D4A",
"h  c #B27B46",
"j  c #A97A52",
"k  c #AB5872",
"l  c #87756D",
"z  c #995F7D",
"x  c #CF5253",
"c  c #DE6569",
"v  c #AE834D",
"b  c #B5854D",
"n  c #BC8D5C",
"m  c #B88655",
"M  c #BF915D",
"N  c #BA8B64",
"B  c #B5906F",
"V  c #B6A274",
"C  c #C68D58",
"Z  c #C8935C",
"A  c #C2874F",
"S  c #CB9D6B",
"D  c #C79864",
"F  c #D59566",
"G  c #CCA369",
"H  c #D5AA6D",
"J  c #CBA775",
"K  c #D2A473",
"L  c #DCAD74",
"P  c #D7AB78",
"I  c #DDB277",
"U  c #E6AD78",
"Y  c #E3B67D",
"T  c #71788F",
"R  c #7577A4",
"E  c #AE7C90",
"W  c #3696B4",
"Q  c #76888E",
"!  c #588CB0",
"~  c #7D92AE",
"^  c #7190B9",
"/  c #70A9A8",
"(  c #53939E",
")  c #3A9DCD",
"_  c #39ABD9",
"`  c #29B5DA",
"'  c #38B4DC",
"]  c #32ADD1",
"[  c #1DBEED",
"{  c #1EBBE7",
"}  c #1EBFF4",
"|  c #1ABDF5",
" . c #23BDED",
".. c #28B9E6",
"X. c #37B7E5",
"o. c #22BDF3",
"O. c #29BBF3",
"+. c #37BEF2",
"@. c #39A5E1",
"#. c #5686CE",
"$. c #5987CE",
"%. c #5788CE",
"&. c #5989CE",
"*. c #5187C5",
"=. c #5594C8",
"-. c #5386D2",
";. c #5C8DD1",
":. c #568BD4",
">. c #5F91D3",
",. c #5D93DB",
"<. c #4997CD",
"1. c #648BC8",
"2. c #618ED1",
"3. c #6393D4",
"4. c #6699D6",
"5. c #6A9BD6",
"6. c #6597D8",
"7. c #6699D9",
"8. c #6A9DDA",
"9. c #6996D4",
"0. c #719ED8",
"q. c #729BC9",
"w. c #46ABC9",
"e. c #46B4DA",
"r. c #50AFD8",
"t. c #6EA1DD",
"y. c #6AA7D6",
"u. c #72A4DD",
"i. c #76A9DC",
"p. c #7BACDE",
"a. c #7AA7D9",
"s. c #75ACD7",
"d. c #56B8E5",
"f. c #6DA2E2",
"g. c #72A6E1",
"h. c #75AAE3",
"j. c #79AEE5",
"k. c #78AFE9",
"l. c #7DB2E5",
"z. c #7DB4EA",
"x. c #77B1E7",
"c. c #78B9EF",
"v. c #27C0DF",
"b. c #1CC1EC",
"n. c #16C4EA",
"m. c #1DC1F2",
"M. c #15C2F2",
"N. c #28C2EC",
"B. c #36C3EA",
"V. c #23C1F3",
"C. c #29C3F5",
"Z. c #3BC5F2",
"A. c #37C5F2",
"S. c #5CCCED",
"D. c #49C8F5",
"F. c #5CCDF3",
"G. c #56CCF8",
"H. c #5CD1F3",
"J. c #56D1F4",
"K. c #4FCEEF",
"L. c #62CCF3",
"P. c #69CAF7",
"I. c #6AD2F5",
"U. c #6ECEED",
"Y. c #8E8F94",
"T. c #AD9D93",
"R. c #8DA296",
"E. c #BCA886",
"W. c #B8A897",
"Q. c #B0AF93",
"!. c #8599B7",
"~. c #8991AC",
"^. c #92AAAF",
"/. c #B0B2AE",
"(. c #D7AE83",
"). c #DAB686",
"_. c #C9B18C",
"`. c #E6BB87",
"'. c #E3B697",
"]. c #C7B4A5",
"[. c #D89C9B",
"{. c #E7C38C",
"}. c #E7C394",
"|. c #F2C591",
" X c #CAC2AE",
".X c #E3C197",
"XX c #85A8C9",
"oX c #86AADC",
"OX c #93B8D1",
"+X c #82B5E4",
"@X c #86BAE4",
"#X c #89BDE6",
"$X c #81B6EA",
"%X c #83BAEB",
"&X c #8ABDEB",
"*X c #89B7E8",
"=X c #82BDF4",
"-X c #92BEE7",
";X c #A3BBC2",
":X c #8EC4DB",
">X c #8DC3EC",
",X c #89C5E7",
"<X c #92C6EC",
"1X c #94CAED",
"2X c #9ACDEE",
"3X c #9AC5E7",
"4X c #9CD2EE",
"5X c #9FD8EF",
"6X c #8CC8F1",
"7X c #95CCF1",
"8X c #9ACEF1",
"9X c #90C7F0",
"0X c #8ADBF7",
"qX c #9CD3F2",
"wX c #9AD9F7",
"eX c #8AD7ED",
"rX c #B7CCEB",
"tX c #A2D2EE",
"yX c #ACD7EB",
"uX c #B5D4EC",
"iX c #A6CDF1",
"pX c #A2D5F2",
"aX c #AAD5F2",
"sX c #A4DBF4",
"dX c #ABDCF4",
"fX c #AADEFA",
"gX c #B2DDF4",
"hX c #B8DAF4",
"jX c #A4CEED",
"kX c #98E2FB",
"lX c #ABE1F6",
"zX c #ABE3FA",
"xX c #A5E2F8",
"cX c #B4E2F6",
"vX c #BBE4F6",
"bX c #B2E3F9",
"nX c #BCE6F8",
"mX c #E2D1C7",
"MX c #C6DEF3",
"NX c #C3E5F6",
"BX c #CBE4F6",
"VX c #CBEAFA",
"CX c #C7E6F8",
"ZX c #D2E4F6",
"AX c #D4EAF9",
"SX c #DBECF9",
"DX c #D5E9F7",
"FX c #CDF1FF",
"GX c #E2EBF9",
"HX c #C1CDCE",
/* pixels */
"pXh.&.&.u.z.%X$Xg.t.;.&.#.>.%XBXDX-Xh.$X$X$Xf.;.:.-.-.XX!.g.;.5.1Xj.;.;.f.$X$Xz.g.t.;.%.&.;.*XBXZX-Xj.+X$Xl.8.;.#.#.;.8.l.f.;.&.",
"sX%Xt.t.z.$Xh.g.z.z.t.7.7.t.1XNXhXjX1X1X$X0.,.:.R E k B Q.h.3.p.qX%X8.f.z.z.g.g.z.l.8.8.8.f.1XNXhX2X<X9X%Xt.;.-.#.#.#.;.f.h.3.u.",
"sX,Xz.z.$Xi.>.;.g.h.g.h.z.6XsXpX=X=X8XiX&Xh.E y % @ $ [.T.h.l.pXsX>Xc.c.$Xg.;.;.u.k.g.i.z.>XsXqX&X&XqXqX,Xi.5.&.#.&.%.%.2.j.l.tX",
"qX&X%X%Xj.3.$.%.;.;.;.3.$XpX8X$X$X$X$X*XwX/.t % # # c mXE.#XaXbXpX&Xz.z.h.3.-.%.;.;.&.3.%XsXqX$X$X$X=X>X1XsX4X5.#.#.#.%.5.,XaXcX",
">Xz.%Xl.6.%.%.&.&.#.#.3.&X2Xu.4.l.=XU.$XE w @ # % # x mX_.rXAXBX1X%X%Xx.6.#.%.%.$.#.#.3.&XqXu.6.z.%X$Xk.h.pXlX<X5.2.&.5.>XdXDXSX",
"qX=Xz.8.%.#.#.%.#.#.3.#XqX%X>.&.z.oX~.x % # @ # @ @ %  X_.uXSXNXqX&Xx.5.&.#.%.#.#.#.3.#XqX@X;.;.z.%Xz.7.;.i.sXdXuX3X>X<XsXcXDXVX",
"sX8Xl.;.#.%.%.$.#.&.+XsX1Xt.&.&.y.~.y $ r y k T.E c t F _.OXfXfXlX8Xz.&.#.&.$.#.%.>.@XsX9Xt.#.;.u.$Xl.;.#.;.l.gXSXZXlXqX7X8XyXlX",
"zXxX<Xp.i.i.i.i.i.l.aXcX%X;.-.#.>.c.z.5.#.#.7.>XSXAXjXT.P q.h.-XlXfX>Xp.i.i.i.i.i.p.sXcX+X;.#.;.2.l.z.7.$.#.2.-XNXVXqX%Xg.g.p.*X",
"4XxXlXcXvXcXdXcXdXdXNXBX*X;.#.%.3.l.c.x.6.$.#.9.tXtX&X:XQ.^ %.5.<XlXfXgXvXcXdXlXdXlXNXBX$X;.#.$.7.z.%Xl.6.-.#.5.tXpX&Xg.>.%.;.&.",
"5.1XcXAXGXDXnXVXbXcXDXZX#X3.;.3.k.%X%X%Xj.3.;.0.2X<Xd._ Q.^ :.:.5.4XcXAXGXDXvXVXcXcXDXZX#X>.;.3.k.%Xz.%Xj.2.;.u.qX>Xh.3.%.%.%.%.",
"&.u.tXNXGXGXvXdXlXsXcXcX&Xl.x.j.z.z.z.z.z.h.+X1XsXy.v. .^.~.-.%.&.i.pXnXGXGXcXcXlXsXcXgX&Xx.j.x.l.c.z.z.z.k.z.1X5X%X6.%.&.-.#.%.",
"%.&.p.sXBXDXaX+Xs.u.+XtXwXqX8X%X8.4.7.4.8.%XhXfX,X' n.M.^.~.-.%.#.&.p.sXVXSXaXp.i.p.p.pXqXqXqX+X8.6.7.6.8.*XhXgX9Xl.;.%.#.%.#.&.",
"%.#.3.>XbXnX1X3.#.#.3.<XzXlXlX<X3.#.#.#.>.<XVXhX` [ o.[ / ~ -.-.%.#.3.>XbXnX<X3.#.#.>.1XxXlXlX>X2.#.#.#.3.1XNXhX<Xj.3.&.&.-.&.&.",
"%.&.7.@XsXqX$X7.6.9.5.%X8X<X>X#Xi.a.oXu.i.:XjXw.n.N.o.b./ ~ -.-.-.&.7.&XsXqX%X8.6.3.8.+XqX<X>X#Xh.i.oXu.i.#X3XuX&Xj.3.$.%.#.#.&.",
"&.6.$X>XqX=Xz.z.z.z.$X%Xl.6.&.5.4XhXZXdX,X9.<.B.G.+.M.M.w.~ -.#.&.6.+X<XqX&Xz.$Xz.z.z.%Xx.9.;.5.tXhXMXgX<X3.2.j.%X+X;.#.%.%.#.&.",
"3.l.pXwX>X%X%X$X%X%X%X%Xx.;.#.4.tXSXDXtXt.*.X.P.S.N.M.} _ ^ -.;.3.l.qXwX>X$Xc.%X%X%X%X%Xx.;.#.3.tXDXSXtX8.$.$.6.$Xl.3.#.#.%.%.#.",
"l.qXfX>X%X$Xz.$X$X$X%Xc.l.2.#.%.a.gXuXi.$.w.K.H.H.C.[ o...! $.;.k.pXsX>X$Xz.z.$X%X%Xz.%Xl.>.#.%.i.gXuXu.-.#.$.6.l.$Xg.;.;.&.#.&.",
"pXNXaXi.7.8.8.8.7.t.z.%X$Xf.;.#.6.2Xj.1.<.D.H.K.G.O.m.o.{ =.3.t.8XNXpXu.8.8.t.0.8.t.z.%Xz.t.&.-.9.2Xl.&.#.#.;.t.z.%Xz.g.f.8.3.8.",
"cXSXhX9.#.%.%.%.&.&.u.%X%Xz.8.8.+X1X9.*.X.G.L.S.D.o.m.o.n.r.+X<XgXGXhX9.#.&.&.&.$.&.t.z.%Xz.f.8.+X1X4.#.%.;.8.z.%X$X%X$X%X+Xz.>X",
"vXSXMXa.%.#.%.#.-.#.;.g.k.z.z.%XsX4X3._ L.S.F.F.A.o.| o.n.e.aXzXvXGXMXa.&.;.&.$.%.%.>.f.k.z.z.&XsX4X3.#.&.4.z.$Xk.h.h.h.z.&XgXlX",
"lXZXvX4X8.&.%.%.%.#.#.&.3.z.>X>XgXyXy.N.I.S.H.G.O.| o.o.} ..gXgXfXAXvX7Xy.1.#.#.%.#.#.&.3.l.>X>XlXyXu.3.6.j.c.h.>.;.;.3.k.<XNXgX",
"1XsXsXlX<X4.#.&.2.&.>.&.3.%XqXdXAXBXe.K.H.S.H.D.o.o.| V.o.{ ,X1X>XaXlXxX1X3.#.$.;.3.3.&.4.+XqXsXAXBXtX1X+Xl.l.3.-.#.#.#.7.4XaX<X",
"l.i.p.sXlX,X2.3.@X<X,X>X>XqXxXcXSX,X+.I.P.F.H.Z.o.| } } } [ r.$X+Xi.p.sXlX#X2.3.@X<X,X,X>X4XsXcXDXNXbXxX7Xt.3.&.%.&.&.#.5.1X+Xl.",
"j.;.&.+XdXsX@X#XsXlX8X7X7X1X@X2XjXX.D.0XI.F.H.Z.} m.} } m.m.@.8.k.&.&.+XdXsX#X@XsXfX8X8XqX<X&X2XaXtXfXzXsX+X;.#.#.%.#.;.@X2X7.6.",
"z.7.;.3.#XsXqXqXqXqX%Xc.h.t.3.z.y...I.fXL.F.F.Z.[ m.} } } o.O.3.h.8.$.3.#XsXqXqXqXqX&Xz.h.t.3.x.+Xj.>XdXvXsXj.$.#.#.&.p.sX#X>.$.",
"%Xz.2.$.4.4X>X%X%X%X%Xh.;.%.>.p.` Z.wXwXS.F.H.Z.M.| } } o.m. .<.l.x.;.#.5.2X>X%X%X%Xc.g.>.&.;.l.j.2.u.dXVXcX4Xi.5.5.i.tX<X3.%.1.",
"%Xz.2.#.6.1X6Xz.z.l.h.3.#.#.3.y...J.xX0XF.S.S.D.M.| } } m.m.N._ +Xl.;.#.6.7X>Xz.z.z.h.3.%.#.3.h.3.y.1XsXdXfXsXqXqXqXgXMXa.;.;.3.",
"&Xj.&.#.5.qXpX&Xz.8.>.%.#.;.u._ Z.0XzX6XF.H.L.D.} V.m.} m. .m.` l.j.;.-.5.qXqX,Xl.7.>.&.#.>.u.3.3.<XsX6X>X&X&X<XsXbXVXhX2X,X5.u.",
"%Xl.;.&.#XcXNXpXc.u.;.#.;.g.y.` F.fXxXI.F.F.S.D.o.} } } m.| o.{ x.+X&.>.@XgXNXtX%X8.;.&.2.g.j.3.u.>X9Xz.8.6.8.$X9X7XtX8XzXsX>X%X",
"7X9X+X@XsXVXGXNX8X$Xf.7.8.$Xr.X.0XfXwXS.F.F.F.G.o.} } } m.V. .[ e.1Xl.@XfXVXGXNX8Xz.f.7.u.$Xz.u.8.g.f.8.$.#.;.8.g.z.$X%X7XqXsX4X",
"qXsXxXlXdXrXrXrXsX7X>X6X6X>Xe.K.wXfXwXG.G.F.L.J.O.} } m.M.} o.} B.5XlXlXgXrXrXuXsX7X>X6X>X6X6X$X2.$.$.$.#.#.$.$.;.g.h.g.i.z.sXlX",
"7XfXlXpX4Xa.5.a.8XsXpXsXbX2X..I.zXbX0XL.F.F.L.G.Z.m.m.m.o.V.} V.{ eXlXpXqXa.5.a.8XsXpXpXfXbXbXqX9.$.;.;.2.;.2.$.$.;.2.2.;.5.pXcX",
"sXlX4Xu.z.l.j.l.&X>X>X9XcX,X..0XfXcXwXF.H.H.S.H.D.[ m.} o.o.} V.| d.tXi.l.z.l.l.>X6X>X6XdXDXDXaX5.&.&.&.&.$.2.$.$.;.&.&.$.6.aXAX",
"lXsXi.;.6.z.%X%Xz.$X$X%X2Xe.B.kXgXcXwXF.F.L.S.L.K.N.b.b.o.} } o.m...s.&.4.z.%X%Xz.z.z.c.9XhXZX1Xu.&.&.&.-.$.$.$.$.$.$.&.#.6.pXnX",
"sX+X;.#.;.7.z.l.f.t.t.8.i.X.D.fXxXgXzXP.F.F.S.S.H.B.b.m.m.o.o.m.o. .<.$.;.8.z.z.t.4.5.!./. X Xa.k.i.t.;.$.$.$.$.&.&.$.;.8.u.<XsX",
"4X5.#.&.#.;.j.g.3.&.&.$.=.` F.zXlXfXbXU.S.H.F.S.F.D.[ m.o.m.m.| V.V.@.$.-.>.h.q.~.W._.J M n H T.u.a.^ f.6.8.8.8.8.5.7.8.z.z.z.sX",
"5X4.#.%.;.6.h.3.&.$.%.$.=.` G.wXxXlXlX0XS.S.L.F.F.K.V.M.o.} } V.m.} b.<.1.~.Q.'.P Z s 7 7 * 3 U T.o O =X$X$X$X$X$Xz.z.z.j.f.5.,X",
"4X4.#.#.;.h.k.6.&.$.%.$.w.V.F.eXxXlXyXlXU.F.F.F.S.H.A.} } } } | } } n.] ].Y D f 7 3 6 u 6 = 5 2 < X Q =X$X=X$X$Xl.l.z.z.7.;.&.2.",
"5X5.#.#.;.z.$Xg.;.;.%.&.) V.S.U.0XzXlXcXwXF.F.J.H.L.Z.[ V.m.} } m.o.v...Q u - * 3 4 2 1 u 2 .   < I R.k.=X$Xl.7.,.3.6.j.h.;.$.#.",
"pXj.&.%.g.$X$X$Xh.8.;.1._ | D.G.P.U.0XkX0XS.F.H.H.G.K.N.m.} m.o.} m. .V.W < f N : - 2 7 u 4 4 1 < n '.^.%X$X8.$.#.#.&.7.z.g.&.&.",
"sX%Xf.f.z.z.t.g.z.z.t.0.e.| +.G.P.S.S.L.P.F.F.F.F.S.J.Z.m.m.} b.} m.m.o...~ U Y m - 6 7 3 , p 4 , : G ).XXf.&.$.#.#.-.;.u.h.4.i.",
"sX>Xz.$X%Xf.>.&.t.h.g.j.e.[ | +.G.F.L.G.F.H.H.H.H.S.H.G.V.m.m.m.m.m.b.o.m.` D I .Xj ; : 5 * 1 a 2 , u ).W.XXt.&.#.#.%.#.;.h.+XqX",
"qX,Xz.$Xh.;.%.&.&.&.&.9.d...[ ..Z.G.L.J.J.F.S.J.S.H.F.G.A.[ m.[ } m.} m.n.N.w._.}.).= 2 2 ; 5 6 : 7 (.P 6 Y.kXu.%.#.#.&.7.&XdXnX",
">X%Xc.k.3.#.;.%.#.#.$.3.#X,Xe.O...N.D.G.L.F.F.S.S.H.F.F.Z.} V.m.m.m.b.[ N.n.] Q.|.|.B * 7 3 > * p ).S v X B zX3X0.3.;.5.1XgXDXSX",
"qX>Xz.4.;.#.$.#.#.#.2.,XqX&X2.=.r.' b.V.A.Z.D.S.S.F.S.J.N.[ | [  .[ | m.[ ! V I `.{.{.v m s * v ).n s >   R sXdXuX2X1X1XsXcXAXVX",
"xX4Xz.&.#.-.-.&.#.3.@XsX1X0.&.2.s.l.y.w.`  . .o.C.A.A.A. . .n.M.n.N.[ ) + v H U H I {.P b 0 G P v s 6 . + &.l.gXSXAXlX7X1X1XaXdX",
"lXlX<X+Xp.l.p.p.p.+XfXhX%X;.&.&.>.i.].M o + ( ] ` ..` { V.V.` .._ W + i < 7 v L I H I H b J H d s ; i ^ >.#.2.*XBXBXtX$Xg.u.i.@X",
"2XsXlXvXnXcXlXvXlXfXNXZX#X;.*.&.1.].B < < q J J V R.Q / Q ( Q O o , 2 , 7 d 0 D I L G Z I M d 8 ; 5 l z.4.$.#.9.pXqX%Xu.3.&.&.;.",
"5.<XcXAXGXDXNXVXcXcXAXZX#X3.,.1.W.Z - 9 7 7 D Y U `.`.|.N u m 3 7 , 7 g A A 0 b L D S P b d 6 = = , ~ 6Xj.9.;.u.4X>Xh.3.;.&.#.-.",
"&.u.5XvXGXGXvXlXsXsXgXgX>Xz.oXW.C < p 0 8 7 d H I `.}.'.}.v b 1 ; p Z F F C b 8 g P S d s 2 2 - * Y.c.k.z.j.$X2XwXz.3.&.&.#.#.$.",
"#.$.i.sXNXSXaXj.u.y.p.tXsX4X/.G 1 8 a u 3 1 8 b H ).{.{.}.I f u m F Z A Z Z d n (.C d p , , * * T 7.6.6.7.*XhXgX7Xl.;.$.&.$.$.-.",
"$.#.3.>XcXnX1X3.%.#.3.,XzX;XH : 9 a 4 2 6 3 : s D Y {.{.}.}.M d F C Z F A b S K m g 9 ; 1 = < Y.6.#.$.-.3.<XNXNX&Xk.2.-.#.-.$.&.",
"$.&.7.%XsXqX%X8.7.7.8.=X:X).f 2 a 3 6 6 3 3 : : b H {.{.{.}.`.g C C A g C P D d a 1 ; ; , , Y.&Xp.a.oXj.oX@X<XiX&Xl.;.-.-.$.%.-.",
"$.6.%X6XqX&Xz.z.z.$X+XoXW.S : a 3 4 8 2 3 : ; ; 0 b U `.{.`.`.S h h m K K g f 9 ; , 1 * < T :.4.2XnXBXgX&X3.2.k.%Xl.;.#.$.$.#.;.",
"3.+XsXqX>Xc.%X%X%X%XXX]._.f ; 3 4 p 3 3 : = 6 3 : 0 S H L L H S v J P C h s 2 - = 1 5 i ~ ,.#.3.jXDXDXtX5.$.#.3.k.z.3.%.#.#.#.#.",
"+XqXfX>Xl.z.$X$X%X$X+XV K v 2 5 p 9 3 ; ; 6 : > b h b H G D D J P C h d 6 5 : = , 5 l XXz.;.#.%.u.gXyXa.&.$.#.2.k.%Xg.>.%.&.#.&.",
"aXNXsXu.6.5.8.8.8.8.k.OXS j m D v 8 - - , * : v n s f D K P K Z v f 8 ; , < < 5 , O +X=Xz.u.;.#.3.2Xp.$.&.&.;.t.z.%X$Xh.f.f.3.t.",
"vXSXhX9.#.&.&.&.#.;.t.z./.J v K (.P S M N n D D S J P K D m d s 9 3 5 1 1 = 5 i T &.g.z.%Xz.t.8.@X1X9.#.&.&.t.z.%X%X$X$X%Xz.@X9X",
"cXSXBXa.&.&.&.%.#.#.;.t.h.^.V f f v n n M M D n n n v v f 8 6 > 5 1 1 1 = - l R -.%.>.t.h.z.z.%XsXtX6.$.;.8.z.z.h.g.g.h.z.&XgXzX",
"dXZXvX4Xa.2.#.%.#.#.#.$.3.j.OXE.0 7 7 6 6 f f p 8 8 6 3 : = * ; 2 1 ; ; 7 T -.-.#.#.%.&.>.z.&X7XcXaXa.5.7.l.%Xh.,.;.:.3.h.1XNXdX",
">XpXsXlX2X5.#.&.;.3.3.>.9.%XwXuX].g = , 9 9 9 7 7 1 2 ; 3 4 9 6 < 2 f T.OX8.-.#.>.3.2.2.5.%XsXdXDXAXsX2X@Xz.j.3.%.#.#.#.9.8XpX<X",
"z.u.i.5XlX>X3.3.:X<X<X>X<XqXsXcXZXHXB 7 9 8 9 8 8 a a a s 0 9 9 u B ^ sXzX>X3.3.,X<X<X,X<XqXsXcXDXCXlXlX7Xt.>.&.%.%.#.#.4.1X+Xx.",
"l.>.&.p.sXsX&X,XsXsX7X7X1X<X@X<XpX8XsX/.B i p s p p 8 7 3 p l T q.6.>.p.sXaX,X#XsXxXqX9X1X>X+X<XiX2XsXlXdX@X;.#.#.&.#.>.#X2X9.3.",
"z.8.&.>.@XsXpX7XqXqX&Xz.g.8.3.j.z.h.>XfXcX;XT l i i l Y.^.XX1.,.z.t.$.&.#XsXqXqXqX7X%Xz.g.t.6.x.$Xi.#XlXnXfXp.;.&.%.;.p.5X#X;.%."
};
