/* XPM */
static char *d6ff7bf55fbb4fee98cae9c4edf76f37IIdTJG2Mc6t7ucbg[] = {
/* columns rows colors chars-per-pixel */
"64 64 255 2 ",
"   c #323921",
".  c #753F15",
"X  c #22601C",
"o  c #6F6D0A",
"O  c #4D6C37",
"+  c #685D25",
"@  c #317873",
"#  c #716A55",
"$  c #747369",
"%  c #516651",
"&  c #EA1C15",
"*  c #F11915",
"=  c #E72927",
"-  c #8D4A1C",
";  c #8E7702",
":  c #894D27",
">  c #924E22",
",  c #8D532C",
"<  c #8D5428",
"1  c #92542C",
"2  c #945A2C",
"3  c #985529",
"4  c #8C5734",
"5  c #925632",
"6  c #945A33",
"7  c #9A5D35",
"8  c #965B39",
"9  c #A15D36",
"0  c #9C6336",
"q  c #9C623A",
"w  c #98673A",
"e  c #916E2B",
"r  c #A46B3D",
"t  c #A4673A",
"y  c #A66A34",
"u  c #8A5E42",
"i  c #9A6845",
"p  c #9B7459",
"a  c #917353",
"s  c #A56A42",
"d  c #A96D44",
"f  c #AD7A49",
"g  c #A97546",
"h  c #B17D4B",
"j  c #B37945",
"k  c #A67A53",
"l  c #957965",
"z  c #89776B",
"x  c #A4536B",
"c  c #CA6F50",
"v  c #CC5F68",
"b  c #338F14",
"n  c #4E8D07",
"m  c #6EAA2D",
"M  c #67A01B",
"N  c #79C500",
"B  c #268D4F",
"V  c #539B51",
"C  c #748E54",
"Z  c #569373",
"A  c #629667",
"S  c #3CC07F",
"D  c #75CC5F",
"F  c #98890F",
"G  c #A88B01",
"H  c #AE9406",
"J  c #889535",
"K  c #91B031",
"L  c #A69F24",
"P  c #8CC90B",
"I  c #AEE907",
"U  c #92D537",
"Y  c #A7E528",
"T  c #96824B",
"R  c #AC834C",
"E  c #B4834C",
"W  c #B78755",
"Q  c #BA9259",
"!  c #AC8254",
"~  c #968873",
"^  c #B38E6A",
"/  c #BDA47A",
"(  c #88AB69",
")  c #C6955C",
"_  c #C7874F",
"`  c #C89B68",
"'  c #CC9C73",
"]  c #CBA06B",
"[  c #D5A86C",
"{  c #CBA374",
"}  c #D6AA76",
"|  c #DBB479",
" . c #E2B57C",
".. c #E1AD74",
"X. c #ABC761",
"o. c #3B7DA4",
"O. c #6B69A0",
"+. c #693FC5",
"@. c #2F72D1",
"#. c #8F6991",
"$. c #A16D93",
"%. c #C17A89",
"&. c #2A90BB",
"*. c #24949A",
"=. c #7B938B",
"-. c #4C95B0",
";. c #718DB9",
":. c #54A9B4",
">. c #7CABAA",
",. c #5B9B8E",
"<. c #2899D0",
"1. c #2FB1D4",
"2. c #1DBDED",
"3. c #1ABCE8",
"4. c #1EBFF4",
"5. c #1CBBF6",
"6. c #10ABF8",
"7. c #22BDED",
"8. c #29BAE7",
"9. c #36BBE8",
"0. c #22BDF2",
"q. c #28BCF7",
"w. c #2FB2F0",
"e. c #0792DB",
"r. c #5686CE",
"t. c #5886CD",
"y. c #5788CE",
"u. c #5A89CE",
"i. c #5F88C6",
"p. c #5C8DD1",
"a. c #5488D3",
"s. c #5E91D3",
"d. c #5996D9",
"f. c #518ED1",
"g. c #6995CC",
"h. c #7696C7",
"j. c #628FD1",
"k. c #6394D4",
"l. c #6699D6",
"z. c #6B9CD7",
"x. c #659BDC",
"c. c #6B9DD9",
"v. c #6795D6",
"b. c #739DD7",
"n. c #688DC6",
"m. c #50ADD4",
"M. c #6EA0D9",
"N. c #6AA3D7",
"B. c #72A3DA",
"V. c #79A7DA",
"C. c #7AA1C7",
"Z. c #4AB6E7",
"A. c #76ABE4",
"S. c #79AEE6",
"D. c #7AAFE8",
"F. c #73A8E3",
"G. c #7BB1E6",
"H. c #7CB2E9",
"J. c #77B3E8",
"K. c #70B0EA",
"L. c #4E8EE8",
"P. c #1BC2EC",
"I. c #1CC1F3",
"U. c #19C3F8",
"Y. c #27C2EB",
"T. c #26C2F4",
"R. c #36C6F3",
"E. c #33C5EC",
"W. c #46C5EB",
"Q. c #5BCDEE",
"!. c #57C8EA",
"~. c #48C8F5",
"^. c #5CCDF3",
"/. c #56CBF7",
"(. c #5AD0F3",
"). c #56D1F5",
"_. c #54D2EB",
"`. c #67CAEB",
"'. c #62CCF2",
"]. c #66C9F8",
"[. c #74CBF3",
"{. c #75D2F1",
"}. c #56CFD5",
"|. c #968986",
" X c #929090",
".X c #A99295",
"XX c #96AB97",
"oX c #B3A98F",
"OX c #8D91B0",
"+X c #93A8AE",
"@X c #B2B3AF",
"#X c #A792AF",
"$X c #D1B492",
"%X c #E6B986",
"&X c #E9B68A",
"*X c #C7B7A4",
"=X c #CBB6A9",
"-X c #88C6BD",
";X c #BECFB9",
":X c #CDC39E",
">X c #E6C28A",
",X c #E6C293",
"<X c #F2C796",
"1X c #D1CBB1",
"2X c #F4C9A2",
"3X c #809BC6",
"4X c #96ABC8",
"5X c #83ADDB",
"6X c #91B1CF",
"7X c #ABB9C8",
"8X c #81B6EA",
"9X c #83BAEC",
"0X c #8ABDEB",
"qX c #86B7E6",
"wX c #8ABAEB",
"eX c #93CCCC",
"rX c #A8C9D3",
"tX c #8CC3EE",
"yX c #86C7EA",
"uX c #92C5EC",
"iX c #95CBED",
"pX c #99CDED",
"aX c #96C4E3",
"sX c #9CD2EF",
"dX c #89C5F4",
"fX c #96CEF2",
"gX c #88D8F6",
"hX c #9DD3F1",
"jX c #97D8F8",
"kX c #A1CFED",
"lX c #A6D5EE",
"zX c #A3D5F1",
"xX c #A9D6F1",
"cX c #A4DBF5",
"vX c #ABDCF5",
"bX c #A9DCFA",
"nX c #B3DDF4",
"mX c #B4D9F3",
"MX c #94E2FA",
"NX c #ABE2F6",
"BX c #ACE3FA",
"VX c #A5E3F8",
"CX c #B3E3F6",
"ZX c #BCE4F6",
"AX c #B3E5F9",
"SX c #BAE7F8",
"DX c #C5DBF2",
"FX c #CFD9F0",
"GX c #CCE4F7",
"HX c #C8E7F9",
"JX c #D3EBF9",
"KX c #DAEBF9",
"LX c #D4E7F7",
"PX c #E2ECF9",
"IX c #C0CDC8",
/* pixels */
"NXNXiXl.F.9X9XH.9X9XH.dXcXLXPXxXv.t.r.u.t.t.a.L.L.r.;.h.r.s.zXJXCXNXuXl.A.8X8X8XH.9X9XtXvXKXPXzXv.r.r.t.a.t.a.t.a.t.j.u.t.g.xXKX",
"NXiXN.y.k.A.H.9XH.H.D.D.0XZXGXwXF.k.u.u.a.f.t.#.$.#.oXOXr.z.hXCXNXiXz.a.v.S.9XH.G.G.H.G.0XZXGX0XA.v.p.a.t.a.t.t.r.t.u.a.u.l.zXAX",
"sXM.r.r.r.k.D.D.k.p.p.p.l.pXxXb.A.8XS.x.OXv = * = O.oX@XK.H.0XcXhXz.r.y.y.k.G.D.v.k.k.p.v.pXzXB.F.H.S.k.p.p.p.p.p.p.p.v.D.H.0XcX",
"sXv.r.r.y.k.F.k.y.y.y.y.r.c.uXc.j.K.qX%.= * * = = 5X=X@XK.A.z.iXhXv.r.y.y.k.F.v.u.r.r.r.r.M.tXz.k.A.9XH.D.H.H.H.D.8XD.D.D.F.M.iX",
"sXl.r.r.p.F.H.k.r.r.y.y.r.p.9XjXD.3Xv & & * = = = F.@XoXx.s.u.B.uXk.y.y.p.A.H.k.t.t.r.y.r.k.9XuXb.k.A.9X9XH.9XH.G.G.H.H.x.a.p.v.",
"sXN.r.y.k.J.9XD.k.p.y.r.r.p.5X@Xv = * * * * * * * O.OX*XK.k.r.k.uXz.r.a.k.H.9XA.v.a.t.y.r.u.8XZXDXb.k.G.9X9XA.k.p.s.k.A.F.k.r.t.",
"cXH.k.k.S.8X8XH.G.A.v.k.p.x.#Xv v v %..X#X$.#.#.v x .X*XF.F.p.M.hXH.s.k.H.H.H.H.H.S.k.j.p.k.tXGXGXkX9X9XH.D.p.r.r.y.r.k.A.A.p.k.",
"cX0XG.G.9XD.k.k.S.H.F.F.D.0XVXSXfXdXjXjX[.K.x.f.a.i.oX$Xk.F.V.fXcX0XH.H.H.A.s.k.S.H.F.F.S.yXcXxXuX0XzXhXdXM.k.y.y.y.u.y.k.A.V.uX",
"hX9X9X9XS.v.y.r.p.p.p.v.8XhXhX9XH.8X0XtXfXzXaXb.t.f.+X@Xl.qXzXCXjX0XH.9XA.k.r.y.u.s.p.v.9XcXpX9XH.8XtXtXiXhXiXz.r.r.r.y.l.qXxXZX",
"tX9X9XS.k.t.a.r.y.y.t.l.tXfXc.k.H.9XH.A.B.pXNXpXV.W.:.*XpXNXKXGXfX8X9XA.k.r.y.u.u.r.r.l.0XpXc.k.H.9X9XF.B.sXNXpXb.k.k.B.iXNXJXKX",
"hXdXG.k.r.r.r.r.y.t.z.iXhXH.p.p.D.H.H.k.r.l.pXlX}.2.1.:XmXNXLXZXjXtXG.s.r.r.r.r.r.t.z.iXhXG.u.u.D.9XH.k.y.z.pXCXDXmXhXsXcXNXGXHX",
"NXcX0Xl.k.k.l.v.k.c.pXvX0Xk.y.t.k.H.H.k.r.r.B.W.2.5.1.@X6XG.0XhXNXcX0Xl.k.l.k.v.k.M.pXNXyXk.u.u.z.H.G.k.r.y.z.kXKXJXcXtX8X8X0XpX",
"zXNXcXxXxXlXzXzXzXzXZXGXqXp.r.y.k.H.H.D.k.g.8.P.q.T.1.XX3Xp.p.b.kXBXcXxXxXxXzXxXzXsXHXGXqXy.u.u.k.G.H.A.s.r.r.z.xXvX0XF.k.p.p.v.",
"M.iXAXJXPXKXSXJXAXAXJXLX0Xs.p.k.J.H.9X9XV.1.Y.P.5.P.3.>.h.r.p.a.z.pXAXJXPXKXSXHXAXAXJXLXqXs.u.k.S.9X9X9XS.v.a.B.sXdXF.k.r.r.r.r.",
"t.l.iXZXKXKXZXlXsXhXxXvXtX9XqXH.G.G.J.J.}.R./.9.P.I.5.m.3Xa.u.t.r.c.pXZXKXKXZXxXhXsXxXvXtXH.H.S.D.D.H.H.G.S.0XhXhX8Xv.r.y.y.y.y.",
"u.y.z.sXZXLXzXN.k.k.N.fXbXbXcX0Xk.y.j.m./.[.^.Y.U.2.2.m.3Xt.a.a.y.r.z.hXZXJXkXc.l.k.N.sXVXvXVXyXk.p.s.a.v.0XHXCXtXS.j.u.a.y.y.y.",
"u.r.k.0XcXcX0Xk.p.p.k.0XcXhXsXuXz.g.m._./.Q./.E.2.4.0.1.h.r.y.r.y.r.k.0XvXcX9Xk.p.p.k.0XzXhXhXtXx.v.v.v.b.uXxXmX0X8Xk.t.t.y.y.a.",
"r.k.G.dXhXtXH.G.G.G.J.9X8Xc.k.N.sXyX~.]._._./.Y.I.0.0.8.s.y.y.y.r.k.H.uXhXtX8XG.J.G.H.9XH.z.k.M.pXmXDXlXyXz.l.qXqX8Xj.r.t.t.t.u.",
"k.8XzXhXtX9X9X9X0X9X9X9XD.p.r.k.aXW.).].Q.^.~.4.U.0.P.P.m.t.y.r.k.H.jXhXtX8X9X9X9X9XH.9XG.p.r.s.kXJXKXkXz.r.r.v.8X8Xk.r.r.r.r.u.",
"0XcXcX0XD.D.H.H.J.H.H.H.G.k.r.p.Z.Q.`.).(./.w.2.4.0.P.U.m.k.r.k.9XvXcX0XD.D.G.G.8XD.9X9XJ.k.y.y.z.xXkXz.r.y.y.l.D.9XF.v.p.p.u.p.",
"vXJXmXz.p.p.p.p.p.k.V.9X9XA.k.N.R.'.^.^.(.~.q.5.4.5.T.4.E.S.c.8XvXJXxXl.p.s.k.j.k.k.A.8X9XA.k.s.B.iXN.r.t.t.k.A.9X9X9XG.G.A.M.H.",
"SXPXDXB.r.r.y.y.r.y.s.J.H.8XJ.E.(.Q.^.'.(.R.q.5.0.U.5.4.7.9XzXbXZXPXDXb.t.u.t.t.r.r.k.D.H.H.G.H.hXpXp.r.r.k.A.9XG.D.D.H.H.tXzXVX",
"vXJXSXiXc.r.y.y.y.r.y.u.k.G.Z.~.{.].^.^.^.E.0.5.0.5.4.I.3.`.GXvXvXJXHXiXc.u.r.r.r.r.r.a.v.H.tXuXCXxXB.k.v.S.9XA.s.p.p.v.S.uXHXvX",
"tXsXzXNXiXc.y.y.k.k.l.k.N.K.T.].MX{.^.^.).q.0.U.U.0.4.I.P.Z.zX0XtXhXzXNXpXz.r.r.k.v.v.v.l.yXhXCXKXGXcXsX9XG.F.k.a.y.t.r.v.pXzXtX",
"G.l.c.pXNXpXz.N.pXhXpXpXiX9.W.gXjX'.^.Q.).Y.4.4.4.I.4.4.0.T.A.S.H.v.z.pXNXiXN.B.pXhXsXfXpXhXhXvXGXCXBXBXhXB.p.t.a.t.y.r.M.iXV.F.",
"G.k.u.b.pXVXsXsXcXzXdXtXZ.T.{.VXjX).^.Q.^.q.U.4.5.I.5.0.P.P.m.v.F.k.t.l.pXvXhXpXcXjXtXtX0XG.M.8XtX0XpXNXCXpXl.r.r.t.r.z.sXuXk.u.",
"8XS.k.r.B.sXdXtX0XyXqXA.9.~.gXBXgX^.^.Q.(.E.U.4.T.5.U.5.P.7.9.s.G.S.p.r.M.hXdX0XtX0X8XA.s.a.p.G.A.k.V.vXHXCXiXb.v.k.M.sXpXl.y.u.",
"0XG.p.r.k.iXtX8XH.J.V.Z.9.{.MXVX[.^.(.Q.^.9.4.4.5.I.0.U.P.Y.P.N.H.H.p.r.k.pXtXH.H.G.F.k.r.r.v.F.k.z.pXcXvXVXcXhXsXzXnXDX5Xs.u.g.",
"9XD.u.t.M.zXvXtXJ.z.l.E.W.jXBXjX`./.^.Q.^.~.4.4.I.U.4.U.0.q.3.!.9XJ.p.r.N.hXvXyXG.z.p.u.u.v.F.k.l.iXcXtX8X8X8XtXcXvXHXnXhXiXB.A.",
"0X9Xl.z.iXHXJXnXtXS.m.9.{.NXBXgX!.^.^.^.'.~.4.4.0.0.4.P.0.7.7.Y.yXH.z.M.pXHXKXnXtXA.k.a.v.D.H.l.B.9XH.F.k.p.k.F.H.0X0XtXcXcXhXtX",
"jXcXhXcXNXDXFXDXzXtX9.W.VXbXBXgX/./.^.'.^./.q.5.U.0.I.I.4.4.7.5.`.vXhXzXnXDXFXDXcXtX9XH.9X0X0XG.v.p.p.p.t.t.t.p.k.D.A.G.H.0XcXcX",
"fXvXBXcXsX5Xb.V.zXyX8.{.BXbXBX{.^.].^.^.^./.R.4.4.I.7.I.0.4.T.3.W.vXNXcXhXS.b.5XhXcXhXcXbXvXvXhXk.t.t.p.u.u.p.a.p.p.j.k.s.M.zXSX",
"VXNXpXB.D.H.D.G.0XZ.R.gXnXvXNXgXQ.^.(.'.^.^.~.7.I.P.0.0.4.2.7.I.2.gXpXB.D.D.S.G.0X0XtXdXvXJXKXlXv.t.u.p.u.u.u.p.u.t.t.u.t.v.xXJX",
"NXiXz.r.k.A.9X9XG.8.!.MXBXNXCXjX^.^.(.Q.Q.Q.).8.Y.P.4.0.4.4.T.4.0.Z.b.r.v.S.9X9XD.S.D.D.9XnXGXkXD.v.p.t.r.y.t.t.t.t.r.r.p.l.hXCX",
"zXM.r.r.r.k.G.5Xm.8.'.VXVXvXCXjX'.^.^.Q.Q.'.(.R.3.P.I.4.2.T.4.4.7.Y.N.t.a.x.G.S.t.u.k.n.6XrX1X:X1X7XF.k.s.d.p.k.k.j.u.v.A.H.0XcX",
"sXl.r.u.r.k.A.v.m.Y.[.VXVXNXNXNX{.!.(.^.(.'.^._.Y.U.I.0.I.5.T.5.T.2.9.x.d.x.K.9.Z.4X*X$X} ` j r c %X@X8X5XOXH.H.8XD.G.H.H.F.M.uX",
"sXl.r.r.p.A.H.l.1.T.].jXVXVXNXNXjX`.Q.Q.^.^.^.(.T.I.I.0.T.5.I.4.T.R.:.C C J  X1.q.( K a 6 8 w , > r ' .X# z dXH.G.G.H.H.c.p.a.k.",
"lXM.r.r.k.G.9XA.1.R.`.{.bXbXxXxXNXgXQ.^.^.(.^.(.~.2.I.2.5.4.4.U.8.A R H G G G e O.# C ,.s i 8 , < - C a 3 ;.J.s.p.s.v.F.A.k.t.r.",
"cXH.s.s.J.H.H.S.8.q.(.`.[.jXBXBXbXVX'.!.(.(.(.^.~.E.2.T.T.U.T.T.C l T H H H H ; n P U Y F 8 r i < #  Xr  .*Xg.r.r.r.y.k.S.A.p.k.",
"cX0XG.J.H.J.s.l.I.7._._.^.'.{.{.gX{.`.'.^.^.^.'.).R.2.U.I.U.U.1.; |.T H H H ; o n N n P C 8 r : ~  X2 2 w %X*X;.a.y.y.y.k.A.B.uX",
"jXtX9X9XD.d.t.d.Y.2.q./.(.].(.Q.].].^.^.^.^.'.Q.).).E.4.4.2.U.Z G T |.F G ; F P n B e % `.i - ~ |.t 5 8 4 g %X$Xg.r.r.r.v.0XzXCX",
"tX9XH.A.k.y.y.s.9.P.7.8.~./.^.'.).).^.).)._.(.^.^.^.~.0.I.I.Y.O G H |.e o   N I   -.' z m.: l |.: q d 1 4 w |  . Xk.v.M.iXvXJXKX",
"zXyXG.k.r.r.r.r.d.9.Y.2.q.W./.(.(./.].^.Q.Q.Q.Q.^.^./.T.2.I.7.o ; o + -.  X N P # P X.-X=.z ~ : 2 3 3 8 k %X..W : @XbXiXcXCXGXHX",
"AXcX0Xl.k.l.k.k.k.M.yX[.9.E.Y.R./.^././.(.Q.'.(.Q.'.).R.4.P.T.,.o P b *.+ n I K O.U }.V m 7Xk y 3 4 =.oX..Q j 2 . 7XBXdXH.G.aXsX",
"lXVXvXlXzXlXzXzXsXhXZXLXwXx.m.8.3.P.R.R.~.!.!./._.).W.3.7.3.2.3.-.D I N X X U 1.+.7X).b N C W E =.eX;X/ R g 3 . z mXdXF.l.k.s.k.",
"B.iXAXJXPXKXHXHXSXAXJXLXwXj.t.+X>.-.1.1.3.4.4.I.Y.E.P.T.4.8.6.3.w.@ Y I K   <.w.+.d.e.C K / XXrX1X| E g r 8 z ;.kXtXA.k.u.u.r.r.",
"r.l.pXZXKXPXCXlXzXsXxXvXtX8X7X$Xr w # # XX:.:.m.1.<.1.1.1.W.6.&.-.M A rXD X B &.z @.1.$X@XeX'.$X) f g y 2 i 6XjXhX8Xk.u.y.u.t.r.",
"u.t.N.sXZXJXlXN.k.k.b.hXxX1X/ 8 4 4 2 ) | [ ] / oXoX.X# l :.e.% K D m @.6.Z n V S ~ OXeXXX&X{ R j t 2 1 > |.HXCXtXG.p.r.r.r.r.u.",
"u.t.k.qXcXbX9Xv.p.p.d.6X:XQ 4 y y t w k ` %X . .<X&X2X^ r XX&.V Y K.*.@ N.Q X 9.+XX.b.6.oX_ j g 8 , , : l aXmXmX0XD.p.a.a.t.t.a.",
"t.k.G.tXhXtXH.H.D.J.6X:XE 5 s d d 9 5 r E ] | >X>X>X>X<X! K m m m *.<._.-XR B ].-.m +XA k  Xk , 5 , - ~ aXx.v.qX0XD.p.y.t.a.t.t.",
"v.G.hXhXtX9X9X9X9X6X,X! , r s s 7 8 9 1 r E ..| >X>X>X>X%X$ M ,.<.}.XXq.8.Q n *.O ^ W c g m.$ : : 4 .XzXM.r.r.d.H.H.v.y.r.r.t.t.",
"0XvXcXyXD.D.H.D.5X=XW , d s q 5 8 9 7 7 2 g Q | >X,X,X,X>X*XV V O ~ / m.-.Q ` ] R ! g 0 > # u > u @XzXz.r.t.r.k.D.8XF.k.s.p.u.p.",
"vXJXmXz.u.k.p.k.*X` 2 r d 7 7 d 7 7 7 2 < 2 j )  .>X>X,X,X<X/ C Q _ E E ' } ) h f q , 4 , > : a 3XjXM.t.t.u.k.A.9X8X9XG.G.A.M.J.",
"ZXKXDXB.r.i.4X+X{ i 6 s 5 8 r 8 8 7 1 < 0 5 0 f ] |  .%X . . .W R E ] [ ` h f t 2 , , 8 > 4  XqXfXsXj.t.i.k.A.9XH.J.G.G.H.0XzXcX",
"CXJXZXpXz.g.$X%X{ 8 1 2 s d 8 7 7 1 2 7 5 2 y r j [ [ ..[ ` ` ` { } ` h f t 7 < , 4 , , p 4XtXdXCXvXB.k.z.A.9XA.s.p.s.k.A.uXHXvX",
"tXkXzXVXsXz.OX{ E k w 0 t 0 5 1 : 5 7 2 2 j ` h y Q ] ) ] { { ] Q j j r 5 5 , 6 , : 8  XB.9XcXNXKXGXxXpX0XG.F.k.y.a.r.r.l.pXzXtX",
"G.l.z.iXNXiXc.7X| g Q &X[ ` k s w w 6 0 f W W W ^ ' { } ` ) E f g t 5 1 5 4 4 : 1 ~ 7XfXfXhXzXvXGXZXNXBXhXV.p.u.a.a.u.r.c.pXV.F.",
"G.k.y.z.pXVXpXfXrX$XE ! ' ` { { { ] ] { ] ] [ } ` ` Q E h g d 2 1 , 1 5 8 : > k 7XcXdXyX0XG.M.9X0X0XsXNXBXpXl.t.t.t.y.z.pXiXk.y.",
"H.J.p.r.M.hXuXtXdXaX*XQ w w f f f f h f h h f f r r r t 7 1 < , 5 5 5 > > q XXwXdX0X9XF.s.a.s.G.A.k.V.vXHXAXiXc.k.k.N.aXiXz.y.r.",
"9XG.s.r.k.iXtX8X9XG.J.4X$Xy > 6 0 q r r r w w 8 0 7 : 1 4 4 6 0 6 3 9 p |.kXdXH.8XH.F.k.y.r.k.B.k.z.iXcXvXNXcXhXsXzXmXHX5Xk.u.p.",
"9XS.p.r.M.zXcXtXH.c.y.a.j.@X^ 8 > t r t 7 t 7 i 0 q s d t t 0 0 i ^  Xn.F.hXvXtXH.z.p.u.y.k.F.s.v.uXcXtX8X8X8XuXcXvXHXnXzXiXB.A.",
"dX8Xl.z.pXZXKXnXtXF.s.p.u.A.9X+X~ g r r d r d g d s t y y g ! .X4X9Xx.c.uXZXKXnXtXA.s.a.k.A.A.l.F.G.9XA.k.p.k.F.H.0XtXtXcXNXhXtX",
"hXhXhXzXvXDXFXDXcXtX9X9X9XtXdXK.x.n.OXz p k d i p l l |.OX6XcXbXcXcXzXhXvXDXFXDXlXyX9X9X9XtXtXH.v.p.s.p.a.t.u.p.k.F.G.G.H.0XcXcX",
"iXVXAXBXzXV.b.V.zXcXVXjXbXcXbXfXp.r.a.a.i.n.h.;.n.v.v.x.d.M.hXbXuXcXBXBXzXV.b.V.zXVXcXcXcXjXcXiXk.r.y.r.y.y.r.r.a.v.k.s.u.z.hXBX"
};
