/* XPM */
static char *cd77d788480148b5889334b9622b8d56xY5xjhKNxlZvp6nU[] = {
/* columns rows colors chars-per-pixel */
"80 80 256 2 ",
"   c #0D1309",
".  c #0C1709",
"X  c #0D2107",
"o  c #15280C",
"O  c #1A360D",
"+  c #192813",
"@  c #1C3413",
"#  c #1D3915",
"$  c #233413",
"%  c #253A18",
"&  c #2B1D32",
"*  c #303030",
"=  c #580A02",
"-  c #51110C",
";  c #670C04",
":  c #780E06",
">  c #71160E",
",  c #732A13",
"<  c #5F2A29",
"1  c #722D2D",
"2  c #1F4112",
"3  c #25440E",
"4  c #2C500F",
"5  c #284616",
"6  c #2B441B",
"7  c #2C4B1B",
"8  c #334919",
"9  c #334C1C",
"0  c #2D5217",
"q  c #375717",
"w  c #34541B",
"e  c #355B1B",
"r  c #3B5C1C",
"t  c #35610E",
"y  c #3C6619",
"u  c #3D631C",
"i  c #2C4722",
"p  c #334C23",
"a  c #354924",
"s  c #355323",
"d  c #3B5524",
"f  c #3C5B24",
"g  c #395928",
"h  c #395330",
"j  c #3D6323",
"k  c #3D6528",
"l  c #3E6330",
"z  c #45581C",
"x  c #71481A",
"c  c #43641D",
"v  c #446B1C",
"b  c #486B1B",
"n  c #4A741B",
"m  c #537A1D",
"M  c #435C26",
"N  c #4A5633",
"B  c #71502B",
"V  c #436424",
"C  c #446A23",
"Z  c #4B6C24",
"A  c #44642B",
"S  c #4A6528",
"D  c #456B2C",
"F  c #4B6C2C",
"G  c #536B29",
"H  c #4C7324",
"J  c #4B7626",
"K  c #4C732B",
"L  c #527424",
"P  c #537B23",
"I  c #53752C",
"U  c #547B2C",
"Y  c #597A28",
"T  c #5A7D2C",
"R  c #476633",
"E  c #4B6C32",
"W  c #536C35",
"Q  c #4D7333",
"!  c #4C7438",
"~  c #557737",
"^  c #547B33",
"/  c #5B7D33",
"(  c #6B752F",
")  c #3C2B46",
"_  c #3E3148",
"`  c #42334D",
"'  c #4B324B",
"]  c #463A4C",
"[  c #493A54",
"{  c #723A45",
"}  c #204F5A",
"|  c #275969",
" . c #2E5D6D",
".. c #33636F",
"X. c #376574",
"o. c #4D4D4F",
"O. c #53455C",
"+. c #6C4D4D",
"@. c #556F47",
"#. c #6A7352",
"$. c #584A64",
"%. c #575469",
"&. c #64546B",
"*. c #6D576F",
"=. c #685A73",
"-. c #506B75",
";. c #6F6C6F",
":. c #74657C",
">. c #830F06",
",. c #8A1308",
"<. c #97130A",
"1. c #8F1911",
"2. c #A7160B",
"3. c #B21B0E",
"4. c #A91B11",
"5. c #B71E12",
"6. c #912B16",
"7. c #87361A",
"8. c #AF2612",
"9. c #BB2216",
"0. c #851F29",
"q. c #8E322D",
"w. c #AE3128",
"e. c #C5261A",
"r. c #D12C1E",
"t. c #C72D23",
"y. c #D1372D",
"u. c #915518",
"i. c #B74E15",
"p. c #976319",
"a. c #AB6E1B",
"s. c #924F2A",
"d. c #AD4E32",
"f. c #926F2C",
"g. c #AE742B",
"h. c #C77217",
"j. c #C5732D",
"k. c #8F3843",
"l. c #8E4F50",
"z. c #B24E4B",
"x. c #91724B",
"c. c #986458",
"v. c #8F7271",
"b. c #B06F6E",
"n. c #C85F4B",
"m. c #C76E70",
"M. c #5A851C",
"N. c #638D1E",
"B. c #5C8425",
"V. c #598628",
"C. c #5C832C",
"Z. c #4F8035",
"A. c #5B8333",
"S. c #5B8537",
"D. c #658A27",
"F. c #62852C",
"G. c #648B2C",
"H. c #699429",
"J. c #6B932C",
"K. c #72992C",
"L. c #628533",
"P. c #648B33",
"I. c #6A8D33",
"U. c #67893A",
"Y. c #758934",
"T. c #6C9333",
"R. c #6A9438",
"E. c #739B34",
"W. c #759A38",
"Q. c #77A22E",
"!. c #7AA338",
"~. c #5C8340",
"^. c #688A46",
"/. c #759945",
"(. c #73914E",
"). c #7CA444",
"_. c #768B6E",
"`. c #8B8C34",
"'. c #B58930",
"]. c #86A93A",
"[. c #D28519",
"{. c #E29F1D",
"}. c #CD8F2F",
"|. c #C8963A",
" X c #E5A829",
".X c #8E904D",
"XX c #B18C4F",
"oX c #87AE49",
"OX c #89956F",
"+X c #B0946F",
"@X c #9EAA6F",
"#X c #C99A45",
"$X c #CA974F",
"%X c #D9A74A",
"&X c #D5A855",
"*X c #DCAD64",
"=X c #D2AF70",
"-X c #F4C757",
";X c #E7C572",
":X c #3F6F80",
">X c #4D7787",
",X c #796A83",
"<X c #6F7689",
"1X c #86798E",
"2X c #C67D86",
"3X c #598292",
"4X c #778B94",
"5X c #6F93A1",
"6X c #7797A5",
"7X c #8F8F92",
"8X c #95889A",
"9X c #B08E93",
"0X c #99AD8C",
"qX c #B1B08F",
"wX c #9395A7",
"eX c #A89AAB",
"rX c #97A8B6",
"tX c #AEADAF",
"yX c #A6AAB7",
"uX c #B8B5B8",
"iX c #D3A398",
"pX c #CEB491",
"aX c #CA99A5",
"sX c #CAAEAF",
"dX c #B0C491",
"fX c #B6C3B0",
"gX c #E9CC90",
"hX c #E1CE9A",
"jX c #D5CBB0",
"kX c #EDD5B0",
"lX c #91B1CD",
"zX c #AABAC6",
"xX c #B0BAC7",
"cX c #DBB9C7",
"vX c #B9C3CB",
"bX c #A9C4DD",
"nX c #BCC7D3",
"mX c #AFCBE2",
"MX c #CCCBC9",
"NX c #C5CCD6",
"BX c #CBD3DA",
"VX c #D5D8DB",
"CX c #EBD3D5",
"ZX c #DBE2D6",
"AX c #F7E6C8",
"SX c #FBECD2",
"DX c #CBDBEA",
"FX c #D8DCE2",
"GX c #E8DAE2",
"HX c #DDE1E6",
"JX c #E5E8EB",
"KX c #EFEEEF",
"LX c #EBEEF2",
"PX c #EEF1F3",
"IX c #F3F5F7",
"UX c #FCFCFC",
/* pixels */
"M d 6 F 8 X o O y Q.I.^ b / T J H / K e K J q e e k !.M.I.K 5 R p o z L.V.M.N.b / K Y Y G.T.m w M L B.L A.].K g ~ Q R F C.I U.K I ~ D K R.Z.K U.5 % 6 E F S ).I.",
").T.B.b r V 4 3 G.K.U 5 % q 7 d F V # . 6 G.K.C.B.B.D.B.B.H F 9 g + h T C B.B.u B.Z.I Y L r V + * I.E.I S M % S L.I.P./ ~ / ^.r g W U.F ! S.P.S.6 o d ^ D N W./ ",
"u L y 0 v T.B.r t T Q e + F M S I.P z % M d V I w T M.j E D C.V s ^ F % 8 P m % D K J P b F M W L.D.U %       @ ^.T.L.W / ~ R % + a ~ F E ~ s s Q P.P.R.J.( C.G ",
"# C.L y A.R.y C.C.!.C.D M F S.A.M.v r G I M 6 F w Z n Z s 6 c T A.A.P.F 9 v n v A e f d 6 9 r K M Y F.8 * +   . / L 9 M ~ / g 8 d C K V S.R.C.r P H.].!.E.!.^ ~ ",
"C P.A.J U C.r q n M.G.V.T.T F C.u 3 d d I G.c C N.N.b w c Z 9 M C.S.C.s 6 q v G.j M r 5 ~ v H V.T P.G.].( f.B x B L Y I N ^ / r M Y M.Z a V C.M.N.H.M.b Y G 9 i ",
"!.C.I W.E.E.B.I V.n J V.I K K J e @ % i / / I A D.J.d % 9 d b / R.G.m / U.w 5 H V.J.D.v V U B.K R..XXX|.#X#X&X&X#X'.f.S + 6 V Z G n c   + I H.M.P k 7 L F.c Z Z ",
"H E.oX].n B.P C.E.G.G.K.R.^.R S.K e e r ^.J.T.G.K.m r L C M P P B.G.C Q u j 4 O j V.H.H.V.n F.D.Y.|.&XhXkX+XqXkXkX+XXX#Xf.G P H.J.M.q X % Y z 3 0 g 9 f 7 Z T R.",
"q B.!.!.E.!.J.Y A.A.V.n m F 8 d d u 0 A F 6 I m M.n V C e r n M.B.U 5 V @ 9 e 9 J S.n M.N.v I.].%X+XqXkXkXuXkXAXjXqXhXgX&X`.b K.K.H z W T M     $ a % 9 K C.P G.",
"E.M.B.F c E.W.Y q 0 H d 3 w B.Z D C k ^ Q / H 9 v b y y 0 e y y v D D D # O 0 I P.S.f K M.S.^.#X=XqXjXAXSXSXSXSXiXhXkXkXpX$Xf.H.B.I j V K F 5 M / S U.U.U I V.K ",
"T.v m G.G.D.L c % 4 V.W.j 0 d 6 Q A.M.k s k j w F 0 O # 0 4 7 0 0 g l O s E / P.e i 5 f P J .X%XkXAXSXSXSXSXSXiXw.m.AXiXv.=X|.K.I p 5 s S.P.L d W ~ ~ S.~ A s a ",
"oXL B.B.T.E.!.P n u V.I.r C I /.W.y e y Z t 5 y C 3 O # F q 0 2 N _.A 0 + / /.I 6 5 Q J j ^ &X=XsXAXSXSXSXhXAXsXn.$XAXkXiXgX*X`.% 9 R U U F A.R.U.E d s ^./ F F ",
"oXF.V.!.P.B./.T.R.oXP.E.C u G.!.C.@ 6 V B.n K ^ ^ j 0 e f O y ~.fXBXE 0 i S.U U.S.Z.P.J 7 x.%X+XjXAXSXSXAX+XhXAXpXAXAXkXhX=X=X#XM J S.P.P.V k K M F W U.S.~ S.~ ",
"K.K q m ).E.V.C Z V.L.v J.P.H.M.K 6 W P.B.q A ~ F + o p U 3 ^.jXIXHXh 5 / /.G.R./ K d U A.=X%XpXZXAXSXSXAXXXpXkXkXAXkXkXpX+X=X&X< w G.S.V W ~ K S.F 6 U.^.U.~ K ",
"n K c 3 B.B.n C.G.3 u B.!.W.m n H Z T.R.V.^ Z.Z L r O M G.^.MXUXUXBXo.e Z.Q M U.A ^ U s l hX%XhXkXAXAXSXAXx.=X+XkXkXkXkXhXpX;X&Xz # r f 9 A d % A 7 S L.W S K F ",
"y P.).0 c n b D.E.C y v P I.F.b y M.H.n n n e a ~ P t I.(.ZXUXUXPXvX@.I S ~ @.@X0X^.P.D @.gX%X=XsXkXAXkXtX .o.iXkXAXkXkXhXgX=X*X( w % D U A.F.Z Z F.^.T F A U.C.",
"M.m H K O 8 4 c r 4 H r K T b r q J P.y @.^.~.^.fXdXOX_.MXUXUXUXFXvXOX0XtXfXtXv.8X(.I I ^.;X XXXkXkXiXd.;. . .+XkXkXkXkXgX+XXX*XY.p p / K F w T ^ F / G f A.S.Z.",
"t P u 8 v H.H.G.D.P.T.M % Y m 7 5 4 R.D.(.dX0X0XMXKXHXZXIXUXUXJXNXNXFXBX9Xl.0.q.OXW.U I /.;X X#XgXpXm.z.X...| -.gXkXhXgXpXb.+X%X( V K ~ S.I A v I K L K H V V U ",
"5 J r H B.!.!.!.H.!.!.W.G z Y Z % # Q E./.OX0XdXZXKXHXZXIXPXJXNXBXLXMXl.0.q.w.c.OXY A s U.*X X}.$XqXqXqX:X:X .| +XhXhXhXgX=X;X#XY.m C S.A.V.T $ a R Z g V W L.y ",
"Z.J 0 V.E.G.m P K.G.W.W./ I B.b r o % K V._.0XfXKXUXJXVXFXHXNXBXIXMXk.1.w.z.z.7X@.s M d ~ $X X{.}.+XqX7X:X:X| } _.pXgX=X+X;X%X'.M y 0 d Z.d 9 R % . O g p q s K ",
"y v E.T.J.r n T !.m C c A.W.H K J.r $ * h 7XPXPXKXIXUXJXBXxXNXPXGXc.1.z.n.m.7Xh @..XoX'.`.XX}.{.[.|.=X4X:X>X .| o.=XgX+X+X*X}.p.6 C q K w o I U a + @ + ~ L U M ",
"c b m Z P F.b E.!.R.n B.C.J f ~ V.P o.8XvXVXZX7XtXJXUXUXHXvXHXPX9X0.z.m.2X7X(.^.$Xf.B `.|.}.{. X[.[.$X-.>X>X .| | v.=X=X&X{.a.Y H j r I % + R Z / ~ K h ~ B.8 $ ",
"W.F.@ # E.oXI.T.G.Z.b / J.P 9 / ^._.8X2XPXKXvXtX%.HXUXUXHXJXUXsX1 k.m.9X_.~ /.#X'.R .X%X X X Xh.i.h.g.X.>X3X .| } x.&X X}.[.f.6 D S.6 O * % w k R.A.w / A 4 b K ",
"B.G.Y z B.K.J.c J ^.(.@X0X!.#.OXuXsXcXcXKXcX9XvX7XVXUXUXUXUXBXwXv.7Xv.N p K ! XXx W gX-X X X Xh.i.[.g.-.>X3X| | } +.h.[.[.f.A.Z.^ g $ s Z T A.k 6 r 5 % ~.C V d ",
"P q r M V V.B.c ^.fXDXZXJXMXuXcXaXCXcXGXCXCXsXtXwXJXUXUXIXBXvX7X@.@.U.T P J j '.B S gX-X X{.h.}.g.[.g.X.>X>X .| } %.i.a.( j e 7 i a R ^ L H 5 # % s w l a 7 k % ",
"q @ . D I ^ P.).fXLXLXDXcXcXCX2Xb.CXGXcXcXCXaXuXNXIXUXJXDXvXOXg . 8 / F d Z / `.`.T pX;X{.h.h.}.`.J..XX.:X3X .| } ..( ( a d $     + V 6 +     . D I C ! 6 o a d ",
"L C P H 7 9 K OXnXDXDXrX2X2Xm.1XtXFXxXl.cXcXaXGXIXUXUXIXHXyXR i   M ^ W A % z .X{.( .X;Xh.h.i.}.f.M.Z...>X3X .| }  .! ! W n Z 9 $ + V +   % p % Q y H R.Y A g ^ ",
"E.P M.V.L.q r _.4XbXbXl.k.m.z.k.eXBXxXl.aXcXGXIXUXUXUXUXPX0Xa + a ~ U.a a S G G `.'.`.].a.h.[.}.`.t s ..:X3X..| } | # o % p F.D.~.R 5 2 i s k ^ Z.u J f w ~ Z J ",
"R.C y V./.Z O e uXDXbXv.> 0.0.1 yXmXmXxXCXJXLXPXUXUXUXIXHXfX7X#.(.W W d N E S 9 O B }.'.'.|.}.'.Y.c ! X.X.3X..| } ..k s R % % w Q Z.7 Q ~ s + R Q 7 % o X $ k k ",
"y I J Q.!.G.0 A.VXPXHXuX1 : > { rXbXbXbXDXGXHXIXUXUXUXUXLXxXeX+XU.p G / T.m f j k Z.( f.g.j.g.}.f.y J.-...3X .| } -.h 6 % 5 # 7 y k k S.R.@.% i i ! i @ # i Q s ",
"L J.H.!.L 7 3 R.VXIXHXJX9X0.k.1XlXlXbXmXHXJXIXUXUXUXUXUXIXNXyXj.g..XU ( P u f U R.l H I ( '.`.XX'.`.J l | 3X .| | } + E k j s o 2 k M.y k l a 6 + s s s p R K g ",
"/ V.Z.G.7 #.=XpXMXIXJXLXIXcXyXyXlXlXbXLXUXUXUXUXUXUXUXUXLXxXrXx.g.XX! / S B B f.s.s.s.s.s.g.j.j.g.'.( R X.3X:X.. .@.A s k k p X i i 7 5 5 l P.K v S.A.k @.h # p ",
"f C H C I oXdXgXpXPXLXJXUXGXNXnXxXnXVXKXUXUXUXUXUXUXIXJXBXrXwXx.XXXXs.s.w.w.w.t.t.w.y.y.t.t.t.t.t.8.+XvXBXHXDX6XX.Z.^ # ! R.~.E ! l 2 7 i l I V.J K n 5 ! D v K ",
"@ O C A.R.R.J =X=XZXIXJXIXPXBXVXBXNXBXJXPXUXIXIXJXZXMXvXyXtXqX*X$X6.<.4.9.t.y.y.y.y.y.y.y.y.t.e.9.2.b.GXLXJXHXxX4Xh U.E R ^ Q J s i j C.V # g K k i u y ~ S.M.J ",
"L o O 5 e y 4 T .X+XJXKXJXIXHXGXFXFXBXFXZXHXJXZXjXkXhXhXhX;X*X$X6.<.4.9.y.y.y.y.y.y.y.y.y.y.e.9.5.2.k.GXHXLXLXDXrX@.j ~.R 9 j K F w C.E.B.^ n % p D A.J.V.J y J ",
"W.L K 2 Z.!.E.oX( ( uXKXLXPXKXJXLXFXBXBXNXNXvXfXhXgXgXgX;X&X$Xs.<.<.5.e.t.y.y.y.y.y.t.t.t.e.9.5.3.<.z.FXJXJXJXFXrX4X0 y P v u J v P M.n H ^ J k k y A.H.B.J J Z.",
"T.v S.2 t Z.q H T.Y.( sXPXLXIXJXJXJXNXnXvXzXtXhXgXgX;X*X&XXXq.<.4.4.9.e.9.t.t.y.t.e.t.e.e.5.5.4.2.<.b.FXHXJXJXFXrX8Xf w Q D Q T.!.H.M.j s s # f w 0 j M.J k y j ",
"F A.P.e X u P F oX].H.Y.sXKXIXVXeXJXxXxXyXrXpX;X;X*X&X#XXX7.<.e.5.2.3.5.9.9.9.9.5.9.5.3.2.2.<.<.<.1.9XBXFXFXBXxXrX5X% +   . M B.n m y 2 + +   o % a 2 C J E ! y ",
"u Z M.B.w j P.0XdXdXqX.Xx.+XCXZXsXFXxXrXwX=X*X&X%X%XXXf.- >.5.r.5.2.3.3.9.5.5.9.3.4.2.<.<.,.: ; ; { lXxXxXxXlX<X>X<X@.k 6 a I e 0 n y g % . $ X p Z.C q r ^ Q A ",
"Q.!.P.S.dX(.^.HXZXJXHXs.7.s.f.9XyXzXrX8X+XXXg.s.s.f.x - : 3.t.t.4.2.2.3.3.3.2.2.<.<.,.: ; = = - - - 4XrX5X>X>X .| X._.OX! ^.R.J 0 4 f Q a a A.y i Q V.C 0 0 5 # ",
"C P U ).JXdX@XPXJXJXCX1 7.s.d.d.l.OXb.XXd.d.d.7.> , - x 3.e.r.9.,.<.2.2.<.<.,.,.,.>.; = ; ; ; ; = = < [ -.X.>XX. .} >XbXfX_.E w 3 % # #   + K P.M f y e @ o . X ",
"F c 5 ~ ZXZXdXPXPXPXGXl., q.7.s.7.d.7.s.j.j.d.7., , x i.3.e.4.>.: >.,.<.,.,.,.<.: : ,.<.2.<.<.>.: = = o...:X:X..| | } 3XNXeXg o X % @ . @ i Z.! F F 5 3 2 o $ % ",
"H m L A MXUXZXJXUXUXJX+X> 7.7., , ; ; u.n.d.s.7., s.'.i.9.8.1.1.,.>.: >.,.,.>.: ,.4.5.5.5.3.2.2.,.: = _ } | | } | >XX.6XNXyX@.6 i R h % e S.K 5 ~ E + # 7 f P G.",
"G.H.oXI.qXIXUXUXUXUXKXsX, ; , , ; ; = , 7.7.q.7.> p.}.8.e.9.e.8.<.<.<.<.,.>.,.3.5.9.9.9.5.5.2.<.<.>.= & & } _ o.=.wXwXxXnXyXo.o + M V A l ~.7 @ k A g j 0 C k w ",
"y H.!.!./.VXUXUXUXUXiXw.>.; > , x x , , , , 7.7.; s.}.9.r.r.9.4.<.2.2.<.<.2.3.5.9.5.e.9.5.3.2.,.,.: ; = -   B g.OXzXnXnXvXrX;.X i K U P k @ 6 l p g D p % i i 2 ",
"V.J H.B.k 0XIXUXUXGXd.e.2.,.<.6.a.g.g.a.a.u., > > p.j.9.e.e.3.<.2.2.2.2.2.3.5.5.9.9.5.5.4.q.q.k.1 1.: : > ) { XX.XrXzXvXzXwX4Xk S.Z.C V 3 # K S.M X . h l l D V ",
"s 0 P OXfXnXFXJXJXsX4.5.4.3.5.u.'.|.|.|.$X#X|.g.g.|.g.9.e.3.<.2.5.d.9.2.3.3.3.5.5.5.4.4.k.v.,X,X:.*.+.0.1 [ { g.XXwXyX9X7X<X_.C I ! 0 5 o @ F.E.f   o * % g U.V.",
"S.u S.fXHXnXxXNXBX9X<.<.<.8.e.6.'.|.%X*X*X%X%X%X%X%Xh.3.e.2.<.2.b.vXaXb.b.aXz.5.5.4.1.*.,X1X8XwX8X1X,X:.+.&.$.g.XXv.OXs.&.<X_.Z.K S.e o % l J B.H l E K p 6 k 7 ",
"Z.S.k (.(./..X0X7X#.,.,.: <.5.6.'.'.%X-X X%X&X%X%X%Xg.3.3.2.<.2.b.uXtXzXxXnXNXiX8.<.l.,X1XwXeXeXeX8X7X1X:.=.+.f.XXg.p.s.#.5X^.0 K s w A J J ^ n c ~.S.S.~ ! 9 X ",
"O V 7 R.K.D.m v Z 7 z 1.>.>.4.6.a.}.}.'.}.%X%X%X%X#Xg.8.2.<.,.q.eXaXaXxXxXaXuXMXaXq.*.:.1XeXeXeXeXwX8X8X1X,X&.s.s.u.B +.<X7XP.y l + . s s f D g p g R a # D D @ ",
"U ^ L.oXG O 4 5 K A.F N B , ,.<.p.'.}.}.|.%X%X%X%X|.'.8.2.,.,.z.xXeXaXaXuXaXaXtXnXuX;.:.1XwXeXeXeXeXeX8X1X,X=.' < N O.-.3X@.k s i 2 o @ O s s i j e @ + X 7 5 @ ",
"P.R.F e H C c 3 0 C.R.R.T.J.( <.7.g.'.|.#X%X#X%X|.'.a.6.<.,.>.q.eXuXeX2XuXaXiXaXuXnXxX=.,X1X8XwXeXeX8X1X1X,X,X$.$.` %.<Xh f j 7 6 ! S.F 5 s i s 6 @ f ~ i i i + ",
"0 y D A /.).W./ d T P V 3 y y , , a.a.'.}.|.|.|.|.'.a.i.,.,.: : v.9XaXuXnXnXaX9XuXrXnXeX*.,X1X8X1XwX8X1X,X,X$.,X%.[ O.@.6 5 A D J A./.A h l i + X @ k D D ~ R i ",
"! e K S./.G.v Z L.W.I 6 w 9 V M , s.a.a.'.'.'.'.'.a.p.p.,.: >.; < v.aXuXnXBXMXeXuXzXrXNX1X=.:.1X1X1X,X,X,X,X&.%.$.] o.s   + V p g L.E.P y K Z.D 6 g ! l K V D ^.",
"^.k 0 C J n H $ 3 c S U I C.oX].Y., a.a.a.a.a.g.'.a.p.p.7.>.: > = < 1X9XvXBXBXnXNXzXrXyXxX=.=.:.,X,X,X,X,X&.$.$.O.[ o.j + o r s 7 G.D.B.A D Q I D p # % E # i @.",
"e 5 j 0 p 4 A.~ S @ O 8 9 b K.].P z f.a.p.p.a.p.p.p.p.u.u.,.: : ; = 1 :.rXvXmXvXbXzXrX5XxX<X$.%.,X=.=.=.$.$.O.O.[ ` ] k l # w / D / M.E ~ V.m v # o + p h j M @.",
"^.0 J J 5 o 3 Q /.M . + $ o N.Q.c z J.a.p.p.u.p.p.p.u.p.u., : >.; = = - #.6XzXvXvXzXrX5XrXeX$.$.O.$.$.$.O.O.[ [ ` ] h 7 g A r k f J v 7 j n v n n V w g A Q W M ",
"U./ W.E.G + o f I.L.3 D D w P G.D.K.Q.`.f.p.B +.p.u.p.u.u.u.> : : = = = - < wXlXzXzXlX6X6XyX:.[ O.$.O.O.O.[ [ _ ` ] K y J K k C k w 4 j J n P G.H.D.F.v y F A.I ",
"S ~ V T./.% X C P ^ C.R.).V.c L ( `.K.K.].f.o.:.v.x.f.p.u.u.u.> : ; = = = = < 4XrXzXrX6X5XrX<X_ _ [ [ [ [ [ [ ) * o.C C j p E V.Z.Q 0 R D 3 9 # $ q C.D D ! I S.",
"j S.f P ].Y.9 % % p K B.L.].K.L Y D.I E.!.].#.:.1X1Xv.f.f.p.s.< > : = = - - * O.6XlXlXwX5X6X8X_ _ [ [ [ _ _ ) ) ` o.V g 9 g U.G.J J e # i g +   o f P P ^ J Q Z.",
"% F I F./.oXL.w d 0 I L.V J.].K.Y.].D.P.U J.D.#.,X8X8X1Xv.+.$.&.&.< ; ; - ` ) ) %.6XrX6X5X5XwX_ ) ) _ _ [ _ ) ) ' @.R 7 5 D U.J k k # o 7 p +   + g F 0 G.B.V.V.",
"+ + + 6 0 Y P u Y D.A.W.C.M.D.!.].K.G W.G.P.A.C.#.=.<X1X1X,X,X,X,X*.{ < [ O.[ ' ` :X1X6X5X5X<X[ ) _ [ [ _ [ _ _ _ ) ] o.M E g $ f Q w O # 5 7 # w R i o 2 5 e n ",
"8 @ s % o r J.F.H.Y ^ C.q q b m D.G c D.r C J 4 i #.*.,X,X,X1X,X,X,X,X&.,X,X$.[ [ ` <X5X5X6X6XO.[ %.=.&.$.O.[ [ _ ) & [ 7XS.% o 7 # @ O # e k k y J k 6 o . o % ",
"S.k S.U.0 r B.J.v 0 5 J R.T.Y n F.W.!.K.J.W.c c K I #.;.&.&.*.,X,X,X,X,X,X,X,XO.[ [ [ >X5X5X<X>X&.=.=.%.$.O.O.O.` ) ) & wX0Xf 5 g # o j f u s s 5 j U ! g l E i ",
"! V.!.oXoXP B.L c K K J D.G.H.N.H Y I.].K.M 8 D.V.E P./.:.$.[ [ $.$.$.,X$.$.,X&.[ ` ` ) %.<X<X$.$.$.O.$.O.O.[ [ [ _ & ) wXNX_.5 D g o # 2 k e # o 6 j l ! E D g ",
"0 Q Z P !.!.L./ U P.J.U v q m P C D.K.I.E.D.W.M.u A.R.R.D @.@.O.[ [ [ [ [ O.[ O.[ ` ) & & ) ` ` ` ` [ [ [ O.[ [ ` ) ) [ yXNXxXN + + s p + + f k j o # ! R p i ! ",
"S.W./.v P E.V U Z y V.K % 0 Y w Y L.W.T.T Y W.F.S.R.V.y J E.!.U.N @.O.O.` ` ) ) ` ` ) & & & ) ) ) ) [ [ [ [ [ [ _ & ) >XxXFXJX0X% % ~.~ h @ y y E p O i i + i l ",
"oXoXS.e u V.T K.c q j C 5 O P y Z W P.F.I F M p V S.~ Z / ~ / V.L W.P./.@.@.@.o.* o.' ' ' ) ) & ) ` [ [ [ ` ) ) ) ) %.wXBXIXIXBX(.^ F k s E A.j h p % h ! s g ! ",
"k e H Z D V L F.A.q j V.G.K b r c T K.H.J.G % f F.L.^.V.V.T.R.E.V.P.m B.F f S S e N N N * ) ) ) ` ` ) ) ) ) ) ) i o.4XxXIXUXUXJXqX~.U.R.U.R.U.J % % o # l ^ ^.^ ",
"~.g V.Q.Q./ R.P.I @ D G.Q.W.S P.K.E.T B.m / D.G.P.T P.n P.!.^.S.E.E.y r Z.S.V V 6 p f c K N o.o.] [ [ o.] * @.U.S.@.yXPXUXUXUXPXfXd 0 I U Y F v V U Z s R K ~ R ",
"D R.H m n L K I Z G K k J.G.P H.I.m m J.S Y.E.P G.E.E.J V.A.W.F.V Z F V I D S.g A E Z.C n S.U.S./ /.U.U.W M L.I.!.OXFXUXUXUXUXIXFXOXr 8 V F / v C C Z I /.k 5 g ",
"4 !.G.w w C 0 f w L I.W.J.K.H.G.F.T ].Y L./ I f U K.W.P.C.Z P.A.L.M 6 L.R.f I g R.W.^ f k L A J P.^ ~ Q S / T.E.(.fXJXIXUXUXUXUXJX0XT I T S d 6 A I E.T.U.T i W ",
"D D S # # % c n M q Y J.b L $ z Y.W.].Y E G P.P.K A.I.T.I.T.K w Z K S.S.Q M N ^.R.Z.S.j $ O o f ~ ~ D Q I.oXoX0XMXJXJXIXUXUXUXUXJXfXT.G.W.Q.Y S M E J.J.G S M W ",
"P.V J f 3 6 W.G.U G K t y u 8 b Y.D.F.A o F !.H.J.W.T K.Y /.F.L C.W.).L.p M ( U.Q 6 I W.c 9 0 g R A R o.qXZXZXLXIXUXPXPXIXUXUXUXJXfXk P F.E.P.U G.^.I.K.K.M M R ",
"2 D G.K.I.c S G.F.I.Y.c w B.].].K.T / F.T ).Q.Q.T.M I C.C.E.G.G.H U T./ ^.G I.W.T./ R.K.J.L.~ ~ R ! 0XZXLXHXLXUXIXHXHXIXUXUXUXUXHXtXP.P.F V I / V.A G G.G.G M R ",
"o k V.!.I.S T D.W.K.D.b z z T / T b z H.I.oXQ.H.U G Y P.C.A.G.Q.K.V.V g a 8 z Y B.S.Q L T U.U U P.).vXBXBXPXUXIXVXFXUXUXUXUXUXPXMX_.S.H.D.B.G ~ R.P.S S m L.R.G.",
"2 e M.H.J.R.K H F.Y n m c 8 8 Y W.J.I T.Y K.M.k M M Y.C.C R.P.W.R.!.P.L $ ( G % e e % q L I d S.K D (.0XzXNXBXnXnXJXJXJXHXFXNXuX_./.R.Z.u D.T.F a a d M c D.C.C.",
"^.S.W.m E.].E.V C L C T.J.G ( !.L $ 5 G.Y.E.C.j b $ 8 M C T.].T.K C Z N.D.`.Y.L.G.w G R.L I V.V.r c m M o._.0XOX_.yXtX7X4X_._.R.0 U U.P.w w S./ 6 W W % % S I.U.",
"k j 7 5 y P G.P G P L n T L.W.v 6 8 J.K.m Y.R.A.T W.L.G I.Y.T.D V G.T.n B.F.L.Y.K.!.).U.L.F C J B.b 9 6 % V E././ W #.W A V.A.P.T R.(.T.G Z C.L M I M   . V I.F.",
"7 v V./ H P U I T H T Y H U.K.c z c F.P q z 3 3 z J.E.F.5 d P.A.T Y C.E.W.W.Y.L B.W.^.^ F S G P.K s Q / r % Z V g ~ ~ M J.].R.C r ^ P.R.F.J.F.M W f o $ d D.D.T.",
"V 5 L W.R.T K r V.V C / M d I.E.F.L.I t c m m ( ].Y m Z $ P.].H.I.W.T G.S.!.L.G.I U.W.C.8 d ( L.K 5 F !.m z r D K g A d P.S.s j k K S.f c D.T.M p f # d T T V V "
};
