/* XPM */
static char *d73821abb89549cedcdcf55b85368cab7CHHoDddliXa98w1[] = {
/* columns rows colors chars-per-pixel */
"64 64 256 2 ",
"   c #060B04",
".  c #0E170D",
"X  c #253535",
"o  c #111E22",
"O  c #06580B",
"+  c #086906",
"@  c #136B06",
"#  c #0E7205",
"$  c #187604",
"%  c #167619",
"&  c #0F6C16",
"*  c #24790C",
"=  c #0A7529",
"-  c #167633",
";  c #14722D",
":  c #247C37",
">  c #22772C",
",  c #0F592B",
"<  c #5C5B04",
"1  c #675A04",
"2  c #516C11",
"3  c #6A6703",
"4  c #756402",
"5  c #7C6A03",
"6  c #796608",
"7  c #786A18",
"8  c #75721A",
"9  c #6D6B15",
"0  c #72712D",
"q  c #6E5A24",
"w  c #275D7F",
"e  c #6E794B",
"r  c #5A6D70",
"t  c #8D7603",
"y  c #947B02",
"u  c #987E03",
"i  c #917500",
"p  c #816D07",
"a  c #806E2A",
"s  c #1D821B",
"d  c #268238",
"f  c #1F8125",
"g  c #589C05",
"h  c #529915",
"j  c #689D04",
"k  c #649A19",
"l  c #5CA105",
"z  c #5CA715",
"x  c #63A403",
"c  c #69A806",
"v  c #75A804",
"b  c #69A516",
"n  c #76A715",
"m  c #79B105",
"M  c #4E982B",
"N  c #67AA27",
"B  c #75A423",
"V  c #74B639",
"C  c #65A12D",
"Z  c #328747",
"A  c #64AA49",
"S  c #77C269",
"D  c #9B8103",
"F  c #A68D05",
"G  c #AC9404",
"H  c #A69001",
"J  c #B19603",
"K  c #B49B02",
"L  c #B0930B",
"P  c #83B108",
"I  c #96CC0B",
"U  c #9CD605",
"Y  c #99D506",
"T  c #97D917",
"R  c #8ECD13",
"E  c #A5DD02",
"W  c #A9DF01",
"Q  c #A2D708",
"!  c #A3D918",
"~  c #B1DF17",
"^  c #A9E101",
"/  c #A6E001",
"(  c #97D827",
")  c #8DD32F",
"_  c #A8DB29",
"`  c #81C55A",
"'  c #085492",
"]  c #395C8D",
"[  c #156C99",
"{  c #346A97",
"}  c #3754AB",
"|  c #136FAC",
" . c #396EB0",
".. c #455891",
"X. c #4A6690",
"o. c #657985",
"O. c #744AAF",
"+. c #7976AF",
"@. c #565DA5",
"#. c #7F3DC2",
"$. c #0573CA",
"%. c #744DCA",
"&. c #7D7FC4",
"*. c #8350AF",
"=. c #847EAF",
"-. c #863DC5",
";. c #8849C9",
":. c #8A7DC5",
">. c #1A93B5",
",. c #5191BD",
"<. c #6F8AB5",
"1. c #5EA3B7",
"2. c #70ABBC",
"3. c #709497",
"4. c #0888D7",
"5. c #128ED1",
"6. c #2692D4",
"7. c #16B2D3",
"8. c #27B5D0",
"9. c #068AE8",
"0. c #0793ED",
"q. c #1695EA",
"w. c #0998F3",
"e. c #0B93EE",
"r. c #18A8EC",
"t. c #05ADFD",
"y. c #07BCFA",
"u. c #16B8F9",
"i. c #0FB2EB",
"p. c #24B7F6",
"a. c #30AFED",
"s. c #2A93E4",
"d. c #5686CE",
"f. c #5887CE",
"g. c #5689CD",
"h. c #5989CE",
"j. c #568AC1",
"k. c #5B93CA",
"l. c #5C8DD1",
"z. c #5689D1",
"x. c #5D91D3",
"c. c #5B98D9",
"v. c #4F88CF",
"b. c #608FD2",
"n. c #6394D4",
"m. c #6699D6",
"M. c #6B9CD6",
"N. c #6C9DD9",
"B. c #6697D8",
"V. c #739DD7",
"C. c #6D8FC8",
"Z. c #57A7D6",
"A. c #58B6D9",
"S. c #4FADCD",
"D. c #6EA1D9",
"F. c #6BA3D8",
"G. c #72A3DA",
"H. c #77A6DB",
"J. c #64B6DA",
"K. c #76B6DA",
"L. c #6DB4C9",
"P. c #5AB1E9",
"I. c #76ABE4",
"U. c #79ADE6",
"Y. c #77ACE5",
"T. c #7BB1E6",
"R. c #7CB2E9",
"E. c #7DBAEC",
"W. c #75B6E5",
"Q. c #69B4E9",
"!. c #6395E1",
"~. c #30CCD3",
"^. c #06C8FB",
"/. c #17C6F9",
"(. c #13C8ED",
"). c #23C8F5",
"_. c #2FCAF4",
"`. c #1CC4D3",
"'. c #5EC2DD",
"]. c #7AC8DA",
"[. c #74C8D4",
"{. c #58C4EA",
"}. c #59CAF4",
"|. c #50D0F5",
" X c #64C5E4",
".X c #65CAF4",
"XX c #67D6F8",
"oX c #78D8FA",
"OX c #74D1EB",
"+X c #54EBFC",
"@X c #6DE1F4",
"#X c #4DD3B2",
"$X c #908F8F",
"%X c #848CAE",
"&X c #A690B2",
"*X c #9EA7A4",
"=X c #91C0BA",
"-X c #C4C6B6",
";X c #8C97CA",
":X c #AA92CB",
">X c #AF96DD",
",X c #82B5D7",
"<X c #81B6EA",
"1X c #83BAEC",
"2X c #8ABEEB",
"3X c #84B6E6",
"4X c #8CBEED",
"5X c #B4BDC8",
"6X c #86CAD6",
"7X c #91CBD7",
"8X c #ADD3D8",
"9X c #86C1EC",
"0X c #8CC3EE",
"qX c #8AC7E7",
"wX c #92C5EC",
"eX c #95CBED",
"rX c #99CDED",
"tX c #95CAE3",
"yX c #9CD2EF",
"uX c #97D5E4",
"iX c #8AC6F1",
"pX c #98CDF2",
"aX c #86D7FB",
"sX c #9CD3F1",
"dX c #99D8F6",
"fX c #87D6E8",
"gX c #A1CEEE",
"hX c #A5D6E8",
"jX c #A3D5F1",
"kX c #AAD6F1",
"lX c #A4DBF5",
"zX c #ABDCF5",
"xX c #A4DCFB",
"cX c #B2DCF4",
"vX c #B4D7F2",
"bX c #B4DAE7",
"nX c #93E1F3",
"mX c #ACE2F6",
"MX c #ADE5F8",
"NX c #A7E1F6",
"BX c #B3E3F6",
"VX c #BBE4F6",
"CX c #B7E6F9",
"ZX c #B3E2E9",
"AX c #C5DCF2",
"SX c #C5D5EC",
"DX c #C3E4F6",
"FX c #CCE4F6",
"GX c #C8E7F9",
"HX c #D3EBF9",
"JX c #DAEBF9",
"KX c #D4E6F7",
"LX c #D3F1F3",
"PX c #E2ECFA",
"IX c #EAF5F4",
"UX c #CCD0CE",
/* pixels */
"MXMXwXm.I.<XE.<X1X1X<X4XlXJXPXkXB.z.d.f.f.z.d.d.z.d.d.f.d.m.kXHXBXNXeXn.I.1X<X1X<X1X<X9XzXJXPXjXB.d.f.f.f.z.d.d.d.f.b.h.d.n.kXJX",
"NXrXM.g.n.Y.<X<XR.R.Y.R.2XcXFX4XI.B.z.f.z.f.d.d.d.d.f.f.h.M.rXCXNXrXM.f.n.Y.E.<XR.I.3XR.2XcXFX4XI.n.l.f.d.d.d.d.d.f.f.z.h.N.jXBX",
"yXD.g.d.d.n.R.Y.x.l.l.l.m.pXkXV.I.R.I.B.l.l.l.l.b.b.l.B.I.R.2XlXsXM.d.d.z.n.R.Y.m.n.n.l.m.rXjXV.Y.E.Y.n.l.l.l.l.l.b.l.n.Y.R.2XlX",
"yXm.d.g.d.n.I.n.d.d.z.z.d.N.wXN.x.Y.<XR.R.R.R.R.R.R.R.R.R.I.M.eXyXm.d.f.f.n.U.n.h.d.d.f.h.G.wXM.l.Y.1XR.R.R.R.R.R.R.R.R.R.I.V.wX",
"yXm.d.d.h.Y.R.n.d.d.g.d.d.l.1XeXV.b.Y.<X1X<X3XR.R.R.R.R.B.l.d.D.wXm.d.z.l.U.R.n.f.f.f.z.d.x.2XwXV.b.Y.1X1XE.<XR.Y.R.R.E.B.z.l.B.",
"yXM.d.d.n.R.1XU.n.l.g.g.d.l.R.VXAXV.B.R.1X<XT.m.l.l.n.Y.W.x.d.m.wXm.d.z.n.R.<XY.n.z.z.d.d.l.3XBXAXV.B.R.1X<XU.n.l.l.n.Y.Y.x.d.d.",
"lXR.n.n.Y.E.<XR.R.Y.n.l.l.n.2XFXKXgX1X1XE.Y.n.d.f.d.d.n.Y.Y.z.G.rX3Xx.x.Y.<XR.R.R.Y.n.x.l.n.0XFXFXgX1X1X<XY.l.f.f.g.d.n.Y.Y.l.n.",
"lX9XT.T.1XT.n.n.Y.R.I.I.T.2XjXzXwX0XsXsX2XG.n.g.d.f.f.f.n.Y.G.rXlX1XR.R.1XY.l.n.Y.T.Y.I.Y.2XjXzXwX4XsXsX1XG.n.z.f.z.f.d.n.Y.H.wX",
"sX2X3X1XU.n.g.d.l.l.h.n.1XlXsX<XR.<X2XiXpXsXrXM.d.g.g.g.m.3XjXCXlX1X<X1XI.n.d.g.l.x.l.n.3XdXyX2XR.1X9X0XrXsXeXM.d.d.d.d.m.2XjXCX",
"iX1X1XU.n.f.z.g.f.f.f.m.2XrXN.n.R.<X<XY.G.rXmXrXD.n.n.F.rXBXJXFXpXE.E.Y.x.g.g.f.f.d.f.m.2XrXM.n.<X1X1XY.D.rXMXrXV.m.m.D.eXcXHXJX",
"sX0XR.n.f.d.d.d.d.d.M.eXsXR.l.l.I.1X<Xn.d.m.rXBXAXbXsXyXlXzXDXVXlX0XY.n.d.d.d.g.d.f.M.rXyXT.h.b.U.1XR.x.g.M.rXBXAXvXyXyXkXzXFXDX",
"MXlX1Xm.m.n.n.m.n.D.rXmX2Xn.f.f.n.<XU.n.d.d.M.gXJXHXoX.XE.<X2XpXmXkX1XB.n.m.n.n.m.D.rXmX2Xm.g.h.B.R.T.n.d.g.M.gXJXHXzX9XE.3X2XyX",
"sXMXlXkXkXkXjXkXjXsXVXFX3Xz.d.f.n.U.1XR.c.x.z.F.kXzX.Xy.y.}.P.p.oXmXxXzXkXkXjXkXyXjXVXFX3Xh.d.g.n.R.<XY.n.f.d.V.kXzX2XI.n.l.l.n.",
"N.eXBXHXPXJXVXGXCXCXHXKX2Xn.l.B.W.E. X X X'.{.'.OXiX.Xy.y.y./.P.p.fXMXGXJXJXVXHXMXCXHXKX2Xn.f.m.Y.1X1X1XY.n.z.G.sX9XY.n.g.d.d.g.",
"f.m.pXVXJXPXCXhXsXsXzXzX0XE.<X X XJ.0 9 9 8 8 8 0 L.J.P.u.t.t.p.L.V V V ` SXVXjXyXyXkXzX0XE.R.R.R.R.R.R.R.U.2XsXsX<Xn.f.f.d.z.f.",
"f.f.M.yXVXHXjXM.n.n.G.sXdXK.K.e 8 9 D H D G J J J a 0 <.C.p.!.C.k R T R R S hXM.n.n.D.yXzXlXlX9Xn.l.z.z.n.4XDXVXiXY.b.h.z.z.g.f.",
"f.f.n.1XzXzX1Xn.l.z.B.E.L.q ;X&XJ J K K L D J K K K G 7 7 <.a.:.X 7.(.7.X >..X!.l.z.B.1XsXjXyX0XN.n.m.n.N.wXvXvX0X].m.f.f.f.g.f.",
"d.n.R.iXsX9X<XR.R.R.E.L.9 7 &Xa K K K K F i u u L K K G 5 7 <.&.+.Q.u.^.|.' 7.].U.R.R.<X<XM.n.N.pXvXSXkXqXM.m.R.6X].x.d.g.d.g.f.",
"n.3XdXsX2X<X1X1X1XE.L.8 7 &X:X7 J K K u J K J u D y y K F 4 & @ X %XuXuX(.8.( ) 3X1X<X1XT.l.d.n.gXHXJXgXM.d.z.[.sXT.n.g.d.d.g.f.",
"2XlXzX2XR.R.R.R.R. X0 H 7 :X:Xa J J u J K K K K J J D y p 4 j x I ! ~ ! T T / E A R.E.1XR.n.z.d.V.zXgXM.d.x.].uXE.E.I.n.x.x.f.l.",
"BXHXvXm.z.l.l.x.l.x.8 H 7 :X:Xp y D D K K K K K K K F 5 t 5 j m Q E E E ^ / / E V k.R.1X1XU.n.l.F.eXF.d.g.].uXT.<X<X<XR.T.I.N.R.",
"CXPXAXD.d.d.d.f.v.0 G D 7 :X:X7 H D J K K K K K K y p 5 F 3 @ l E U $ g I / ^ U A j.m.I.R.<XY.E.sXrXx.k.].uXT.E.R.R.R.R.E.2XjXzX",
"zXHXVXyXM.f.f.z.f.7 G i 7 :X:Xa G D K K K K K K y 5 F 3 3 $ + $ Y Y $ $ $ I Y C k.g.d.f.n.R.2XwXBXkXG.].uXT.<XI.n.l.l.n.U.wXDXmX",
"0XyXjXNXrXM.f.g.0 L u i 6 &X:Xa H D K K K K G p 5 F 3 * x x x g x x I ( N % - 7._.}.m.m.N.9XdXmXJXDX6XhX3XT.I.n.f.z.f.f.m.rXjX0X",
"T.m.M.rXmXyXD.M.8 J D G i 7 :X&X6 y K K J y p G J y * Y Q Q c # + # f 7XnXtXc.u.oX@XdXpXsXsXsXcXDX7XhXMXsXG.l.f.f.f.f.g.G.rXG.I.",
"T.n.f.V.rXlXyXtX8 G D K G 7 :X:X7 t D L p 4 i J u 6 I / W Q $ O o S.g.B.pXBXiXp.aX@XiX9X1XU.N.R.7XuXyXNXBXrXm.f.d.z.f.M.yXwXn.h.",
"1XU.n.d.D.yXwXe i u D K J p &X>X&X6 4 p i 4 4 3 3 v E / W Q     k.}.c.d.V.sXqXp.oXXXE.I.n.z.x.6XuXM.G.zXGXCXrXN.n.n.N.rXeXM.g.h.",
"2XR.h.d.n.rXqX9 i u J K K G 7 &X:X7 t G u 4 < @ # Y / E W I   o p.`.A.d.n.rXfXa./.W.H.x.z.h.6X8Xm.M.rXlXzXzXlXsXsXjXcXAX,Xb.h.n.",
"1XR.l.d.D.jXjX8 4 t u G K G 4 7 &X&X8 1 4 1   + g U ^ E E c . +.%Xb N S.N.lXxX|.a.c.k.d.g.6XhXM.m.eXdX0X<X<X<X0XxXcXDXcXjXeXG.I.",
"iX<Xm.F.pXDXHX8 4 6 4 5 y 5 4 t 0 ;Xi.o       O $ x U / Q j . %X_ E T [.pXfXDXhXqXK.n.x.,X8XT.n.G.3X3XI.n.l.b.I.E.2X2X0XjXlXsX0X",
"sXlXjXsXmXAXSX0 4 t 4 t F 3 3 1 o 4./.%Xq     @ h $ c ^ E b +.B / / / ) uXZ R ( 3.hX2.6X8XiX1XR.B.l.x.l.f.d.f.z.n.I.Y.T.R.2XlXlX",
"pXlXMXkXsX,XV.L.9 4 4 5 6 $ $ @ , 4.(.0 $Xq @ j U Y E / ! *.:.n U ^ ( ~./.3.* # & *XUX8XlXmXmXrXm.f.h.f.h.h.l.z.l. Xn.n.x.N.jXVX",
"zXNXrXG.U.<XR. X0 3 3 c U Y I c # = 5.2 6 < # c E / / E n -.-.=.b ) ~.oX).1.k l $ e &XUXK.HXJXjXm.f.h.h.h.h.k. X@X'.f.f.d.B.kXHX",
"mXrXM.f.b.Y.1X<XW.: g n T ^ ^ Q c z >.o < @ + c E / / T C *.-.O.- ~.PXMX/.= # Y U v A ;X8XVXKX4XU.n.l.h.k.'.OX@X'.g.d.f.l.m.sXBX",
"jXD.d.v.z.n.T.Y.B.k.Z 6X8.( W E E Q b + + O . g U / ) `.i.%.-.#.O.IXIXdX(.= # v E Y % 1.L.eXjXF.Y.E.I.[.OXOXfXfXx.x.l.n.Y.R.2XlX",
"yXm.d.r.t.P.I.m.h.g.P.oXr.X.U ^ W ^ E c #     @ n ( 7.w.^.u.%.-.;.IXMXq.4.% Y Q m x - d.v.M.0XG.B.].].].uXyXR.E.T.T.T.T.R.Y.F.wX",
"yXM.v.t.t.r.Y.m.z.d.}.r.' X.! E T / / U b O.O + 3.;X0./.iXq.%.-.%./.^.w.4.; c U R f ,.z.d.x.9X].[.].uXhX1X9X1X<XR.U.R.E.B.l.f.m.",
"sXD.d.p.oXq.6.I.n.l.Z.5.[ k Q T #X_ / / U *.O.+ ; $.w.OX@.} #.-.%.y.w.9.e.=Xf f d j.v.d.g. X6X6XbXuXN.<X1X1XY.n.l.l.n.Y.Y.n.d.d.",
"kXE.n.OX).^.4.6.W.Y.n.b.x.: l ! LXIX_ / / n O.+ + 5.y.u.} ..O.-.%.y.0.9.P.9XR.I.Y.Y.n. X{._.LXVXDXgX<X1X1XY.l.f.f.f.f.n.Y.I.h.n.",
"lX2XR.aX^.^.y.5.Y.T.I.H.K.L.* h ~.xX8X( T T b + # h 5.e.....B *.%.e.0.w.P.Y.n.m.W.].6X].+Xu.LXmXwX0XsXsX2XD.n.z.d.f.z.g.n.I.G.wX",
"sX9X1X}.^.y.i.>.l.b.x.[.( ! x % { sXdX).i.p.<.@ g $ M 5.] r ) O.%.$.q.Q.Q.m.h.[.[.6XuXuX.Xp._.E.<X<X1XiXrXsXeXM.d.d.d.d.m.3XkXBX",
"iX1XE.s.^.^.' [ f.z.L.( / E W R ..@.iXe.0.y.C.@ x g $ b T ) `.= & o.5Xo.J.,X,X6X8X7Xk.M.2XeXF.n.R.1X<XY.G.rXmXrXD.n.n.D.wXBXHXJX",
"jX0XR.{.4.i.' ' z.1.( ^ ) 8.) Q r } 6.9.9.p.<.> l x $ l ) `.^.R Q -X$X*X=XpXzXuXk.h.M.wXsX3Xh.h.Y.<XR.n.g.N.rXBXAXvXyXyXjXmXFXDX",
"mXlX9X}.4.t.' [ k.N E ( 7.t.| ) ) ..} 9.u.N.I.,Xs l l = 4.t.(.( ~ UX*X&X@.iXaX).x.M.rXmX2Xm.g.g.n.R.R.n.d.d.N.gXJXHXzX0X3X3XwXyX",
"jXNXmXOXq.$.i.[ N E ! bXpX3Xr.$.[ M w ,.N.P.z.D.% # M 4.t.).HXo.R *XUX*X .i.w.w.sXjXVXFX3Xb.f.g.n.R.<XY.n.f.f.N.zXzX0XY.n.x.n.n.",
"G.eXCXVX[.M | ' Y ^ ! hXcXdX^.9.4.% ; ,.Q.!.f.F.= + 5.t.).IXIX@.I P UXa.0.0.0.a.MXCXHXKX2Xm.h.n.Y.1X1X1XY.n.l.V.rX0XI.n.x.f.d.d.",
"g.M.fXV ! R | [ R ^ Y b C 7.^.0.9.J.OX+XXXU.2XrX% + w.p.LXIXs.{ ! v *X8Xq.q.a.sXsXyXlXcXwX3X3XT.R.R.R.R.R.U.2XpXsX<Xn.g.f.f.g.d.",
"f.f.A.z U P b k m c b % & - i.e.q.|.+X+X|.9XDXZXs h `.aXdXr.} ..n R > 3.1.vXjXN.m.n.a.dXaXmXjX9Xn.z.l.z.n.4XDXVXiXR.l.d.g.f.d.f.",
"g.f.Z.d 2 v v n R N 1.P.J.A.|.9XF.+X+Xr.r..XvXvX% x N /.t.9...2 > ,.Z.3XlXcX2Xx.z.z.a.VX|.dXsXwXN.n.m.n.M.wXvXvXwXU.l.f.f.f.z.d.",
"f.n.R.].> c v ..i.(.u.P.Q.XXXXG..X+X+Xe.w.|.M.U.d g h `.4.] g O  .B.R.iXsX2XE.R.R.W.P.q. .a.c.V.pXvXSXkX0XM.m.3X1XR.l.d.z.z.f.f.",
"n.R.sXdXJ.b I X.w.$.| M | aXP.h.6.4.|.e.r.}.v.B.W.: = = , , & - B.3XsXsXiX<X<X1XE.1X.Xu. .k.d.x.gXHXJXgXN.d.d.n.R.R.n.d.d.f.z.d.",
"2XlXlX9X{.s Y T X...] + ; {.Q.g.c.6.|.w.Z.Z.v.n.R.W.K.k.k.h.d.x.3XzXlX1XR.R.R.R.R.E.E.).).x.d.d.M.zXgXM.d.d.d.n.R.<XU.n.l.l.f.z.",
"cXHXvXF.A.= $ c I R g > K.Y.n.l.F..X|.r.S.A.n.Y.<X1X1XR.R.U.N.<XzXJXvXB.h.n.l.x.l.n.Y.E.E.Y.n.l.D.eXV.d.f.h.n.Y.<XE.1XR.R.I.F.U.",
"VXJXAXD.g.A.S.- s s : F.R.<XY.E.pXsXF.{.c.n.Y.1XR.R.Y.R.<X2XgXzXcXPXAXV.d.g.g.d.z.f.n.Y.<XE.R.T.yXyXb.j.h.B.Y.<XR.R.R.R.E.1XjXzX",
"cXGXDXrXV.b.l.A.{.Z.d.f.x.T.1XwXBXzXV.n.c.I.1XY.n.l.l.n.Y.wXDXzXzXHXDXpXM.d.f.g.d.d.d.z.n.R.9X0XBXkXG.n.m.I.1XI.n.l.x.n.Y.wXDXBX",
"0XjXjXMXrXM.d.z.c.n.m.n.M.2XlXmXJXGXkXpX<XR.Y.n.z.d.z.d.B.pXkXiX9XsXkXMXrXM.d.f.b.m.m.n.m.2XlXBXHXKXkXyX2XR.I.n.d.z.d.d.n.rXjX0X",
"R.B.M.rXMXpXN.V.eXyXrXrXrXsXsXzXFXcXMXMXsXH.h.f.f.f.f.d.V.eXH.I.R.M.D.rXmXrXM.D.eXjXpXrXpXsXsXmXFXVXMXMXsXG.l.f.d.f.d.d.V.rXG.I.",
"T.n.d.M.rXzXsXpXlXjXiX9X2XT.G.1XwX2XpXmXBXrXm.g.d.d.f.M.rXeXn.n.U.B.f.M.rXzXyXrXlXlXiX9X2XR.D.3X2X2XsXNXBXrXM.d.z.d.f.M.rXeXn.f.",
"E.Y.l.d.N.sXiX4X9X1X1XY.n.z.l.U.Y.n.H.zXGXCXrXD.m.n.N.pXrXM.g.n.U.Y.l.d.M.sXwX9X1X9XE.Y.x.g.l.Y.Y.n.H.lXGXCXrXN.n.m.M.rXrXM.g.g.",
"<XR.l.d.n.eXiX<X<XR.Y.n.f.f.n.I.n.m.eXzXzXxXlXyXsXyXcXAX,Xx.h.m.<XR.b.d.n.rX0XE.R.R.Y.n.g.g.n.I.n.m.rXlXcXlXlXsXyXsXvXDX,Xn.h.h.",
"E.T.l.d.N.jXzX0XR.N.x.g.f.m.I.n.n.wXlX9X<X<X<X0XjXBXDXcXjXrXG.I.<XR.l.d.D.jXlX0XR.M.l.g.d.n.I.n.B.wXlXiX<X<X<X0XdXcXDXcXjXeXG.I.",
"9X1Xm.M.pXVXHXcX0XI.x.h.n.Y.R.n.I.3X<XI.n.z.n.I.<X9XwX0XlXlXyX9X4X1XB.N.rXVXJXcX9XI.x.l.n.Y.U.m.H.<X<XY.n.l.n.I.1X2XwX0XlXxXyX0X",
"dXjXjXsXzXAXFXAXkX9XE.3X1X9X2XR.n.l.b.l.f.z.d.l.n.I.Y.R.T.1XlXlXdXjXjXdXzXAXAXAXkXiX<XE.<X1X1XE.B.l.l.l.z.z.f.z.n.I.T.T.T.2XkXlX",
"eXNXMXMXkX,XC.H.sXNXxXxXlXlXlXyXb.d.d.d.z.f.z.d.d.x.l.l.l.N.jXlXpXxXBXxXjX,XC.,XjXNXlXlXlXlXlXeXn.d.f.d.f.f.f.d.z.n.n.x.l.N.sXMX"
};
