/* XPM */
static char *_4ef491003cd4386b1fab535e2455224AgrB5dLEn8F1lsp7[] = {
/* columns rows colors chars-per-pixel */
"80 80 256 2 ",
"   c #060A05",
".  c #0B1807",
"X  c #121B0C",
"o  c #151914",
"O  c #0E2706",
"+  c #14240D",
"@  c #152909",
"#  c #142C0B",
"$  c #1B340D",
"%  c #19380A",
"&  c #182513",
"*  c #1B2B13",
"=  c #1B3312",
"-  c #1E3715",
";  c #243A0C",
":  c #232C17",
">  c #233413",
",  c #243C14",
"<  c #273A1A",
"1  c #33361B",
"2  c #2A3A23",
"3  c #323929",
"4  c #453B1F",
"5  c #1D420B",
"6  c #26460C",
"7  c #2C530D",
"8  c #35580D",
"9  c #244313",
"0  c #2B4415",
"q  c #254B13",
"w  c #2C4C14",
"e  c #26431A",
"r  c #2C441B",
"t  c #2C4B1B",
"y  c #354918",
"u  c #334D1C",
"i  c #2C5313",
"p  c #2D5A14",
"a  c #2D531B",
"s  c #335414",
"d  c #355B14",
"f  c #3B5B15",
"g  c #34541B",
"h  c #3A541D",
"j  c #365B1B",
"k  c #3B5C1C",
"l  c #3B650F",
"z  c #3C6415",
"x  c #3D631C",
"c  c #3B6818",
"v  c #2C4722",
"b  c #334C23",
"n  c #364927",
"m  c #355323",
"M  c #3B5523",
"N  c #355924",
"B  c #3C5C23",
"V  c #3A532A",
"C  c #3C5C2B",
"Z  c #385030",
"A  c #3C6323",
"S  c #3D6727",
"D  c #445215",
"F  c #435C1C",
"G  c #456615",
"H  c #436B14",
"J  c #43641C",
"K  c #446C1C",
"L  c #4B6C1B",
"P  c #4D6D18",
"I  c #4B7717",
"U  c #45711C",
"Y  c #4C731C",
"T  c #55781A",
"R  c #537C1C",
"E  c #425C24",
"W  c #445728",
"Q  c #435C2A",
"!  c #4C4E30",
"~  c #445A35",
"^  c #645C33",
"/  c #436424",
"(  c #4A6427",
")  c #456B23",
"_  c #4B6C24",
"`  c #44642B",
"'  c #456B2A",
"]  c #4C6C2B",
"[  c #526C24",
"{  c #536D2B",
"}  c #4C7324",
"|  c #4A7726",
" . c #4C732C",
".. c #527424",
"X. c #537C23",
"o. c #5B7C25",
"O. c #53742B",
"+. c #59752A",
"@. c #537B2C",
"#. c #5B7C2B",
"$. c #446432",
"%. c #4A6736",
"&. c #4C6C33",
"*. c #536D33",
"=. c #546C38",
"-. c #4D7233",
";. c #4D7339",
":. c #527333",
">. c #557C33",
",. c #5B7D33",
"<. c #577739",
"1. c #5B7D3C",
"2. c #637938",
"3. c #737135",
"4. c #4D5A4C",
"5. c #4E6B49",
"6. c #596748",
"7. c #5A7745",
"8. c #6B774F",
"9. c #435F66",
"0. c #586F6A",
"q. c #70756D",
"w. c #917939",
"e. c #8B7A58",
"r. c #59841C",
"t. c #66901C",
"y. c #5B8325",
"u. c #5B8727",
"i. c #55812B",
"p. c #5B832C",
"a. c #5E9021",
"s. c #5C8433",
"d. c #598535",
"f. c #5D833B",
"g. c #638C24",
"h. c #63842C",
"j. c #678929",
"k. c #638B2C",
"l. c #689429",
"z. c #6B932C",
"x. c #739929",
"c. c #638434",
"v. c #648B33",
"b. c #6A8C34",
"n. c #62843B",
"m. c #6C8438",
"M. c #638B3B",
"N. c #6B8C3C",
"B. c #738A36",
"V. c #6A9737",
"C. c #6C9434",
"Z. c #6B933B",
"A. c #729B34",
"S. c #779937",
"D. c #71953C",
"F. c #739C3C",
"G. c #74A232",
"H. c #79A437",
"J. c #7BA33B",
"K. c #5D8644",
"L. c #678944",
"P. c #6D9444",
"I. c #6B944A",
"U. c #739B43",
"Y. c #769947",
"T. c #728B50",
"R. c #789854",
"E. c #7AA446",
"W. c #7CA453",
"Q. c #6C886E",
"!. c #839B39",
"~. c #84AA3A",
"^. c #87B43C",
"/. c #8E9249",
"(. c #AC974C",
"). c #85A947",
"_. c #90B64E",
"`. c #88A952",
"'. c #B4A455",
"]. c #8D8D72",
"[. c #A69472",
"{. c #8DA56E",
"}. c #A1A773",
"|. c #CEB157",
" X c #D0B46B",
".X c #E1BF62",
"XX c #9AC357",
"oX c #DBC268",
"OX c #E9C766",
"+X c #EFCC6D",
"@X c #F5D16B",
"#X c #FED76B",
"$X c #FFD96C",
"%X c #FBD771",
"&X c #56738A",
"*X c #707985",
"=X c #5978A3",
"-X c #617BA3",
";X c #5B8084",
":X c #6B8791",
">X c #6E8BAE",
",X c #7794B9",
"<X c #6B92CB",
"1X c #6C92CA",
"2X c #7599CA",
"3X c #749CD5",
"4X c #7AA5C6",
"5X c #79A2DB",
"6X c #769FE0",
"7X c #7BA7E7",
"8X c #7EADF2",
"9X c #7FB1F4",
"0X c #8E8D89",
"qX c #989898",
"wX c #AB9B92",
"eX c #9DA593",
"rX c #ADAA95",
"tX c #8998AE",
"yX c #98A2B0",
"uX c #98A5B9",
"iX c #ACAEAB",
"pX c #B9BAB6",
"aX c #C9B194",
"sX c #CEB5AA",
"dX c #E0BDAF",
"fX c #B5C4A3",
"gX c #EBCC8F",
"hX c #D2C5B8",
"jX c #EBC8B7",
"kX c #E7C8B9",
"lX c #829DC5",
"zX c #89A6CB",
"xX c #8FAACF",
"cX c #ACB7C9",
"vX c #82ADEA",
"bX c #92B6EB",
"nX c #82AFF2",
"mX c #83B1F5",
"MX c #85B6FF",
"NX c #89B7FB",
"BX c #86B8FF",
"VX c #BAC4D2",
"CX c #AEC6E8",
"ZX c #C6C7C7",
"AX c #CDCECF",
"SX c #D8D8D9",
"DX c #FAD5C6",
"FX c #FDD6C6",
"GX c #FFDACA",
"HX c #E7D7D2",
"JX c #D7DEE2",
"KX c #E5E6E5",
"LX c #EBEBEB",
"PX c #F2EEEB",
"IX c #F5F6F5",
"UX c #FFFFFF",
/* pixels */
"%.E d K s . O % #.z.v.) A L  .i j O.7.w 0 { X...c K >.).r.k.@.9 r &.< + 7.F.u.g.l.K o.w O.h.b.2.r.F 1 g S.o.f E.b.W *.Y. .B  ...N.Z.j 7.d.>.s.f.i.i.V.d.< = v -.",
"D.b.R J 6 R Y 7 ..j.X.9 . < Q b :..._ > . w U.V.} p.v.l.G #.@.E.( v V Q &.:.Q z.L u i.K } h.F 1 ..n : 2.8.(.w.Z & n %.U.b.D.x _ f.T.;.n 6.I.E C I. .;.` Q k j <.",
"p ) x B H C.p.N.x B.P.a & 7.s.{ c.r.Y ..y _ W 0 k $ :.r.d V ~ / p.( f.>.) , y H I w >.A , , X   W 8.'.@X#X+X'.1     3 +.X.Q M ( 1.V : < Z 1.S -.I. .u r d.F.z._.",
"K U.X.K p.P./ K K l.H.p L P.,.@.Y z s s *.h.p.; #.y.T G x z J g Q c.@.v.@./ k K Y +.` $.*     & (.+X#X#X$XgX'.2.n . 1 ( d L :.( _ J E h @.k.P.&./ X.} Y j.x.t.R ",
"V.@.v.F.C.r.R _ s.I p.c I | n.M.K % = , v -.K 6 V j.r.8 = g %.f Q U.C.Z.@.:.<.6 z u.v.F.o.1   3.$X$X#X$X$X@X[.[.[ { =.y 0 H k * $ h ; N 8 R < & @ _ r.I y./ f +.",
"A.A.).S.Y R L K A.u.v.V.p.M.R.R.} _ m t W Y.h.b.M.A.r.u u J > k P k.R b.K K ' w 6 g S Y !.|.4 w.$X#X#X#X$XoXsXFX].W W ! X * $ W Q H y.A.o.L @ . ; g.L d a j w f ",
"G g.H.A.z.j.T G u.u.F.a.u.M.Q V Q &.z i ) ] u M.u.r.R / ..s q z r.a.X.s t S - k w t n.(..X#X4 w.$X$X$X#X@X XHXkXdX! ; n & X & ` s.l l.~.g.h 7.] o.;     * 0 1 6 ",
"h.I g.( s._.).T J 6 l k $ % ..L ` S ' m >.<.1.>.( L K U c w q | H U S / S x # , &.R. X%X#X%X4 (.$X$X$X$X.XkXsXaXGX}.m.L.I.,...:.m ..H.~.,.>./ _ d g > =.] ( `.P.",
"o.} u.V.X.k.b.G ; 9 u.d.L % w ; m :.d.i.| %.] O.s x 6 @ $ t q w s g a ' B % t Q f.'.@X$X#X%X! w.@X#X#X(.[.GXjXFXGX].s ..Z.c.I._ { j.g._ $.r y 1.v.) M ( %.>.M.' ",
"D./ a.u.g.x.).X.L h U G 6 p K f.U.r.8 | @.} k m z c % O # ) 8 5 q b t C a $ $ >.B.OX$X$X%X@X4 3.@X#X@X(.e.GXjXwXrX0XJ v.V.z.M.X.b.r.} b b &.} v.] K Z.D.L./ m g ",
"_.v.g._.k.C.E.U.u._.H.V.J j @.A.A./ = - _ l.I 1.;.-.s t g &., g u./ = e g , B k.(.$X#X@X+X|.^ w.#X#X%X|.e.GXjX*Xq.aXe.O.c.>.s.E.N.g S ` k f.Z.F.) q -.f.O.,.Q +.",
"C.B 8 r.E.C.H d k Y P.) E.l.r.T R *.%.@.p.c p j  .I.v * v M.i _ y.C = + . ' E./.OX$X#XOX@X%X'.^ @X#X.XgXkXGXjXwXiXaXkXrX<.' I.E.V . . + < @.V.Q k ` A ' M.v C E.",
"| _  .% H Y ..j.~.g a o.H._.b.H z _ f S.V.U | U f #.@.0 ] H.U N t $.&.m < ( ..T.+X$X@XOX#X$XOX/. X XaXjXGXFXFXDXFXFXGXrXW ] f.h , y Q * - u g V B ,.Q n / h { J ",
"u.V.F.g 7 s ; U u.,.x c | E._ Y S H r.R 7 d p i u 2.R d v.d.5 e V S m b <.K.j (.$X$X$X$X$X$X+XoXaXsXDXFXGXFXFXFXGXGXGXaX2.Q Q ..R X.W.I.| e M d.M.Z.R ) d N.[ ( ",
"I X.) L.w P J L } k X.M g  .L F N 8 _ u.U q j d.v...X.G -.e O S S A 5.;.,.p.D |.$X$X$X#X$X$XOX+X+X XaXDXGXFXFXFXFXFXDXrXf.s.F @ s g %.` b 0  .|  .t ( j.S / J / ",
"U R h ] Y t.S.z.z.H.z.2.M _ #.T Q m q @.l.V.c p.s.k u.p.c = e d.N = S - r ] S.@X$X$X$X$X$X$X#XOX X(.[.DXGXFXGXGXGXGXGX}.c. .] ( k r m ;.O.X.@.p.| @.A M <.O.} / ",
" .) k V.J.E.r.C.t.z.H.).m.y +.H s = $ ] h.r.I | A S i , C %.L.K.i.- K.<.;.K.3.#X@X#X#X#X#X#X#X#X+X|.+XgXaXjXFXDXkXdXkX8.8 E b _ K t e :.J Y Q @.M.,./ ~ ~ = a  .",
"s.V.Z.F.A.x T } A.Y b.M.M.F.y.Y | c # & Q d x t a a i 0 C 2 7.` Q m &./ ,.3..X@X|.#X#X#X#X#X#X#X#X%X$X#X#XaX}./.4.2 , r 0 G z g 2 Z % # m k y O.u < @.<.:   . = ",
"6 H l.y.h.P H y.H.v.G U U.@.} -.L.a.` 1 *.9 % e p j A e N q b v t V b %.|.@X#X#X@X$X#X#X#X#X#X#X$X$X#X#X#X@XB.c >. .h.g.% 6 q ] < o - c | d p.k X ~ L. .` d Q : ",
"A...- t C.)...k.l.s.G I a.r.w B X.d 7 1.#.% , ;.| f.S c i.i.s.A / ( ^ |.$X$X#X|.@X$X#X#X#XOX'.|.@X#X$X#X#X#X3.) @.p.V.t.I ,.b m g 9 # A f.C w ; 2 ~ h ] D.>.A M.",
"u.b.0 G H.H.l.T L ) | } u.G.b.] f.$ c V.B # K.f.A {.f.-.x B 9 e :./.@X$X#X#X#XOX@X%X%X$X$X%XOX(.w.(.+X$X$X$X3.b v e S ) k / W ) X.K.>.f.` n % w W Y.@.&.t S ; - ",
"x F [ y d k.y.x 7 v.S.z.#.s.h.r 7.` v.C.' 9 m # = T.| d.A }  .O.'.@X#X$X#X#X$X@X|.OXOX.X|.[.AXiXuXqX X$X$X$X/.- ~ a + O 9 $ * t p -.a m + V  .J X.:.v v , s , 5.",
"g X @ A 1.d.U.R.v.V.u.l.p...B.B.( + j 2.p.K.V   ~ R.B f.U.>.S /.@X$X#X#X#X#X#X#X@X|.'.! -X>XNXNXNX2XwX%X%X|.{ A K.S v & m S C < ; < :   & g k : X     -  .| p <.",
"..f.#.J B i O.i.| ) V.E p...R.k.P ; b A 9 * q C ` L.2.7.V ` g (.#X$X$X#X#X#X#X#X#X#XrX2XNXMXNXMXNXMX0XoXoXW < S f.f.d.9 = ;.<.a H #.r > + a % o + Z r b -.c c Z.",
"Y.X.I y.b.6 f 7 x i J @.L.l.A.k R.B.A.} $ * , $.k <.:.c.M *.O.'.OX$X$X$X$X#X#X#X#X[.5XNXMXNXNXNXmXBX>X].3.O < N K.L.i.p * < + < v s.g.L.1.m # 5 q ;. .K.S x x N ",
"c.i c p.D.F O d Y 0 , $ { u.Y ..#...7 z ..#.,.Q # B L.( J { n.^ |.$X$X$X#X#X$X#X%Xq.nXMXNX3X-X=X1XnX,XiX8.b.` ) r.E.K.v $.7.C %.v O 6 )  .$.B M.S + Z ;.S Z * # ",
"d } a.G.g.G 6 U 6 J O.1.' c.-...% / ) 9 ] c.V.Z.Y 1._.#.( b.B.6.].OX$X$X#X$X#X$XaX,XlXZXAXsXsXq.=X>XSXqXF.l.a.O.7 A @.t v 2 v v e % % p c J } V.K.$.# + - $.= e ",
"z.y.l.H.j 5 6 O.} u.z #.u.I.U.( > ] / / Y d #.k.G / P.h.Y.iXAXpXLXaX X$X@X@X XrXvX6XiXFXGXGXdX,X*XHXUX6.h L k.] . . A t - - S A ' v . # j | U k S S r , < B ` i ",
"x  .Y ..u s 8 I R 6 7 @.z n.n.j # / p._.~.P V Q / K >.=.qXSXJX>X,XbXxXtXq.q.zXvXMXtXHXFXGXDXcXxXJXIXiX$.% 7 q m @ . 5 z X.:.# i ) ;.* n Z e q * 5.| P.p.d.V.U 5 ",
"7.>.>.M.W.D.Y T T J :.k.0 # 3 < E o.y.G.P ~ Z q.pXrX:X0.>X1X9X9X8X6X3X3X8X,X>XnX6XsXDXFXkX*XcXIXAXq.C L.c 5 % q ,   * ) } R.r A E.i.d.' a a N V v m | d.N j H % ",
"< + B x X.i.q U L o.[ y.A.u = _ P ,.{.eXpXLXLXJXVXzXnXmXBXNXmX3X<X7X8XMXNX=X0XzXtXdXGXDXsXSXKXrX7.] ~ L.q O . & v m ~ m % I.L.v <.-.' m e C V.A. .Q -.$.m N U R ",
"L u g q d.u.r.U./ o.z j v.:.;.j.H c.{.rXKXKXiXzX7X9XBXBXmX7X1X3XMXMXMXMXMX-XSXpX0XGXFXDXwXqXhX[.+.m . V O 9 9 &.;.-.&.M g A ) | d f.@.| ' A.S.X.s.M.| e N >.H.~.",
"z.) ] % c k.@.J.v._ L w 5 ..) C.g.z.E.U 0.,X8XMXBXMXBX<X<X6XmXMXMXMXMXMX9XcXIXLXiXFXFXFXjXwXjXFX]. .f < M W $ - e = A ' S K d @.i.A j z.u.r.X.S R.5.S  .A i i.u.",
"d X.i.r @ s G ) E.~.T Y s.H { u.k / M.&X5XMXMXMXBX8X2X7XMXNXMXMXMXMXMXBX7XuXUXUXKXsXFXFXFXjXwXjXjX8.k.E.S.n . : 3 $.t N % . @ . * V v.r.r.T p = Z * X = b e t Y ",
"7 d a.c.9 j .._ A.H.r.H _.H.p.B &.0.,XMXBXNXMXBXmX5X7XBXMXMXNXMXMXMXMXMXxXJXUXUXUXpXwXGXFXGXDXsXDXwX_ x.o.+ * ` P.6.# * - n k v * &.| x Y z a , X & + & ` | g q ",
"H.j.I Z.k...f S._.^.D.d z L l 5.:XmXMXMXNXBXMXMXMXNXMXMXMXMXMXMXMXMXMXmX>XIXUXUXUXPXqXhXjXGXGXDXkXjX6.t e y r > g V :   * %.z *.7.U.| q s p ) %.  ;.} e % i.U 6 ",
"v.k...F.L F h.~.[ h #.N.l q ~ 5X9XBXBXBXMXMXMXMXMXMXMXMXMXMXMXMXMXMXMX8XVXIXUXUXUXUXpXAXpXkXGXDXkXkX0X: 6 ( 2.s./ ] ,.<   & ; ) I.I.k 6 , e - &   , U.@.m N x % ",
"..J 9 8 d >.F.U.D 6 E 1.) 0.5X9XBXBXMXMXMXMXMXMXMXMXMXMXMXMXMXMXMXMXBX1XAXUXUXUXUXUXKXAXPXAXsXDXGXkXkX].C 9 :.b.} t c k <   : x S ] + . = v   = < C f.p $.j % g ",
"U R B d C.H.v.E.).c.c.] :X7XBXMXBXMXMXMXMXMXMXMXMXMXMXMXMXMXMXMXMXMXMXxXLXUXUXUXUXUXIXqXUXUXSXsXkXDXDXsX6.^ 8.q.T./.=.G ) n 2 >.c j - - C C - a >.I.t N I.%.. u ",
"g.)._.Z.z.G.x.p.( [ P.:XMXMXMXMXMXMXMXMXMXMXMXMXMXMXMXMXMXMXMXMXMXMX7XuXUXUXUXUXUXUXUXSXIXUXUXIXZXsXkXkXsXFXDXDXAXsXsX8.} b.Q @.$ . X + r B :.B &.$.O O $.' x d ",
"c z.F.z.T 7 l ....P >XNXBXBXMXMXMXMXMXMXMXMXMXMXMXMXMXMXMXMXMXMXMXMX7XyXUXUXUXUXUXUXUXSXZXUXUXUXUXKXsXwXaXjXDXFXFXsXsXe.o D 2 n . < * r / } c } 9 + 9 9 < ~ ` n ",
"f.c J.Y 0 O % F ] :XNXNXNX8XMXMXMXMXMXMXMXMXMXMXMXMXMXMXMXMXMXMXMXMXvXKXUXUXUXUXUXUXUXLXLXUXUXUXUXUXUXZXwXZXPXPXPXpX0X! 3 5.%.%.Q f.-.d.f.) s $ = S U.s.=   . v ",
"e q p.@.O./  .c.&XNXMXMXmX<XMXMXMXMXMXMXMXMXMXMXMXMXMXMXMXMXMXMXBXBX-XLXUXUXUXUXUXUXUXUXUXUXUXUXUXUXUXUXIXZXZXKXIXIXwXwXKXZXrXrX7.P.i.K.I.N % O - ;.G.A.b . n < ",
"P.c v.U.E.Z.H.Q.nXMXMX9X>X9XMXMXMXMXMXMXMXMXMXMXMXMXMXMXMXMXMXMXMXBXtXPXUXUXUXUXUXUXUXUXUXUXUXUXUXUXUXUXUXUXKXZXZXKXSXUXUXUXUXLXpXeXT.i.L.>.u $ ' :.i.r.) ' K d.",
"A _ / Z.b.S.8.3XBXBXBX5X3XBXBXMXMXMXMXMXMXMXMXMXMXMXMXMXMXMXMXMXMXMXCXIXUXUXUXUXUXUXUXUXUXUXUXUXUXUXUXUXUXUXUXUXKXZXSXIXUXUXIX0XyX8.q a e X k K U | | q E I.] S ",
", / O.S.o.*.4X9XBXBX7X<X9XMXMXMXMXMXMXMXMXMXMXMXMXMXMXMXMXMXMXMXMXNXJXUXUXUXUXUXUXUXUXUXUXUXUXUXUXUXUXUXUXUXUXUXUXUXZXqXIXIXyX5X,X5.x ` n . + $ e $.e b B v & < ",
"M.P.@.Y s &XBXBXMX9X3X7XMXMX9XBXMXMXMXMXMXMXMXMXMXMXMXMXMXMXMXMXMXNXJXIXUXUXUXUXUXUXUXUXUXUXUXUXUXUXUXUXUXUXIXKXyX*XcXhXZXtX5XMX9X8X0.v 5.d. .- N C a m w % B 7.",
"p i.m N Q.8XBXBXMX7X<XMXMXBXMXMXMXMXMXMXMXMXMXMXMXMXMXMXMXMXMXMXMXMXCXIXUXUXUXUXUXUXUXUXUXUXUXUXUXUXUXUXUXSXxX3X9X8X>XqXtX5XBX9X9X9X8X>X7.p.f.r v V Z * . - >.K.",
"x A | 5.2XBXMXMXMX1X8XMXMXMXMXMXMXMXMXMXMXMXMXMXMXMXMXMXMXMXMXMXMXMXtXLXUXUXUXUXUXUXUXUXUXUXUXUXUXUXUXLXcX3X7XBXMXBX9X=X<XBXNXMXMXMXMXBX3X;X;.p  .S ;.g - C S t ",
"d.j 5 ;XMXMXMXBX7X2XBXBXMXMXMXMXMXMXMXMXMXMXMXMXMXMXMXMXMXMXMXMXMXMX-XLXUXUXUXUXUXUXUXUXUXUXUXUXUXIXZXlX8XMXBXMXMXMXBXmX5XmXBXMXMXMXMXMXBXNX4XQ.-.S  .d.S % = e ",
"t 5 v 5XBXMXMXMX<X8X9XMXMXMXMXMXMXMXMXMXMXMXMXMXMXMXMXMXMXMXMXMXMXBX2XLXUXUXUXUXUXUXUXUXUXUXUXUXKXyX7XmXMXMXMXMXMXMXMXBXmX<XmXMXMXMXMXMXBXBXBX>X@.Y i.S < X * V ",
">.5 &X9XMXBXMXmX>X9XMXMXMXMXMXMXMXMXMXMXMXMXMXMXMXMXMXMXMXMXMXMXMXMXbXcXUXUXUXUXUXUXUXUXUXUXUXZXzX7XNXMXMXMXMXMXMXMXMXMXMX3X<XMXMXMXMXMXBXNX>X2 X.c  .X.I j j / ",
"d.5.5XBXBXBXMX<X7XMXMXMXMXMXMXMXMXMXMXMXMXMXMXMXMXMXMXMXMXNXMXMXMXMX8XuXIXUXUXUXUXUXUXUXUXKXcX3XMXMXMXMXMXMXMXMXMXMXMXMXMXBX3X7XBXMXMXMX9XzX4.p z | u.H.t.k.o.x ",
"O.5.5XBXBXBXMX2X8XMXMXMXMXMXMXMXMXMXMXMXMXMXMXMXMXMXMXMXMXMXMXMXMXMXBX2XSXUXUXUXUXUXUXLXVX2X8XBXMXMXMXMXMXMXMXMXMXMXMXMXMXBX8X>XMXBXMX5XxXpX%.N 5 V n * > j s.f.",
"c f.0.5X8XNX7X1XNXMXMXMXMXMXMXMXMXMXMXMXMXMXMXMXMXMXMXMXMXMXMXMXMXMXMX8XuXUXUXUXUXLXcXxX7X9XMXMXMXMXMXMXMXMXMXMXMXMXMXMXMXMXMX3X2XmXzXVXhX%.v - q ;.o   r 1.X.p.",
"< &.L.pXzX2X5X5XMXMXMXMXMXMXMXMXMXMXMXMXMXMXMXMXMXMXMXMXMXMXMXMXMXMXMXMXzXSXKXVXVX2XvXmXBXBX9XBXMXMXMXMXMXMXMXMXMXMXMXMXMXMXMXMX4XtX0X:X7.a = # O # +   < %.r e ",
". 2 r KXIXAX:X8XMXMXMXMXMXMXMXMXMXMXMXMXMXMXMXMXMXMXMXMXMXMXMXMXMXMXMXBX8XzXbX3X9XBXBXBXMXMXMXMXMXMXMXMXMXMXBX9XMXMXNXMXMXMXMXNX3X4.+ - x A = $ Z A a m A S e # ",
"O a I.pXUXUXcX7XMXMXMXMXMXMXMXMXMXMXMXMXMXMXMXMXMXMXMXMXMXMXMXMXMXMXMXMXBXMXMXBXBXBX9XBXMXMXMXMXMXMXMXMXMXMXBXBXMXMXNXNX8X8XmX2XuXZ e 9 % . q % q q B | p S i.;.",
"-.i.V.I.eXfXZXcX3XMXMXMXMXMXMXMXMXMXBXBXMXMXMXMXMXMXMXMXMXMXMXMXMXMXMXMXMXMXMXMX9XBXBXBXMXMXMXMXMXMXMXMXMXMXBXBXMXNX8XxX>X:XAXKXSXn - u &.= 0 9 q j v = e ' ;.<.",
"-.p.#.E.~.b.n.].iXzXnXmXBXMXMXMXMXMXBXBXMXMXMXMXMXMXMXMXMXMXMXMXMXMXMXMXMXMXMXMXBXBXBX9XMXMXMXMXMXMXMXMXMXMX9X9XmX2XxXZXPXKXKXyXq.+ $ n Z = # + e a S N m e C >.",
"c U...z X.J.>.#.T.iXq.>X1XmXBXBXBXBXBXBXBX9XMXMXBXMXBXBXNXBXBXBXBXMXMXMXMXMXMXMXBX9XBXBXMXMXMXMXMXMXMXMXBXMXnX>Xq.0XQ.7.2.Q %.: > y $.v + -.' v 2 e c S C = O Z ",
"_.W.M.q | p._ S./ g b %.~ 4.9.>XbXbXvX5X5X6X3X<X3X3X5XvX6X<X5X3X7XMXMXMXMXMXMXMXBXBXBXBXMXMXMXMXBXBXBX7XzX;X8.7.S 5.R.L.L.,.%.n 7.#.`.' / S q t C ' c - ;.~ < 7.",
"K ) >.g j 7 / v.b.] | J X.B i ] ].VXZXiXyXqXtX0XqX0X0.q.iX0XiXyXtX5XmX8XmXMXMXMXBXBXBXBXMXMX9X9X7X=X;X5.<.F h Y.s.T.T.v *. .%.:.K.k *.<.N.M.M._ O.+.Z.k n @   4.",
"a m Z.l.a.X.P.U.f.O a i.u.XXB.x s.`.T.6.8.q.8.8.8.8.6.HXUXUXUXUXIXJXyXtXzXbXCX4X4X<X>X2X,X;X0.5.n u M S Y.E > @ %.E.R.7.` <.~.p.) y 1 Y.) B +.m.o.@.@.s W | d $.",
"U c.X.r.H v._ K :.{ A c V.~.X.l.C.C.8 z.R ( b.C.L u.`.IXUXUXUXUXIXSXIXUXUXUXAXV i.m M -.<.>.U Z.M.i.c P.`.c.m.< ( m.`.J.k.c.o.2.L u.h.L.#...; 6 _ { c.Y / _ c.] ",
"d E.h.B y J 6 6 h G N.).J.S.l.F.y.L j.~.o.c.O._ k _ N.AXUXUXUXUXIX0XUXUXUXUXZX< 1.m u.v.>.;.&.] <. .d.U.i.A  .{ u.F.k.U.i.K = z.R / J 2.).m.,.} / y 0 Z 1.X.A.P ",
") f.%.$ O 9 E J E s L j.T c 0 n { x.~.F.:.Q #.k.Z.;.d.eXUXUXUXUXIX].LXUXUXUXiX=.T.Z.X.d.v.&.; + = t ' d.' 1...J.D.l.i ( f.-./ N.H / ..A.Y.k...C.l.r.G <.-.E.).g.",
"v.S v.] g M E.C.j.+.F 7 8 X.[ { 3.!.2.b., > D.G.I J.v.{.IXUXUXUXIXL.pXUXUXIX8.7.`.{.' C R._.#.F / v 7.5.N ~ h u.@.-.` A d.E.p.s.M.Z...] `.p.J 2.h.F.p.s.F.R.`.z.",
"a @.G.~.F.F J X.j.S.j.8 ; y ~.~.^.g._ _ z.o.).~.~.j.W 8.JXUXUXUXpX .eXUXUXIX6.h S.).A.@.).A.R b.M.<.L.L.I.V.O.q b / E.N.+.Q W.z.F.F.s.f.Y.V.J.Z.:.( P.J R / Y.D.",
"= | r.l.Y :._ k.~.F.z.L 8 7 [ ( D.Y G ( R j.A.r.g.h [ j.rXUXUXUXeXu.I.PXUXKX3 F h ( @.O.;...Y s.B -.h.Z.Y.F.X.@.] ,.y.L D { >. .c.B f o.>.d.V.g.C.v.*.O.#.T.*.L.",
"a | o.g.A.`.v.} @...X.u./.#.y F D.Y.[ 1.C.C.~.r.w :.1 y Q.IXUXUXfXa.P.SXUXqX0 j.( y h %.n ,.s.} j J i $ / S.>.-.n.:.n . < B.o.Q -.] ).J M.D.d.s x U.).B $ W %.E ",
">.-.[ l U F.~.p.c.y.O...g...L.S.Y h > F ~.B.F.s.| b.[ s ! ZXUXLX6.' z ].UX0XF !.B.j.z.m.c.`.D._ Y U r.8 ..Q $ - #.F.W.F 0 f d < <._ ..E *.T.I.} , d s.V W Y.E   ",
"9 K ' _ z R } } #.,.] K R ,.).h.x ( z.H.B.J b._ ] ] ~.S.+.rXUXSX` / O.eXUXiX<.o./.T R A.V.L. .+.M @.U } *.B g w B D.f./ Q O.L.M.E.).P./ N.s.F.[ o.o.o.,.,.7.< o ",
"$ d U.`.E.@. .x p.] a ..>.T.).S.Y G J Y X.H F 8 h T l.l.p.iXUXKX).Y.*.iXLXq.qX[.,...C.Y.C.p.0 { :.m.L./ N W.S.0 g &./ m <.L.r h.F.>.>.g S i.} ] f r.#.u t V # , ",
"T y.C.J.C.k.c., / ..( h 2.<.s.J.y.K i.R 7 w U x.x.~.l.z h q.].q.R h * o 3 : 4.0.: <  .M.o.d +.W >.p.F.c.L._.A.B.c.e 7.` %.] 0 X.c.W b M.n.} G 1 % T +.v $ ( <.6 ",
"h.u._.H.~.R v.h x #.S.[ o.Z.D.k &.>.p.r.7 < j c B.g.X.G y : ZXAXQ J _ ` V < : : : < J O.>.k u r F h.j.E.G.H.D.#._ ] 1 n [ ; ( ] x.~.L.j.[ u P T y G ( ( F h < J ",
"G.P l._.^.r.d $ - s.v.F ..c.F @ M u.u.H R c.c q w z 6 P _ : ZXAXq.{ | >.i.i.d.s.O.M.C.c.' ..s.D.h.y.v.).u._ E ] m T g.J.z.r.F.).r.h.*.b.j.B.x.x.j.P m.x.t.P ,.D.",
"F.r.x._._.x.~.P f y.v.@.h w O.H Z.c l c i.| U C.T 7 > G 9 . o     b | <.m V 1.| :.X.k.p.} L Z.C.M.#.F.Y L Y z.o.k.u.l.A._ K ) U.R G ( D L g.r.R T 0 #.I R l.k.o.",
"j.z.y.A._.~.x.S.J.A.J.W.P.f.} K X.J ' a % a M %.X.z 0 Y / J : .   1 :.} t u ] ' >.X.U ( j.P 1.p.+.j.M.L z T u.Y p.@.h.).x.g.z _ 9 | j.2.1.-./ b m.j.j.{ d +.S.x.",
"F.k.!.t.~.G.H.C.~.~.c X.) ) w , a q 2 ~ e > ~ v V L y.,.M J ..W n o. ., m @.i. ./ u.p.x.x.t.U.P.L l.j.o.N.l.[ +.c.h +.-.g R u.s , ` s. .f.v.u o 2.x.).3.y / V.H "
};
