/* XPM */
static char *wall1669042709[] = {
/* columns rows colors chars-per-pixel */
"80 80 256 2 ",
"   c #050904",
".  c #0B1707",
"X  c #10150A",
"o  c #121D0B",
"O  c #111410",
"+  c #0D2406",
"@  c #152608",
"#  c #13240C",
"$  c #142B0B",
"%  c #1A2C0D",
"&  c #1B3806",
"*  c #15330C",
"=  c #1B330D",
"-  c #1C3B0B",
";  c #192713",
":  c #1C2B14",
">  c #1C3313",
",  c #1D3913",
"<  c #223A0E",
"1  c #2D2D11",
"2  c #222C18",
"3  c #223414",
"4  c #243C14",
"5  c #253B1A",
"6  c #283919",
"7  c #293822",
"8  c #353832",
"9  c #5F2015",
"0  c #523319",
"q  c #753618",
"w  c #723524",
"e  c #1E420B",
"r  c #23430C",
"t  c #27490C",
"y  c #344E0F",
"u  c #2B550C",
"i  c #34580D",
"p  c #254314",
"a  c #2B4414",
"s  c #254B14",
"d  c #2C4C14",
"f  c #25431A",
"g  c #2B441B",
"h  c #254D19",
"j  c #2C4B1B",
"k  c #334818",
"l  c #334D1B",
"z  c #2C5313",
"x  c #2D5419",
"c  c #335314",
"v  c #3A5316",
"b  c #335B14",
"n  c #3B5C15",
"m  c #34541C",
"M  c #3B531C",
"N  c #355B1B",
"B  c #3B5C1C",
"V  c #3A630D",
"C  c #3C6315",
"Z  c #396517",
"A  c #3C631C",
"S  c #2C4422",
"D  c #2C4B22",
"F  c #334C23",
"G  c #354927",
"H  c #345322",
"J  c #3B5423",
"K  c #355826",
"L  c #3C5C24",
"P  c #3B542B",
"I  c #3A542F",
"U  c #3C5C2B",
"Y  c #3D6323",
"T  c #3D6627",
"R  c #4C4A19",
"E  c #45581B",
"W  c #425C1C",
"Q  c #6D4E1B",
"!  c #446716",
"~  c #4B6D15",
"^  c #42641C",
"/  c #436B1C",
"(  c #4A6D1D",
")  c #477517",
"_  c #4C741C",
"`  c #4E7A1B",
"'  c #54791A",
"]  c #537C1C",
"[  c #544D27",
"{  c #425D23",
"}  c #445829",
"|  c #425C2C",
" . c #465B34",
".. c #71512B",
"X. c #436423",
"o. c #4B6424",
"O. c #446A24",
"+. c #4B6D24",
"@. c #44642B",
"#. c #4A642C",
"$. c #456A2B",
"%. c #4B6C2B",
"&. c #546928",
"*. c #4C7324",
"=. c #4D7923",
"-. c #4C732B",
";. c #497529",
":. c #527424",
">. c #547B24",
",. c #597C24",
"<. c #52742C",
"1. c #5A7529",
"2. c #547B2B",
"3. c #5A7D2C",
"4. c #436433",
"5. c #4C6C33",
"6. c #496836",
"7. c #546C36",
"8. c #4D7332",
"9. c #4D7736",
"0. c #537433",
"q. c #547B33",
"w. c #5B7C33",
"e. c #577438",
"r. c #547B3A",
"t. c #5B7C3B",
"y. c #716B2E",
"u. c #647B2B",
"i. c #637C37",
"p. c #5B594F",
"a. c #527240",
"s. c #597842",
"d. c #737A49",
"f. c #950D08",
"g. c #A80705",
"h. c #B80904",
"j. c #AA140A",
"k. c #B7160D",
"l. c #B31A1C",
"z. c #BC1D1A",
"x. c #902F18",
"c. c #AE2E18",
"v. c #BB1B20",
"b. c #933423",
"n. c #B2332A",
"m. c #C40A02",
"M. c #CC0C01",
"N. c #D50D01",
"B. c #C61309",
"V. c #CE1912",
"C. c #CF251C",
"Z. c #C71E20",
"A. c #C82623",
"S. c #D2332B",
"D. c #904D1B",
"F. c #904D2B",
"G. c #875729",
"H. c #AA4C31",
"J. c #87662B",
"K. c #8F6D35",
"L. c #CC413B",
"P. c #A35C4E",
"I. c #AF7879",
"U. c #CE5150",
"Y. c #CC625F",
"T. c #D8706D",
"R. c #E37275",
"E. c #5A861B",
"W. c #5A841D",
"Q. c #658D1E",
"!. c #4D8020",
"~. c #558224",
"^. c #5B8324",
"/. c #5C8A25",
"(. c #55832B",
"). c #5B832B",
"_. c #5D8A2C",
"`. c #5C8333",
"'. c #598635",
"]. c #5B823B",
"[. c #668826",
"{. c #638C25",
"}. c #62852D",
"|. c #638B2C",
" X c #6A8C2B",
".X c #689428",
"XX c #6B932C",
"oX c #73992B",
"OX c #638534",
"+X c #698337",
"@X c #648C33",
"#X c #6B8D34",
"$X c #63843C",
"%X c #648B3B",
"&X c #6A8D3B",
"*X c #748B36",
"=X c #6B9333",
"-X c #6C9A34",
";X c #679539",
":X c #6C933B",
">X c #779836",
",X c #739C34",
"<X c #72953B",
"1X c #739C3B",
"2X c #75A22D",
"3X c #77A237",
"4X c #7BA33C",
"5X c #5E8544",
"6X c #648B43",
"7X c #678844",
"8X c #748B44",
"9X c #6B9343",
"0X c #6A9446",
"qX c #749B43",
"wX c #759847",
"eX c #759454",
"rX c #7BA342",
"tX c #7AA548",
"yX c #7AA352",
"uX c #849534",
"iX c #86AE37",
"pX c #83A93A",
"aX c #889146",
"sX c #85AB48",
"dX c #8AB349",
"fX c #8FB451",
"gX c #8CB357",
"hX c #8B8F71",
"jX c #97A96C",
"kX c #A0C262",
"lX c #969787",
"zX c #A8938C",
"xX c #ADAF91",
"cX c #B3AEAD",
"vX c #D1908C",
"bX c #E59092",
"nX c #D7A59F",
"mX c #D5B6AF",
"MX c #E6AAA8",
"NX c #EEB2B5",
"BX c #E6B8B7",
"VX c #BBC29E",
"CX c #DDC2B5",
"ZX c #D2D0B9",
"AX c #F2BEC1",
"SX c #D8CDC8",
"DX c #DBD3D3",
"FX c #E5C9C8",
"GX c #EACFCD",
"HX c #E5D3D1",
"JX c #E8D6D5",
"KX c #EADCDB",
"LX c #F1DFE0",
"PX c #EFE3E3",
"IX c #F1E4E5",
"UX c #F2E6E8",
/* pixels */
"@.k 4 <.k $ + + t -X X7X2.( $X>.@X=.6X8.$._ ) T m A Y :X3XQ. X^ 6.a.F $ d :.*.E.Q._ i.).^ :.|.3X,Xn a e.`.,.3.9XdX2.J s.%.H @.`.:.W &X$.2.].5.2.1X0Xr.0XF a g l ",
"sXw.|.^ c B & & ( 3X` ;.l l m p 0.eXL : + 3 2.W.+.! _ -XE.~.' O.%. .6.o } *.` {.~./ %X=X2.1.u.W X.%.; 7.qXoX^ t.u.3 { 0.;X`.+.-.<.6X8.e | 9.wXq.9.;X_.).F ; | ;.",
"A @X2.z ^ -X` n t ).O.O.< : @.6 M wX>.n 2 J e.X.'.N 2.|.C L -.0X&Xh F @.^ 6 #.8X|.p 5.qX'._.` b o.| } +X|.<.3 O     o 7X4X=Xu.yX$X6XU 7 G s.8.U j ;.s K 6X6X,.( ",
"j -.A u _ rX%X)._ @X1XO.p g 8X`.! {.C C i.1.4 % @.k 0.>.>.6.G P :.:.].1X;.@.g ).] *.x Y m U h > m #.@.#.:Xu.6 2 ;     8X|.L  . .e.7.6 ; 6 H r.0.yX;X2.J =.~.3XiX",
"d qX:XC C / B t =..X3X~./.@Xw.<._.;.e f B u.=X<.o.' Q.~ v ! ! L 4 w.@X_.,.@.5 B C |.2.4 M 6  .X.0.;X>.O.qX{. Xl 6 2    .-.C =.q.yX9X:.{ %X{.' 6.6.3.-XE.2X{.Q. X",
",X3.X._.,X-X^.+.}.) W.~._.(.A s O.d # J  .b.H.i.} ( .X{.a 4 M <.E <._.@X>.0.7.5.N /.~.:XXXC H ;.}.3.OXqX].` E.:.1.i.} 7 1 O.=.: 7 -.g k &.] r X @ &.{.E.E.;.d b ",
"-X3X XsX{.] XX3.}.W.! ).(.t.6XO.q.A 6 7 x.Z.Z.F.1.|..X;.S W } 0._ |.E.|.) %Xq.N < < N -X{.E.E.=.:.W.2.-.oX-XE.2.u.| } } o o H p 4 Y W.W.] W.a   o ( W._ (.s.@.A ",
"u |.iXpX=X] XX_ :X4X{.-X.X-X@.> X.<./ ..A.Z.A.A.x./.` i q._ ^ X.) W.W.$X4 K 4 d b = X.@X^.' 2X_.C {.oX.X-X'.b (.{.y G } .     % ).=.' Q.oX:.@.#.&.W : X ; 5 3 U ",
":.) .X}.@X,XpX[.).A u `.r m Y >.X.J [ v.A.Z.l.l.c.Q ) V V b N Z ) ` ` O.p O., + < x %X,XT Z .XE.6X`.*./ m K `.@XX.:.1.7.J &.a L %.a ' 2X^.:.%.X.A d # o 7.%.E 1.",
"1X] -XOX^ ] ' o.#.l u 2.r.- B i.} %.F.v.l.l.l.l.l.x.( X.s - H c r C x T 9.H s F K A '.-.e * ! ) r.4.%.7X! m d `.$XsX;X&XyXXX&X).%.F ' Q.+.m 5.2.9XqX1.M 0.7.3.=X",
"dXM _ ` 1XoX|.*.( & C 1X4X$.b {  .u.b.l.l.l.l.l.l.b.E > % H C r e p s U 7X, K jXgXqX0.* p B Z ` L P OX^.x @.c %.U  .6.,.|.%X9X@X_ ! W.<.k + F L wX9X#X{ i.eX6.0.",
"fX X.X' =.' .X).n ,.).1X*XB O.|.gX&Xb.l.l.l.l.v.Z.b.%.h j D B t s - , 6.'.$.: eXgX=.L l $.~.s t _ w.L z 5.q.t.6.! <.0.&X@X1X@X-.OX3X=.p f X.+.>.%X`.+.qX%X6.e.| ",
"sX>._..XXX)._.3X'.dXpX@X>X! ;.3XoX_ 1 x.l.H.b.c.b.K.6.h N K 4 = _.=.* , - H 7.wXt.6X2.r.(.'.0.d c r.U 4.5X=.q.m p >._ _.3.C o._ t.0.K N m <._.9X_ L Y 8.;.+.&.t.",
"/.3.y i .XXX/ A %./ >.B >.XX-X] ] A F 8Xi.*XR [ s.e.f o # e.O.A ` X.p . . | &XrX@XqXOX/ z p 8.r.N 5.9.].qX|.^._ / A `.'.>.T r.] w.2 X   o m #X%.J <.m %./ L 5 OX",
"Z 2.( d *._.}.#XdX<Xp *..X/.}.( ,.! :.XX3Xu.[ _.;.^ =.a M qX/.x - Y 4.g D K { %.< :.c 4 O.8.D 9.J +.r.%X9.2.X.$.q.m 7X9.L { %.a |  .m F = > L 7.J #.U 4 p a 7.9X",
"! ~.rX0.m $X^ *._.[.m ~.b 3.1X' ^ =.[..X' o.&.s 4 k Z i '.;Xt f S F $. .S %.P 0.d %X] A >.rXa.6.; H ;.) r.2.$. .: # %.#Xi.@.7X7.X.@X;XO.T - % #.=.q._ ( C >.u.$X",
"/._ A 2.- c t ^ b ^ A 2.X.-.1.~ d z :.&XZ k [ e.(._ _ ~ Y s , I r.K 9.r.8XrX7XsXtX/.` >.B _.i.0.m &X@X%Xr.- X.0.B o.=.g { ! q.F y C A 8.8.= 4 9.A Y 4 ( =.U $X3.",
"u (.^ t +.3XoX}./._.1X=X% d }._ p s u &X=X&.[ C Z O.3.) _ Y . T r.T 4.I | %.` w.wX_ V _.C ! -.9X<.'.@X) 4.S A X.%.).;X~.|.(.` d a 4 * @.@.%./ $.9X2.@.! O.r.:.v ",
"t '.O.n ).3X4XdX.XQ.fX>X<Xo.E ).X.% < 5.>X*Xy.Z Z 8.O.B r T  .5X0Xf F s.J | _.:.5XT T ,.+.F @.(.'.6Xq.a G e.+.z e.%.^..X{.w.4 B (.6.P U <.,.q.yX)._.|.> : 5.2.6.",
";.O.r ) tX=X,X( XXQ.|. XfX{ 1.#X<.D + g %.1.Q '.L j 4 a D P s.8.9.K D 0.i.g | c A l r.L H g m q.A N f k X.@.$.O.`.6X=.x d :.W U d F H l ;.b x 7.2.P l 6.: . $ T ",
"+.u ` ' .X^ Z ! rXW.i ^ <.%XqX] 3.:XM 2 : 0 ..T N p s h D G s.4.> F U 7X}.! 8.@.|.@.P 9.+.+.2.-.l 5 6.7XwX6X|.3.@.4.*.M % B O.c 6 2 K 4 h A d 7.J : 0.-.k X ; : ",
"c C ] ' _ XXC ) fX=X+.[.^.{ _.-.6X] Z 3 G [ 0 N Y u A x 4.-.B D 6 U  .5 ^ >.%X).tX2.i.%._ i.:X].U @.r.6.r.(.~.i O.*.@X.X3.s f { g . D ;.c n ! 6X6 2 0.;.e.%.0.6 ",
"sXOX% = i.dXu.`.3X|.;XZ ) .XB j ;.A O.9X7X[ R Y ].O.T '.(.=.%XO.e.&.k P <.@.;.-.q.|.) %.6 7X6. .#.].yX'.z u t X.yX0X_.E.Q.>.m X.X.L 5 U 2.q.j H G : 6 M rX^.m $X",
"-X:X7.< W.iXdX2.i V Y (.V {.1X8X0Xf l 2.X.[ ..q.b r.0X;.O.Y eX5 J ' ] 6 I G [ c.y.q.< $.*.} } sX`.0.s.qXuX^.( %.> m Z Z e v L 0X~.6Xq.T 2.@.G 5 } <.|.;.$.r.B g ",
"^.3.<Xu.c |..X:.b ! _ |.] @X=X0.6.<.e.@X].0 [ F g 6.r.O.x m w.#.X.n ^ { i.&.c.N.k.R $ P p X.].B M l 7X}.2XiX/.H G I $ % + +   I O.2.T N 9.7 #.`.~.).T D > #.-.f ",
"b = . j eX%X@X:.&XqXXXrX=X+.^ *Xd.J L C O.y.[   7 d.O.].9X(.;.OX&XK % E 8Xc.N.N.N.c.6.7X, 5.P > % o g ).Q.{.! d 5X'., . ; x f : F K :   8 5 o.k 3 % . # U -.Y T ",
"n d L <.L j ].;X:X=./.:.@X<XJ XX[.} + > e [ [ D P %.7.s.eXe.d ].8., O 8 H.C.N.N.C.S.G.3.X.:.2.Y > : 7.^.E.~ - L 9.'.r.f > T 9.r.>./ 6 X O 4 O.;   . o ; 4.*.=.].",
"<X` .X:X^ m B w.A x 2.-.L <X X@Xd 7.^ X.: 9 ..r.eXr.+.%.F e.X.6 2 : ; hXMXR.S.R.MXNXvX..Y =X,X_.B 7X1X) V u + | T U ;XZ # > f S U ! =X@X, H @.: . D 2.x $.x ~.6X",
"=X+.) ) ;Xt.a %.B t & u =.@XE.^ v *X|.' m ..w f -  .e.$X3.} e.OXG 2 F.MXNXR.R.R.bXGXAXvX&.2._ L 4 6 B _ N g % g '.).T A D 4 : I 7 6.3.`.7XU p @.A D f -.'.N T f ",
"_.%.b /.1XsXl z W.C + @ d =.2.*.=.! / Z H K.K.r.c 4 2.&.L w.:.@.a...n.NXNXU.U.U.bXNXAXbXx.(.~ S 5 o #.w.o.>X,.%..X.X2.* f 9.6.U 5 : 4 Y -.$.T 0X'.T 7 D 6.U I . ",
"s / @XsXsX{.c ! <.{ *./ 0.X.<.C L { OXp , ..J.).1XB <X#X^ sXoX~ 7.n.V.MXAXbXU.bXNXAXAXU.k.u.B +.:.OX1XY C ] E.).Y c *.L  .G S S p T K r Z =.2.` ;.H : $ 7 P 6.- ",
",.<X{./.`.< r y @X-X@X+.qX).9.Z + t $Xl +.....*.|.o.%X*._ <.i.oXK.B.N.R.AXAXbXNXGXNXR.N.M.D.3.[.E.,XtXY * b W.r.# . g U G : a.6XT 6.D 5 K A ) Z z T T F 5 #.@.A ",
"O.O.'.(.m = t Z >.u.L =.wX@X$.&X} { &X&XfXG...q.*.O.%.6Xd J e.<.D.B.N.C.MXT.w P.NXR.N.N.N.x.k y t t X.k 5 L C 4.G o 4 Z :.*.F 7.Y @., > D : I f D r.'.(.=..X'.L ",
"c b Y w.6XrX}.,.^.! %.>.:.4 % G  .i.[.|.uXF.G.@.o H @.^ 3 o ; g D.N.M.N.L.bXb.I.Y.V.N.N.N.k.&.d X + # I 0X*.d @.r.o . c ] `.5  .;X;X].q.T K U 6.S D ;.(.Z T =.z ",
"o # t ,.;X'.^ ` ,X}.c ' ,.< + < u.1.1XsX=Xw w U X.:.5.$.$ ; o G x.m.M.M.N.R.MXY.B.N.M.M.N.x.&.&.{ 5.U 0.'.N > > S > 7 U d O.eX6.4.9.0.Y D S ].(.X.% @.T K H $./ ",
"wX% * d s Z X.=.+.O.( %._.:.P $X^.9XtX:X' w F.G u.0.H o.R eX..q b.k.m.m.m.Z.Y.B.M.M.M.h.k.H.x.D.D.d.2 #.m = # X G 5X9.P F U ].9X@.t O.;.K $.gX/.^.<.;.* S r.1XiX",
">X( / & T rXtXrX=X( [.&Xd Z <.).E.|.gX=Xi w ..&.9X1.y ,.eXSXvXS.T.nXn.n.n.vXNXU.v.v.A.L.nXmXS.v.T.FXhX: 5 4.d n 6Xr.8.9.$.Y u O.2.u $.X.n ).oX) =.;.Z 0.8.T ;.E.",
"1XO.%X| u ~.n V <XpX:.t j O.`.|.Q._ :X) m w F.&.l 3.#X8XSXUXPXKXPXUXKXKXLXUXPXKXHXAXJXPXLXPXFXBXPXUXSX .F | % : : D a.].;.B B -.-.A ).oX3XE.` N s.U - K H A $.` ",
"eX%X1X@.@ $.^.^ @XiX>X=X-XXX&.c _ X.] c L F.q 2.] ).W hXKXPXPXPXPXPXPXUXPXPXPXPXUXPXPXPXPXPXPXUXPXPXIXxXXX&.X 2 7 s.4.4.6.2 : 2 X 6 -.{./ ) x + 7 ; . : I > 5 Y ",
"e C E.~.a d qX<.>.{.oX#X,X3X1XO.Y 0X|.~.=.F.q O.&Xt 2 cXUXPXPXPXPXPXPXPXPXPXPXPXPXPXPXPXPXPXPXPXPXPXIXZXwXG 2 F q.Y : ; X P e.4.; m A x ! / K s S . o   S =.-.m ",
"2X1XsX(.).>.3.qXfXfXsXE ^ }.A -.0Xw.1X>.o.b...'._.N p.JXIXIXFXFXUXPXPXPXPXPXPXPXPXPXPXPXPXPXPXPXPXPXUXSX6.d J * < 4 @ X + 6.9X&.6.'.'.z b m A T 3 5 =.c > ].@X'.",
"~.!.1X&X#X_ rX>X[.v v 3.^ d d %.`.^.o.6.Q l.x.y.y.c.n.bXLXKXvXmXUXPXPXPXPXPXPXPXPXPXPXPXPXPXPXUXKXDXPXDXd.<.t.t.@.5.<.g X 7 3 B ].r.2.O.t a f K X 5 ;.(.%.5X'.].",
"W c d 2.=XT yX3X+Xv W B X.i.-X] :./.a [ x.h.h.h.h.h.m.B.vXDXR.nXPXPXPXPXPXPXPXPXPXPXPXPXPXPXPXPXDXSXUXUXlXU P ;.(.U Z ,.M 2 o 4 ;.L 5 : $ 5 .     5 5X@XX.U s H ",
"^.;XE d 2.@XrX3X|.^.w.%.9X<X-.q.1X Xa 7.l.g.g.k.h.h.m.M.H.mXT.nXPXPXPXPXPXPXPXPXPXPXPXPXPXPXPXUXDXcXKXUXlXD p @.V / ;.=.).H o p q.O.%.I P T I $ x r.5XO.v w.f . ",
"|..X4X1._.E..X:X#Xo.<X+X;.3.`.| <.>.1.u.f.g.f.f.g.g.h.h.F.cXPXKXPXPXPXPXPXPXPXPXPXPXPXPXPXPXPXPXDXcXKXPXlX .D 6.p 8.6X) ~.OX#.F <.* k , G #.8.m T 0XK , T T  .j ",
"` XXsXoX4X^.,X@X^ ( sXo.@.#XOXe.8Xo.,.W 9 g.f.f.g.g.g.g.J.VXUXPXPXPXPXPXPXPXPXPXPXPXPXPXPXPXPXPXDXcXDXDXcXI #.4.6 f 5.j & &.J L m . . . G 5X*.].5.U $ f F m 5X+.",
") Z W.=X(.t - C ( 1. X*.}.3Xu.u.8X<.q.h ; f.9 i...f.x.K..XVXPXPXPXPXPXPXPXPXPXPXPXPXPXPXPXPXPXUXSXcXBXBXvX..#.K L 6.$.* . 1 7 2 @ % 4 j 8.@X2.2.z , $.5XD > F j ",
"'.A ~ =Xo.* + < c w.4X@X>.] &.&.} G { /.y x.9 7.2.6 1.'.B lXLXKXPXPXPXPXUXUXUXUXUXPXPXPXPXPXPXPXDXzXS.B.V.z.y.N K D D > ; 7.wX%.U `.T A 2.-.A U $ f @XrX#.    7 ",
"x h b C 1.o.=.;X{ b  X_.W ! 1.1.g @ } i.n x.G.Y > x 5.A * xXLXKXKXLXPXLXBXBXFXMXCXPXPXPXPXPXPXIXDXP.B.m.m.c.7Xc S s.e.@.e.%XgX4X+.t.|.Z 8.T * + > S *.,Xm # G G ",
"1XT ` ).=XsX`.dXfX}.= B % g 3.d 0.wX9X#.- x.F.t.B K 4.0.> xXLXKXKXKXKXbXz.Z.S.M.A.CXUXPXPXPXPXIXDXI.k.h.g.0 L A J 7X7X|.;XqX@XXX,Xq.A 2.8.'.c = a.r.(.|.O.r.-._ ",
"$.OXe -.>..X/.,X,Xi p q.8X<.#XB <X XB w.:.c.G.,X=.'.A H + lXLXKXKXKXKXY.h.M.M.M.M.bXIXPXPXPXPXIXDXzXj.g.9 O f $.#.6 ; d %.r.3.|.3X=XB Y x % r 2.~.*.;.b N 0.6XA ",
"= @.Y @XsX X,.A ^ t t z w.qX(  X3XE w.u. Xb.Q }.W ].;XH i xXKXKXKXKXLXvXh.h.h.h.A.BXIXPXPXPXPXPXDXI.g.g.9 G K : U 8.: + # #.%X` ] ' _ U j     j x x T f - P P 3 ",
"@X9XtXgX+X% - d O.).w.X.w.<X:.u.o.k q.O.H x.G..X<XqX1X=XkXZXKXKXKXKXKXHXU.h.h.h.T.KXKXKXKXPXPXPXDXb.g.f.0 I  .X 1 e.].5 . 4 p k r r A 5 , D 3 = * U D f ;.-.> S ",
"=.;X-.s _ 2.w.d p A |.qX&X#X{.[.7.*X,.z f x.D.B ,.u.X.o.pXZXHXKXKXKXKXKXMXn.g.U.HXKXKXKXKXKXKXPXBXv.m.g...@Xl 6 J r.6.o   5 4 + p X.N > K $.2.L , S $ S S > { 6X",
"e b u $.qXgX1X&X%.M ).*.z & <.+.} E A W.`.b.F.w.=X( t.rXoXVXGXJXJXKXKXKXKXmXU.CXKXKXKXKXKXKXKXKXvXB.M.B...O.4 2.0X;XH g l 5 U | % { T A ;._.'.j , K f # . * K @.",
"8.h Z 9.<X,XZ c 3.&X1Xm < p { W E }.(.-.wXn.n.sXXX{.sXiXE.xXGXHXDXHXJXKXKXKXDXKXKXKXKXKXKXKXKXJXY.x.m.B.D.@.$XqXr.z a / ) <.M ; X 0.j p m ;X{.~ A 8.'.$.K U r.4.",
"yX].T Y 3.=._ 4 $ B ^ <.n / }.pXpXsXB %.J.n.v.y.(.=.qX=X,.xXJXHXHXHXHXHXKXKXKXKXKXKXKXKXKXKXKXJXP.G.B.m.Q tXjXr.Y T / u.J ].;.% O P 6.p X. X' V r Z N <.6XI 5 > ",
"j S r.N a s ! i. .j + a | k &XdXpX>Xa [.G.A.A.aX%XdXiX3X XVXJXHXHXHXHXHXHXKXKXKXKXKXKXKXKXKXKXKXmXK.h.h.0 ].0XL Y f X.9.5 > s 8.D P -.5X7X).) s.r.V ' ` D X 2 o ",
"O.f O.=.p $ d -.qXwXo o % ; a oX2X{ 1 uXH.C.A.H.oX X,X=X}.xXJXHXHXHXHXHXHXHXHXKXKXKXKXKXKXKXKXKXDXP.g.q k d { J X.6.$.2.8.e D H 9.@.t Y @.>.i g 8.) Z ).-.c x p ",
"_.t.rX<Xi.# % k w.).E < T k v XX X' Q.oXb.z.z.D.=X:X,X3.q.lXJXHXHXHXHXHXHXHXHXHXJXJXKXKXKXKXJXKXKXY.9 e.` X.6.i.6 # 4 5X'./ A A ;.T A T j n b O.2.) ` XXoXW.` / ",
"X.8Xe.:X>X#.O g >.).>.) 0XrXO.n ~ u.uXoXQ.Q Q < L |.+.w.-.lXKXHXHXHXHXFXHXHXHXHXHXHXHXJXKXKXKXKXKXhXo = y } M [.`.+.6.2 > ^ *.(.m J 0.2.6XJ h 9.O., Y d M A #X%.",
"@.7X{ `.] wXk g p j e.qX|.3XXX3.y 1.Q.u.iXJ.J.E.:.@X{.%X7.xXHXHXHXHXHXHXHXHXHXHXHXHXHXHXHXHXJXKXKXxXa 3 # k  X_ m ! }.W H 4.5.m k #.:X_.%X(.s S H U 5   . l ,.Z ",
"Y :X6X'.1XfX<XH = j O.:XB ,.pXpXoX>X<X&.>X..J.E.=.-X|.sX<XkXHXDXHXHXHXHXHXHXHXHXHXHXHXHXHXHXHXGXDXmX7.9X1.^.XXt.: 2 ! E.'.T h f - 0.=X(.8.h + > B 6.:   # P q.x ",
"% 2 P B ( >X4Xb O.wX;.1X<X) Q.sXiXQ.oX[.>XJ.Q ! W.=X/.rXsXkXSXHXHXHXHXHXHXHXHXHXHXHXHXHXHXHXmXU.BXSXeXwX<X_ ^ f 3 #.B |.~.@.S 5 l 7X@.d 8.h > # * , # . > I U o ",
"P 2 : $ $ b }.3.=X3X( @X#Xc i ' oX|.( v -XG.Q 2.Z -.X.(.:.sXSXJXHXHXHXHXHXHXHXHXHXHXHXHXHXHXBXT.AXSX7 > j $ 5 g k `.8.X.` _ B A =.J o $ j m j f I 4.N s z -.T , ",
"t.g Y Y p h }.4X|.:.m ^ ~.3.^ ^ X.3.*X*XoXQ J.*.m - 0._.J.c.vXHXHXHXHXHXHXHXHXHXHXHXHXHXHXHXCXvXmXSXI 9.0.p X.a S r.;.L L ) ) Z d Y p D f . * U T T h / Z (.;.T ",
"0X>.-XsX`.A =X.X' k T 0.(.1X4X1X.X+.*XoX2XK.K.y.b.D.F.Q x.h.L.MXHXHXJXJXHXGXHXGXHXHXHXHXHXHXFXnXHXDXeXT L @.> > P '.0.e.a l @.wXw.O.H m x * - B j Y D > # j x T ",
"P =.-XtXfXXXOXOX( ).q.].(.] @XXX{.:.' ' 3XK.q 0 g.h.m.m.k.g.h.S.U.hXhXzXxXZXSXSXSXFXHXHXJXJXHXHXMXT.P.9.3 OX$Xs.6.m L U 3 = 5 5.qXl 7 F g > 5 # > H $.K * 5 K r.",
"H %.w.C .X,X>X1.,.-.-X=X`.{ X.2.$XOX[.XX[...J.K.g.h.M.M.m.g.j.x.G.8.e a 7X@X7XwXjXgXxXxXxXZXZXvXA.M.k.b.1 +.<.7.(.t.D H S J j % 3 # F 6   7 5X6.> # x !.9.+ $ U ",
"qXsXfX' ` _.W *.<.B O.2.{ < n :.a / OXrX] J.G.8Xx.j.h.k.j.H.aX4X3XA e =.#X&X|.rX`.^ -.T ;X1X=Xu.j.g.h.9 F 2.B 7 q.%X6X6X$.t.e.G G #.r.$.< i.r.5.U 4 Z 6X6., > > ",
"1XsX9.d c =.:X>X).z q.X.A a d ).u v $X X` K.J.J : 5 ....&.2.'.( @X=.%XfXXXdX%X9.w.- d T ).oXW.D.h.m.m.q 7.#X[.wXt.X.s.5.O.0XeXo.eXsXtX0.$Xq.6XY %.$Xt.5.U + . ; ",
"Y m _ A -.i.;.*.OXA t z _.=.<.<.t.,.>X3XXXJ.J.5.J ;X1X9X9X` 4X4X@X-X-X,X_ |.0X5.H %.^ 8.9X|.y.B.M.k.g.k.D.E < M 3.:.D h p 6.+XqX8Xg } k wXq.wXrXqX*X`.`.F p g # ",
"0Xs O.4XoX>X%X#X<.k * ;.,X4X X+.=XXXoX_ {.Q K.oX.X).:.|._.=.rX4X+.2.,X|.=.8.'.:XO.8.f - J k ~ g.h.h.g.h.j.&.#.6 % :.:.:.X.$XdX1X7XM F i.OXj t &.e.w.%.( b 2.2.g ",
"T ;X=.` ' ^ ^ `.! $X;.;.>.{.,..XXX>X:.n .X..K.wX%X,.3X1X|.-.|.:.>X+.W B :.X.r.8.6XH @.L ;.&X&.J.b.c.x.x.aX:X+XM } :.:.1X3X@X3.u.<.@X1X:.1.#Xv k @.-.-.! X.q.<.<.",
"e tX}.d g B N L m N `.#X XQ.oX=XsXOX,.>Xu.y.&.( -.q.,X=XrX1X! :._.r.w.K j #X=XX.9.j '.:X0XT Y ;.B Y t _ 2.r.L { 3.>X4X^.'.2.g { {.^.d W #XwX/ q.3.o.7.U a 2.1XpX",
"B Y @.4 , - B *.+.k B #X#X' :.a M +X XXXA e.%./ ;X+.2.&XsX|.|.`.n J #.0.].O.-.a } 7XtX1X'.Y < 6 ; * r.6X$.4.;._.3X1X=.d q.3.<.7XqX:.&.=X).gX|.%XdX2X*X1.k %.}.oX",
";Xm O.N * + w.,X_ %.%.2.C ) v k o.uX X( t . E *X3X@X4X=XsXoX+.XX( *.wXgXgX<Xk } &.+X7XU s rX( 4 r s 5X .9.4.F 4XqXt.8.s @.3.@X%X3.).}.qX2.).+.3.4XXX>.3.|.OX,.oX",
"- r.'.E.=X;.v }.4X/ +X}.t n ] pXiXpX' v V W &XoX{..Xu.E @X:.tX1X=XXX3.eX<X:.3.M OX_ qXOXt.fXQ.=.O.].eXH 9.%X3.c j | &XqX%X`.X.:.3.@X+.+.2.=X'._.s.q.:.OX/ X.0.#X",
"* ].~..XsX&.@X=.1X>X>X>Xd o.^ ' >X>.y c XX}.1XoXoX,X} v 2.:.qXqX-X-X.X=.t.k J } E :.{._.8.w. X@X&X%Xt.<.yXqX!.8.U sXqX X{ 1 >X,.,X~.( ,.3.#.qX{.#XOX3.7X:X_.e.{ ",
". z u .X=X%X+.<.^.[.' ` y r l 6 &.}.^.:.pX( oX.X~.:.1.<X|.=.OX2.(..X=X2X>.W o o.w.F t N j < ! <Xe.J rXOXe.;X=.yX`.:X$.a y { #X .0.a { ,.`.yX;X'.,..X^.| %.e.J M "
};
