/* XPM */
static char *e71b18ae456941f7f0988aa27090802eLx31OMlFJvNSoaV7[] = {
/* columns rows colors chars-per-pixel */
"64 64 216 2 ",
"   c #0D1A1F",
".  c #0A171C",
"X  c #0D1B21",
"o  c #101E23",
"O  c #0F2224",
"+  c #0F2925",
"@  c #122325",
"#  c #132927",
"$  c #132529",
"%  c #132C29",
"&  c #192D29",
"*  c #14332B",
"=  c #19352A",
"-  c #153A2D",
";  c #1B3B2B",
":  c #143026",
">  c #162D34",
",  c #1A2E3A",
"<  c #163333",
"1  c #1C3335",
"2  c #1B343C",
"3  c #1A3B3C",
"4  c #173F38",
"5  c #233D2B",
"6  c #203728",
"7  c #1B432E",
"8  c #1D4B2F",
"9  c #17432E",
"0  c #1D4C31",
"q  c #1B4533",
"w  c #1F5132",
"e  c #24432C",
"r  c #224B2E",
"t  c #2B4D2E",
"y  c #29472A",
"u  c #22522F",
"i  c #28582E",
"p  c #31552E",
"a  c #31582F",
"s  c #234A30",
"d  c #234436",
"f  c #225432",
"g  c #2A5431",
"h  c #265D33",
"j  c #2B5C32",
"k  c #285B3A",
"l  c #315B31",
"z  c #335A38",
"x  c #2B6333",
"c  c #29623A",
"v  c #336433",
"b  c #346B34",
"n  c #3B6C33",
"m  c #32693A",
"M  c #3C7234",
"N  c #40712F",
"B  c #437334",
"V  c #447A35",
"C  c #497D34",
"Z  c #1A3542",
"A  c #223B43",
"S  c #243E49",
"D  c #1D4446",
"F  c #24434C",
"G  c #25494A",
"H  c #275949",
"J  c #2A4C5A",
"K  c #294854",
"L  c #2A5452",
"P  c #2E5B5C",
"I  c #2E6244",
"U  c #2E6554",
"Y  c #346F54",
"T  c #387155",
"R  c #3A7341",
"E  c #2C5463",
"W  c #2B5A68",
"Q  c #3A5D6A",
"!  c #365A64",
"~  c #36686A",
"^  c #3C6474",
"/  c #3B7C6A",
"(  c #40676C",
")  c #476F7F",
"_  c #466A74",
"`  c #427376",
"'  c #41776B",
"]  c #4C8235",
"[  c #4C833B",
"{  c #518536",
"}  c #538B36",
"|  c #548B43",
" . c #4A8352",
".. c #5E985F",
"X. c #548C44",
"o. c #5A9378",
"O. c #518A6E",
"+. c #3D6980",
"@. c #476C89",
"#. c #457588",
"$. c #577D8B",
"%. c #4A749D",
"&. c #487199",
"*. c #456A91",
"=. c #4B7AA5",
"-. c #517FAE",
";. c #4E7CB7",
":. c #4C8687",
">. c #4B8692",
",. c #5B8597",
"<. c #57969A",
"1. c #5C9587",
"2. c #659E89",
"3. c #7CAB9D",
"4. c #4D84A0",
"5. c #5B9BA4",
"6. c #5686BA",
"7. c #5989B5",
"8. c #5289AB",
"9. c #6494BD",
"0. c #6497A8",
"q. c #78AABB",
"w. c #5483C4",
"e. c #5B8BC6",
"r. c #5686CE",
"t. c #5987CD",
"y. c #5788CE",
"u. c #5A89CE",
"i. c #5F91CE",
"p. c #5686D0",
"a. c #5788D0",
"s. c #5C8DD1",
"d. c #5F91D3",
"f. c #6697C5",
"g. c #6A9DCE",
"h. c #6495CA",
"j. c #608FD3",
"k. c #6294D4",
"l. c #6699D5",
"z. c #6B9CD6",
"x. c #6395D8",
"c. c #669AD8",
"v. c #6B9DD9",
"b. c #6D97D6",
"n. c #729AD5",
"m. c #6EA1D9",
"M. c #6DA1D4",
"N. c #72A2D4",
"B. c #72A4DB",
"V. c #7CA4DA",
"C. c #75AADC",
"Z. c #78A5D4",
"A. c #72A7C3",
"S. c #72A6E1",
"D. c #76ABE4",
"F. c #79AEE6",
"G. c #7BAFE8",
"H. c #7BB1E6",
"J. c #7CB2E9",
"K. c #7FB8EB",
"L. c #81B4C9",
"P. c #82AEDE",
"I. c #83B4DD",
"U. c #88BAD8",
"Y. c #81B7EA",
"T. c #83BAEB",
"R. c #8ABEEC",
"E. c #85B8E7",
"W. c #92BFEB",
"Q. c #84BBF1",
"!. c #8CC3DB",
"~. c #94CBD7",
"^. c #87C0ED",
"/. c #8CC3EE",
"(. c #8EC0E1",
"). c #91C5E4",
"_. c #92C6EC",
"`. c #96CBEC",
"'. c #99CEED",
"]. c #95CAE4",
"[. c #9DD2EE",
"{. c #8DC5F0",
"}. c #97CDF1",
"|. c #9DD3F1",
" X c #9FD8F3",
".X c #A4CFEB",
"XX c #A2D3EC",
"oX c #A9D6ED",
"OX c #A3D9EF",
"+X c #BDD6EB",
"@X c #A3D5F1",
"#X c #AAD6F1",
"$X c #A4DBF5",
"%X c #ABDCF5",
"&X c #A4DCF8",
"*X c #B2DDF4",
"=X c #B5D8F2",
"-X c #ABE2F6",
";X c #ACE5F8",
":X c #AFE8FE",
">X c #B3E3F6",
",X c #BBE4F7",
"<X c #B3E5F8",
"1X c #BBE7F8",
"2X c #C3DCF3",
"3X c #CCDCF2",
"4X c #C3D7F3",
"5X c #C4DAE8",
"6X c #C3E5F7",
"7X c #CCE4F6",
"8X c #CCEAF9",
"9X c #C5E5F9",
"0X c #D3EBF9",
"qX c #DAEBF9",
"wX c #D4E7F7",
"eX c #E2ECF9",
/* pixels */
"-X-X_.l.D.T.K.Y.T.T.T.Q.%XqXeX@Xc.p.r.s.r.p.p.a.a.a.t.t.y.k.OX0X>X-X`.l.S.T.Y.Y.Y.Y.T./.%XqXeX@Xx.r.a.a.p.r.p.p.p.y.s.u.t.k.#XqX",
"-X'.M.u.k.D.K.K.J.F.F.H.R.>X7XW.D.x.s.y.r.r.p.p.r.r.r.y.u.v.[.<X-X`.z.a.k.F.Q.Y.H.H.J.J.R.,X7X_.D.k.s.t.p.p.r.r.r.r.r.s.s.c.XX<X",
"[.m.r.r.r.k.H.F.x.s.s.s.l.'.@Xn.D.J.D.x.s.s.s.s.j.j.s.k.D.J.T.$X Xz.r.r.p.k.F.F.k.k.k.s.l.'.@Xn.D.K.F.k.d.s.d.d.s.d.s.x.D.H.R.$X",
"|.l.r.y.p.k.D.k.r.r.r.r.t.m._.v.d.F.Y.J.F.H.J.J.J.J.H.J.J.S.m.[.[.k.r.a.p.k.D.x.u.r.r.r.r.z._.z.s.F.Y.H.G.G.G.J.H.J.H.F.G.D.B._.",
"[.l.r.r.u.D.J.k.r.r.a.a.r.d.R.}.n.k.F.T.Y.T.T.J.J.J.H.J.c.s.r.m._.k.r.y.s.D.H.k.a.y.a.a.r.d.T.].v.k.D.K.T.T.K.J.H.H.J.J.c.s.s.k.",
"|.c.r.y.d.J.T.F.k.s.t.p.r.y.C.oX+XV.x.J.T.Y.F.l.j.s.d.D.D.x.p.c._.m.r.u.x.K.T.D.d.d.y.r.r.d.Y.,X4Xn.l.K.K.K.m.d.s.d.k.D.D.x.r.r.",
"$XJ.d.k.F.T.J.J.J.D.x.e.>.Y c T 3.].T.T.Y.F.k.y.r.r.u.k.D.C.e.i.).C.d.d.m.C.F.J.J.D.x.d.s.i.I.+X3XL.5.<.5.<./ >.r.y.r.k.F.D.s.k.",
"$X^.H.J.T.H.x.x.D.C.5.Y c j h h x o.].|.{.B.k.y.t.u.w.8.5.:.Y U H H :.:.L G / 7.C.F.m.M.:.U H I I c x c x c x c :.w.u.r.k.D.B._.",
"|.^.Y.T.D.d.r.8.<.T c h h h h x x b o.q.~.].].z.p.>.L z [ [ b x u u 0 9 8 w q q P >.L k k h h h h h f h h h x f w ~ 4.p.x.T.@X,X",
"/.T.Y.H.d.6.O.m m x h h x h h x V V M [ X.X...1.! d n V M b x x x w w h h f 9 * * q w w h x h h h h x x h h h h w w q U (.;X0XqX",
" X/.H.k.w. .] V V M c h h h h x x x h b } M i ; g j n b x x v M M b M M x h f 7 # ; x x x h h h h h h h h h h f w w w w ' #X8X6X",
"-X$X^.f.O.M x x x c h h h h h h h x h x x 7 # & v x h x x x l l x h f x h x h h r 7 B ] b h h h f w w f h h h h x x x x m A.R.'.",
" X-X~. .v x m x h x h h h x f x x x h w - * & % g n c h h h 8 - = & = e f h j h j g p v j h h h f 0 9 9 v x h h x V C ] { o.s.l.",
"g.2.M x x M b h f f w w f f h x x h h w = $ % % 5 v v h h j h w u 7 = & ; r j x m n e - r x j h x h f 0 j v x x x x v n ] ..r.p.",
"o.z x m V } ] n u 8 8 8 8 v b x h h h w = * % # % = s 0 i b m j x x j ; # 5 p a a t # % * t j v x h x x u 7 g j x b V ] { | 6.a.",
"-.4 ; e l V { ] V B g 7 b ] M x h h x f 0 = $ @ @ $ * = = e p n b v t & # $ & = ; ; = @ # $ = t r 7 a j t = = ; 7 b { { C z -.s.",
"r.+.* # = ; 5 r r 5 e B { } { ] b x v j - * * * % @ % % # # $ ; 5 = @ @ @ # * 7 7 w 7 # $ $ # % * * # # & # # # % = p y 6 K w.s.",
"r.y.L # * % $ % % @ 5 V { { { } } V v e # * - * - @ X O % * * * # @ X X X % % * - 8 ; @ o o # % * % O % # o o o @ # $ @ & %.t.t.",
"d.Y.L.1 * $ @ $ % * # ; e e t n n t & & * * * - - @ X : - - 9 ; o   X X O % % % % = & #   o # * @ O * 7 * @ O X o o o o S w.a.t.",
"R.$XOXK # @ @ * = ; # % % * % = = # # $ - - - 9 O O % * - - - % o o X X X @ $ % # @ $ o   o @ $ @ # 7 7 % ; 7 + X o   $ @.u.a.s.",
"*XwX=X7.> o # - ; = # * - * $ $ % % @ : - 9 w 7 O @ - - = * * % o o o # # O % % O % # o % @ O # @ % 7 $ # 7 7 #   o   1 N.F.M.H.",
"<XqX3Xn.E @ # ; 7 @ # 9 ; # o O # + % - 0 9 ; * # * 7 ; $ % + O o # % * = @ O O % + % @ % $ X @ X + * % @ * * @     @ Q J./.@X%X",
"*X8X1X`.) # X # & o # ; % # O O + % * = 9 * % # X @ # # % @ O @ o # ; 7 : # @ # - = O @ $ @ X @ O % # @ X @ # @ o   & @.D._.6X-X",
"/..X$XoX_ $ o o @ @ @ # * @ O * - 7 * # * % % O X X @ # : % O O   @ $ & @ @ O % - * O X o O X X X @ @ @ # 7 *   X X o J k.}.@X_.",
"H.l.z.,.1 & @ o o # o # * O $ + * * # @ # $ # o # o o @ @ O @ @   o @ @ o o @ $ @ X @ + O + O X X @ @ @ % 0 % X   X   , b.'.B.D.",
"H.x.w.3 # $ # o @ # O # % @ O O o # @ @ @ o @ @ # X o o O O X @ o X o o o o @ @ X X % = % * : X o o o X @ = $ X X X   2 ).'.k.u.",
"Y.F.e.3 % % # @ $ : @ + @ o X X o o o o @ @ $ @ X o o o $ @ X X o X o X X o     X o % = * + @ X   X X X   O o X X o   A W.z.t.u.",
"T.Y.u.E * & $ @ + * : % @ o @ X o @ o o # % $ @ @ @ X o o o o X o     X     X X X o @ @ O X X X X X X       X X o $ o A Z.k.u.k.",
"T.G.s.;.< * & # % * + $ % O X X # @ @ X @ @ O X X X X X X X X X X X X . X   X X X X o X X X X X   X X         o * % % ( [.].B.D.",
"{.E.z.b.Q * & $ O O $ % % @ @ @ @ # @ o o O @ X   X   X . X X X X X X X X X X   X X X X X X X X X o X X o o X   # * G I.OX$X[./.",
"|.&X|.$XXX! $ o o $ * % O @ X @ @ # % o X X $ o X X X X X X X X X . X X X . X X X X X X . X X X o o X o @ @ o o O L g.J.J.R.$X-X",
"}.&X-X$X|.Z.@.@ $ * * + @ O X X o @ @ X X X @ X X   X   X X X . X X X X X X X   X X X X X X X X o X @ $ @ @ @ @ K w.k.k.s.z.@X<X",
"$X-X'.B.F.K.B.< * - % $ $ o X X X X X X X X X X . X X X X X X X X X X X X X X X o X X o o X X X X o % + O X o $ =.t.t.t.t.k.#X0X",
"-X[.z.r.i.H.H.G % $ # o @ o X   . X X X . X . X X X X X . X . X . X X . . X X X @ X o $ o X X X X X % % O O @ 2 w.a.t.t.s.b.|.<X",
" Xm.r.r.y.k.H.7.& X o @ o o X X X X X X X X . X X X . X X X . X X X . X X X X X o o o X X X X X X @ O % + + + 2 e.j.j.k.D.H.R.$X",
"[.l.r.y.r.k.D.k.K X o @ X X X X o X X . X X X X X X X X X X X X X X X X X X X o o o X X X o % @ X O O @ O O * < 9.Y.G.G.H.D.m._.",
"[.l.r.r.s.D.H.k.*.o o o X X X X o X X X X X X X X X X X X X X X X X X X X X X o X X X X X X @ % % X X o O o + < ,.J.J.J.c.s.s.k.",
"[.m.r.r.k.J.K.F.=.$ o o X @ @ o $ X X X X X . X X . X X . X X . X . X X X X o o X X X X X O % * < % + + $ O X : ^ u.k.D.D.x.r.r.",
"$XJ.d.k.D.K.H.H.#.& @ X X % @ X $ $ X X X X X . X X X . X X X X . X X X X X X X X X X X X X + * * * * + $ $ X $ #.y.r.k.F.D.s.k.",
"$X^.F.H.Y.D.l.u.! $ o X @ % @ X o $ o o X X X X X X X X . X X . X X X X X X X X X X X X X X X @ # * * + O % Z =.y.a.y.r.k.D.B./.",
" X^.T.Q.D.k.a.w.Z * O o @ @ o @ o $ % @ o X X X X X X X X X X X X X X . X   X o X X X X X X X X @ % < @ X _ U.z.y.r.t.r.l.E.@X<X",
"/.T.K.D.k.y.y.a.=.! O O % $ X X o o $ o o o X o o X X X X X X . . X X X   X o o X X o X X X X X   @ X o F U.:X'.N.k.k.v.`.*XqXqX",
"@X/.H.k.r.r.r.r.y.w.@.O + O @ @ o o $ X   o o o o X X o X X X X . X X X   o o @ o o o o X X X X 1 J 2 &.r.z.'.>X2X#X|.|.$X%X7X6X",
";X$XR.l.k.k.l.k.k.m./.$.Z < % $ o $ o o o o o $ @ X o o X X X X X X X .     o o $ $ o X X X X o %.H.D.x.a.t.v..XqX0X%X/.K.E._.[.",
"$X-X%XoX@X$XOXoX X[.,X7XP.=.q $ $ @ @ X @ o o $ o o o X X X X o X X X X X X $ $ @ @ o X o @ o @ e.K.Q.D.j.r.t.v.#X%X/.D.l.j.k.k.",
"m._.<X0XeXqX1X8X1X<X0XwXR.k.^ = % @ X @ $ @ o & # X o o X X o o . X X X o o @ $ O   X @ @ @ @ $ f.T.Y.Y.F.l.s.v.|./.D.k.u.t.r.r.",
"t.z.'.,XqXeX>X#XXX|.%X%X{.G.Q # X X X % : @ @ & @ @ % X X X X X X X X X o $ o o X   X @ $ o o @ Q F.F.H.G.G.R.}. XY.k.y.u.t.t.r.",
"t.r.z.[.,X0X@Xv.k.k.z.'.$XOXL @ X X + * %   @ # # @ $ X X X @ o X X o X o > $ o   X @ @ @ o o # 2 y.s.s.k.W.9X>X{.F.s.r.p.r.t.r.",
"t.r.k.T.$X%XT.x.s.s.x.Y.$X[.! O X X O O O   @ % % % + X X X @ @ X X X X o @ @ X X X o @ X X X X , 7.n.k.z._.=X+X/.F.s.p.s.p.p.r.",
"t.k.H./.|./.Y.H.H.F.H.T.K.v.6.3 . o o   @ @ @ @ : % X X X X @ $ o o X X X o o   X X X X X X X X 2 .X4X#X/.z.z.Y.T.F.s.r.p.r.r.p.",
"k.H.@X X/.T.T.T.Q.T.T.T.F.s.r.%.&   # 1 ^ Z # @ X O X X X X % & @ o X o X o X X X   X @ X X X X $.8XqX#Xv.r.r.d.J.J.k.r.r.r.u.r.",
"R.$X$XR.G.G.G.G.J.J.J.T.H.k.r.y.&.$ $ F w.;.J < X X O X X O $ % @ X X X o @ @ @ X X @ $ X X @ K z.%X.Xb.r.r.p.x.J.T.D.x.s.s.y.s.",
"*X0X=Xz.s.s.k.k.d.k.F.Y.T.F.x.s.z.` D %.y.r.u.9.2 X o o X o % O X X @ X $ # O   X X o $ $ J 8.u.n.`.v.t.u.u.k.D.K.Q.Y.J.H.D.m.F.",
",XqX3XN.r.u.u.r.r.y.k.D.H.K.H.J.|.`.e.w.y.k.H.H.F @ o   X @ % $ X X @ X X % 2 O   X @ 1 #.C.J.J.|.|.k.w.u.b.D.K.H.F.H.J.K.R.@X$X",
"*X8X,X'.N.u.u.u.r.r.r.u.k.F.R.{.*X%XB.k.l.D.Q.f.& # o o X % : X X X o o X S ;.W @ O * W i.J.R._.;X#XB.k.b.F.T.D.k.s.s.l.D._.1X*X",
"/.XXOX-X'.v.t.t.k.k.k.k.z.R. X-X0XwXoX'.T.J.m.^ $ # @ o o X X X X X o @ X Q r.w.@.F ~ i.l.R. X-XwXwX%X'.E.H.D.k.a.p.r.r.c.'.@X/.",
"H.c.v.'.;X'.v.v.`.[.[.'.}. X X%X7X*X;X;X|.S.e.G $ # @ $ X X X X X X @ @ $ q.n.m.`.'.].'.}. X X%X7X,X;X;X|.B.s.s.a.a.u.r.v.`.B.D.",
"H.d.r.z.'.%X|.'.$X$X{.^.Y.J.m.E.W.T.'.;X>X'.l.E & # $ $ O X X X X o O $ ! [.|.'.&X&X{.^.T.H.m.Y.W.T.'.-X>X`.z.y.r.r.r.z.'.'.k.u.",
"K.D.s.r.v.|.{./.R.R.K.D.j.s.s.F.F.k.C.#X8X<X'.h.P # % % O X X X S A 2 Z 7.|.{.^.^.T.T.S.d.y.d.H.D.k.C.%X8X<X'.n.k.k.M.'.'.z.u.r.",
"T.J.s.r.k.`.{.Y.J.H.D.k.a.r.l.S.l.z._.$X%X&X$X@X].~ % @ X X . S B.H.e.w.c.'./.K.K.H.D.k.y.y.k.S.k.z.'.$X%X$X$X}.[. X*X2XP.k.u.u.",
"K.F.d.r.m.OX#X{.J.c.i.y.t.k.S.l.l._.$X{.Y.J.Y./.&XXX^ @ X X $ 9.Q.G.s.t.v.@X%X/.J.c.d.y.r.x.S.d.l._.$X{.Y.Y.Y./.$X-X9X*XOX`.B.S.",
"{.Y.l.z.'.,X0X*X{.D.d.s.k.F.H.x.B.Y.Y.D.k.s.k.D.E.W.I.!   X Q R.{.Y.c.c.'.1X0X*X/.S.d.s.k.D.H.l.S.Y.Y.D.k.s.j.F.Y.R.R./.$X%X|./.",
" X$X X X%X2X3X2X$X/.K.K.R.Q.R.J.l.s.s.s.y.r.a.s.d.S.J.z., A ,.@X&X&X@X X#X5X3X2X@X/.Y.K.K.^.R.J.x.s.s.s.a.r.a.s.k.D.H.H.H.R.$X$X",
"/.$X;X-XoXV.n.V. X$X$X&X$X&X$X[.k.r.u.r.r.a.y.a.y.d.d.e.+.7.0.[.}.@X;X;X@XP.b.P. X-X$X$X$X$X$X'.k.r.r.r.t.a.a.t.a.j.k.d.s.c.@X;X"
};
